<?xml version="1.0" encoding="UTF-8"?>
<svg xmlns="http://www.w3.org/2000/svg" width="317" height="1268" viewBox="0 0 317 1268" data-advance="317" data-ascent="750" data-descent="-518" data-vertical-extent="1268" data-units-per-em="1000" data-glyph-name="one" data-codepoint="49" fill="none" stroke="currentColor" stroke-width="50" stroke-linecap="round" stroke-linejoin="round">
  <path d="M88 146Q88 146 84.5 146.5Q81 147 81 156Q81 156 81.0 164.0Q81 172 83.0 187.5Q85 203 85 219Q85 219 85.0 225.5Q85 232 81.5 251.5Q78 271 71.0 290.0Q64 309 53.5 324.5Q43 340 29 346Q29 346 25.5 347.5Q22 349 6 353M39 771Q39 771 53.5 761.0Q68 751 109.0 735.0Q150 719 186 719Q186 719 195.0 719.0Q204 719 220.5 724.0Q237 729 254 736M168 720Q168 720 167.5 691.5Q167 663 157 601Q157 601 152.0 563.5Q147 526 135.5 452.0Q124 378 115 303Q115 303 113.5 292.0Q112 281 110.0 259.5Q108 238 106 216Q106 216 106.0 214.0Q106 212 105.0 202.0Q104 192 103.0 181.5Q102 171 100.5 162.0Q99 153 97 150Q97 150 95.5 148.0Q94 146 88 146"/>
</svg>
