<?xml version="1.0" encoding="UTF-8"?>
<svg xmlns="http://www.w3.org/2000/svg" width="453" height="1268" viewBox="0 0 453 1268" data-advance="453" data-ascent="750" data-descent="-518" data-vertical-extent="1268" data-units-per-em="1000" data-glyph-name="two" data-codepoint="50" fill="none" stroke="currentColor" stroke-width="50" stroke-linecap="round" stroke-linejoin="round">
  <path d="M100 316Q100 316 77.5 316.0Q55 316 23.5 286.5Q-8 257 -8 211Q-8 211 -8.0 204.0Q-8 197 -3.5 182.5Q1 168 10 157Q10 157 14.0 152.0Q18 147 34.0 138.0Q50 129 63 129Q63 129 94.0 129.0Q125 129 166 177Q166 177 170.5 182.5Q175 188 184.0 199.5Q193 211 201 224Q201 224 216.5 248.5Q232 273 244.0 335.5Q256 398 256 455Q256 455 256.0 465.0Q256 475 255.0 494.5Q254 514 252 534Q252 534 249.5 555.5Q247 577 228.0 626.5Q209 676 179 708Q179 708 169.0 718.5Q159 729 126.5 739.5Q94 750 65 750Q65 750 59.0 750.0Q53 750 37.5 744.5Q22 739 22 723Q22 723 22.0 718.5Q22 714 27 709Q27 709 35.5 697.0Q44 685 75.5 673.5Q107 662 136 662Q136 662 152.5 662.0Q169 662 190.5 673.5Q212 685 232.5 698.5Q253 712 277.0 723.5Q301 735 339 735Q339 735 355.5 735.0Q372 735 401.0 722.0Q430 709 456 690"/>
</svg>
