<?xml version="1.0" encoding="UTF-8"?>
<svg xmlns="http://www.w3.org/2000/svg" width="301" height="1268" viewBox="0 0 301 1268" data-advance="301" data-ascent="750" data-descent="-518" data-vertical-extent="1268" data-units-per-em="1000" data-glyph-name="eight" data-codepoint="56" fill="none" stroke="currentColor" stroke-width="50" stroke-linecap="round" stroke-linejoin="round">
  <path d="M118 261Q118 261 118.0 260.5Q118 260 118 257L122 198Q122 198 121.5 189.5Q121 181 114 166Q114 166 111.5 158.5Q109 151 97 141Q97 141 87.5 133.5Q78 126 52 125Q52 125 51.0 125.0Q50 125 47 125Q47 125 35.0 125.0Q23 125 4 134Q4 134 -8.0 139.5Q-20 145 -32 168Q-32 168 -36.5 177.5Q-41 187 -46 210Q-46 210 -46.5 215.5Q-47 221 -47 231Q-47 231 -47.0 238.0Q-47 245 -45 257Q-45 257 -43.0 269.5Q-41 282 -28 303Q-28 303 -20.5 315.5Q-13 328 8 349Q8 349 15.5 357.0Q23 365 40 378L84 418L175 500Q175 500 186.0 511.5Q197 523 213 555Q213 555 218.5 566.0Q224 577 233 604Q233 604 237.0 617.5Q241 631 241 658Q241 658 241.0 661.0Q241 664 240 668Q240 668 239.5 682.5Q239 697 225 718Q225 718 216.0 730.5Q207 743 179 754Q179 754 170.0 757.0Q161 760 143 760Q143 760 136.0 760.0Q129 760 118 757Q118 757 104.0 754.0Q90 751 73 730Q73 730 61.0 717.0Q49 704 42 668Q42 668 41.5 662.5Q41 657 41 645Q41 645 41.0 632.5Q41 620 47 596Q47 596 52.0 572.5Q57 549 70 505L87 443L100 386L113 310"/>
</svg>
