<?xml version="1.0" encoding="UTF-8"?>
<svg xmlns="http://www.w3.org/2000/svg" width="517" height="1268" viewBox="0 0 517 1268" data-advance="517" data-ascent="750" data-descent="-518" data-vertical-extent="1268" data-units-per-em="1000" data-glyph-name="ampersand" data-codepoint="38" fill="none" stroke="currentColor" stroke-width="50" stroke-linecap="round" stroke-linejoin="round">
  <path d="M472 712Q472 712 459.0 726.5Q446 741 425.5 751.0Q405 761 373 750Q373 750 362.5 746.5Q352 743 317.5 704.5Q283 666 248.0 620.5Q213 575 183.5 535.0Q154 495 144 484Q144 484 133.5 472.5Q123 461 102.5 431.0Q82 401 66.0 368.0Q50 335 40.0 300.0Q30 265 30 234Q30 234 30.0 211.0Q30 188 54.5 157.0Q79 126 127 126Q127 126 147.0 126.0Q167 126 188.0 150.0Q209 174 218 209Q218 209 220.5 217.5Q223 226 223 237Q223 237 223.0 249.0Q223 261 211.0 286.5Q199 312 187 332Q187 332 176.0 349.0Q165 366 135 396Q135 396 125.0 406.0Q115 416 95.5 435.5Q76 455 56 475Q56 475 45.5 485.5Q35 496 26.0 524.5Q17 553 17 582Q17 582 17.0 596.5Q17 611 27.5 638.5Q38 666 57.0 687.5Q76 709 102.0 722.0Q128 735 158 735Q158 735 182.5 735.0Q207 735 246.0 712.0Q285 689 312.5 652.5Q340 616 354.5 571.0Q369 526 369 481V470"/>
</svg>
