<?xml version="1.0" encoding="UTF-8"?>
<svg xmlns="http://www.w3.org/2000/svg" width="589" height="1268" viewBox="0 0 589 1268" data-advance="589" data-ascent="750" data-descent="-518" data-vertical-extent="1268" data-units-per-em="1000" data-glyph-name="at" data-codepoint="64" fill="none" stroke="currentColor" stroke-width="50" stroke-linecap="round" stroke-linejoin="round">
  <path d="M298 786Q298 786 257.5 789.0Q217 792 145 760Q145 760 96.5 736.5Q48 713 11 609Q11 609 4.0 585.0Q-3 561 11.5 497.0Q26 433 77 381Q77 381 128.5 339.0Q180 297 343 339Q343 339 382.0 350.0Q421 361 461.5 407.5Q502 454 523 530Q523 530 526.5 543.0Q530 556 526.5 586.5Q523 617 509 638Q509 638 479.5 675.0Q450 712 347 652Q347 652 329.0 638.5Q311 625 294.5 582.5Q278 540 270 469Q270 469 273.0 494.5Q276 520 274.0 565.0Q272 610 253 642Q253 642 244.0 655.0Q235 668 203.0 660.0Q171 652 147 620Q147 620 141.0 610.5Q135 601 131.0 573.0Q127 545 133 520Q133 520 137.0 506.0Q141 492 159.0 480.0Q177 468 196.0 475.0Q215 482 228 512"/>
</svg>
