<?xml version="1.0" encoding="UTF-8"?>
<svg xmlns="http://www.w3.org/2000/svg" width="634" height="1268" viewBox="0 0 634 1268" data-advance="634" data-ascent="750" data-descent="-518" data-vertical-extent="1268" data-units-per-em="1000" data-glyph-name="L" data-codepoint="76" fill="none" stroke="currentColor" stroke-width="50" stroke-linecap="round" stroke-linejoin="round">
  <path d="M-242 47Q-242 47 -232.0 62.5Q-222 78 -186.0 106.0Q-150 134 -107.5 157.0Q-65 180 -21.5 196.0Q22 212 58 219Q58 219 74.0 222.5Q90 226 124.0 228.5Q158 231 191 231Q191 231 209.0 231.0Q227 231 267.0 223.0Q307 215 341.0 197.0Q375 179 397.5 149.5Q420 120 420 77Q420 77 420.0 60.5Q420 44 406.0 18.0Q392 -8 369.5 -26.0Q347 -44 318.0 -53.5Q289 -63 259 -63Q259 -63 237.5 -63.0Q216 -63 182 -38Q182 -38 164.5 -25.0Q147 -12 136.0 24.5Q125 61 125 102Q125 102 125.0 126.0Q125 150 133.5 195.5Q142 241 156 287Q156 287 161.0 303.0Q166 319 176.0 351.5Q186 384 196 416Q196 416 203.0 440.0Q210 464 225.0 510.5Q240 557 254 605Q254 605 257.5 615.5Q261 626 267.5 647.5Q274 669 280 690Q280 690 283.0 701.5Q286 713 290.0 736.0Q294 759 299 782Q299 782 303.0 799.5Q307 817 307 848Q307 848 307.0 865.5Q307 883 293.0 909.5Q279 936 238 936Q238 936 232.0 936.0Q226 936 214 932Q214 932 201.0 928.5Q188 925 163 913Q163 913 140.0 901.0Q117 889 75.0 853.0Q33 817 -1 779Q-1 779 -22.0 756.5Q-43 734 -73 676Q-73 676 -75.5 672.0Q-78 668 -81.5 658.5Q-85 649 -85 639Q-85 639 -85.0 637.0Q-85 635 -84.0 630.5Q-83 626 -78 626Q-78 626 -73.5 626.0Q-69 626 -61 630Q-61 630 -44.0 639.5Q-27 649 6.5 664.5Q40 680 77 692Q77 692 94.5 698.0Q112 704 149.0 714.0Q186 724 223 729Q223 729 246.5 731.0Q270 733 317 741Q317 741 325.5 742.0Q334 743 350.5 743.5Q367 744 384 745Q384 745 428.5 747.0Q473 749 535.0 724.0Q597 699 634 619"/>
</svg>
