<?xml version="1.0" encoding="UTF-8"?>
<svg xmlns="http://www.w3.org/2000/svg" width="443" height="1268" viewBox="0 0 443 1268" data-advance="443" data-ascent="750" data-descent="-518" data-vertical-extent="1268" data-units-per-em="1000" data-glyph-name="V" data-codepoint="86" fill="none" stroke="currentColor" stroke-width="50" stroke-linecap="round" stroke-linejoin="round">
  <path d="M-450 34Q-450 34 -438.5 21.0Q-427 8 -395.5 -5.0Q-364 -18 -330 -18Q-330 -18 -311.0 -18.0Q-292 -18 -258.5 -4.0Q-225 10 -194 30Q-194 30 -174.0 43.0Q-154 56 -122.5 90.5Q-91 125 -65.0 164.0Q-39 203 -16.5 245.0Q6 287 28 328Q28 328 33.0 337.0Q38 346 45.5 364.5Q53 383 64 401Q64 401 68.0 408.0Q72 415 81.0 429.0Q90 443 96 459Q96 459 102.0 474.5Q108 490 120.0 521.0Q132 552 144 584Q144 584 145.0 587.0Q146 590 154.0 612.5Q162 635 171.0 662.0Q180 689 187.5 714.5Q195 740 195 751Q195 751 195.0 753.5Q195 756 189 756H188Q188 756 185.0 754.5Q182 753 176.0 744.0Q170 735 165.0 723.5Q160 712 155.5 700.5Q151 689 148 683Q148 683 145.5 676.0Q143 669 138.5 654.5Q134 640 129 625Q129 625 124.0 607.5Q119 590 109.5 556.0Q100 522 94 486Q94 486 91.0 467.0Q88 448 85.0 410.0Q82 372 80 333Q80 333 79.5 326.5Q79 320 79.0 308.0Q79 296 79 284Q79 284 79.0 271.5Q79 259 80.5 234.5Q82 210 84 185Q84 185 86.5 159.5Q89 134 105.0 85.5Q121 37 162 2Q162 2 177.5 -11.5Q193 -25 238 -25Q238 -25 251.5 -25.0Q265 -25 292 -16Q292 -16 304.5 -11.5Q317 -7 339.5 13.5Q362 34 381.5 59.5Q401 85 416.5 112.5Q432 140 444 163"/>
</svg>
