<?xml version="1.0" encoding="UTF-8"?>
<svg xmlns="http://www.w3.org/2000/svg" width="835" height="1268" viewBox="0 0 835 1268" data-advance="835" data-ascent="750" data-descent="-518" data-vertical-extent="1268" data-units-per-em="1000" data-glyph-name="Q" data-codepoint="81" fill="none" stroke="currentColor" stroke-width="50" stroke-linecap="round" stroke-linejoin="round">
  <path d="M394 404Q394 404 393.5 404.0Q393 404 384.5 401.5Q376 399 364.5 396.5Q353 394 343.0 391.5Q333 389 329 388Q329 388 317.0 384.0Q305 380 282.5 372.0Q260 364 237 354Q237 354 221.5 347.0Q206 340 176.0 325.0Q146 310 117 292Q117 292 96.0 278.5Q75 265 32.5 225.5Q-10 186 -33 141Q-33 141 -36.5 134.5Q-40 128 -44.0 108.5Q-48 89 -48 74Q-48 74 -48.0 42.5Q-48 11 -7.5 -17.0Q33 -45 91 -45Q91 -45 101.5 -45.0Q112 -45 136.5 -39.5Q161 -34 181 -26Q181 -26 202.5 -17.5Q224 -9 267.5 21.5Q311 52 340 87Q340 87 347.5 96.0Q355 105 368.0 125.5Q381 146 394 166Q394 166 417.5 204.0Q441 242 465.5 317.0Q490 392 490 483Q490 483 490.0 514.5Q490 546 473.5 602.5Q457 659 424.0 702.0Q391 745 340.5 770.0Q290 795 221 795Q221 795 209.0 795.0Q197 795 173.0 793.0Q149 791 126 784Q126 784 106.5 778.0Q87 772 56.0 742.5Q25 713 25 668Q25 668 25.0 652.0Q25 636 41.5 616.0Q58 596 83.0 585.0Q108 574 136.5 570.0Q165 566 190 566Q190 566 214.0 566.0Q238 566 284.5 582.5Q331 599 376.5 621.5Q422 644 466.5 668.5Q511 693 555 710Q555 710 578.5 717.5Q602 725 647.5 731.0Q693 737 731.0 729.5Q769 722 796.0 697.0Q823 672 834 626"/>
</svg>
