<?xml version="1.0" encoding="UTF-8"?>
<svg xmlns="http://www.w3.org/2000/svg" width="657" height="1268" viewBox="0 0 657 1268" data-advance="657" data-ascent="750" data-descent="-518" data-vertical-extent="1268" data-units-per-em="1000" data-glyph-name="Z" data-codepoint="90" fill="none" stroke="currentColor" stroke-width="50" stroke-linecap="round" stroke-linejoin="round">
  <path d="M74 -185V-167Q74 -167 74.0 -162.5Q74 -158 74.0 -149.0Q74 -140 72 -132Q72 -132 70.0 -119.5Q68 -107 56.5 -76.5Q45 -46 30.0 -15.0Q15 16 -1.0 44.5Q-17 73 -31 94Q-31 94 -38.0 104.0Q-45 114 -62.0 133.5Q-79 153 -96 170Q-96 170 -109.0 182.0Q-122 194 -164.5 217.0Q-207 240 -242 240Q-242 240 -258.0 240.0Q-274 240 -274 210Q-274 210 -274.0 189.0Q-274 168 -250 133Q-250 133 -240.0 117.0Q-230 101 -197.0 68.0Q-164 35 -132 14Q-132 14 -111.5 1.0Q-91 -12 -35.5 -32.0Q20 -52 69 -52Q69 -52 83.5 -52.0Q98 -52 130.0 -45.0Q162 -38 192.0 -23.5Q222 -9 246.0 12.0Q270 33 283 62Q283 62 289.5 75.5Q296 89 299.5 120.0Q303 151 303 180Q303 180 303.0 189.0Q303 198 302.0 216.5Q301 235 297 252Q297 252 290.0 289.0Q283 326 239.5 401.0Q196 476 143 528Q143 528 133.5 537.5Q124 547 103.5 564.0Q83 581 62 598Q62 598 56.0 602.5Q50 607 39 607Q39 607 33.5 607.0Q28 607 28 599Q28 599 28.0 595.5Q28 592 35.5 590.0Q43 588 48 588Q48 588 68.5 588.0Q89 588 137.0 602.0Q185 616 231.0 639.5Q277 663 317.0 692.5Q357 722 384 753Q384 753 411.0 784.5Q438 816 474.0 890.5Q510 965 531 1043Q531 1043 536.5 1065.5Q542 1088 546.5 1131.5Q551 1175 556 1220Q556 1220 558.5 1238.5Q561 1257 561 1287Q561 1287 561.0 1297.0Q561 1307 557.0 1332.0Q553 1357 543 1376Q543 1376 539.0 1383.5Q535 1391 521.0 1397.0Q507 1403 491 1403Q491 1403 463.0 1403.0Q435 1403 373.0 1371.0Q311 1339 256 1288Q256 1288 253.0 1285.0Q250 1282 230.0 1259.5Q210 1237 190.5 1203.0Q171 1169 160.0 1124.5Q149 1080 160.0 1030.5Q171 981 211.5 927.5Q252 874 336 821Q336 821 352.5 807.5Q369 794 412.0 782.5Q455 771 499.5 755.0Q544 739 585.5 710.5Q627 682 657 621"/>
</svg>
