<?xml version="1.0" encoding="UTF-8"?>
<svg xmlns="http://www.w3.org/2000/svg" width="187" height="1268" viewBox="0 0 187 1268" data-advance="187" data-ascent="750" data-descent="-518" data-vertical-extent="1268" data-units-per-em="1000" data-glyph-name="colon" data-codepoint="58" fill="none" stroke="currentColor" stroke-width="50" stroke-linecap="round" stroke-linejoin="round">
  <path d="M57 510Q57 510 51.5 510.0Q46 510 43.0 519.5Q40 529 40 538Q40 538 40.0 542.0Q40 546 43.0 556.5Q46 567 57 567Q57 567 67.0 567.0Q77 567 77 546Q77 546 77.0 540.5Q77 535 74.0 522.5Q71 510 57 510M91 694Q91 694 85.5 694.0Q80 694 76.0 705.5Q72 717 72 726Q72 726 72.0 730.5Q72 735 75.5 744.0Q79 753 90 753Q90 753 95.5 753.0Q101 753 106.0 744.0Q111 735 111 726Q111 726 111.0 722.0Q111 718 106.5 706.0Q102 694 91 694"/>
</svg>
