<?xml version="1.0" encoding="UTF-8"?>
<svg xmlns="http://www.w3.org/2000/svg" width="324" height="1268" viewBox="0 0 324 1268" data-advance="324" data-ascent="750" data-descent="-518" data-vertical-extent="1268" data-units-per-em="1000" data-glyph-name="dollar" data-codepoint="36" fill="none" stroke="currentColor" stroke-width="50" stroke-linecap="round" stroke-linejoin="round">
  <path d="M198 276Q198 276 200.0 272.0Q202 268 202 255Q202 255 202.0 252.5Q202 250 201 246Q201 246 198.5 231.5Q196 217 184.0 195.5Q172 174 146 158Q146 158 137.5 153.0Q129 148 112.0 141.0Q95 134 75 134Q75 134 54.0 134.0Q33 134 14 164Q14 164 10.0 169.5Q6 175 1.0 191.0Q-4 207 -4 221Q-4 221 -4.0 234.5Q-4 248 5 267Q5 267 12.0 280.5Q19 294 43.5 315.5Q68 337 90 356Q90 356 103.5 367.5Q117 379 142.5 403.5Q168 428 191 456Q191 456 196.5 463.0Q202 470 209.5 484.5Q217 499 224 515Q224 515 232.5 533.5Q241 552 241 589Q241 589 241.0 607.0Q241 625 218.5 647.0Q196 669 161 669Q161 669 143.0 669.0Q125 669 95.5 647.0Q66 625 44.5 593.0Q23 561 10.0 524.0Q-3 487 -7 457M42 32Q42 32 50.5 59.0Q59 86 68.0 140.0Q77 194 88 249Q88 249 93.0 272.0Q98 295 107.0 340.5Q116 386 124 433Q124 433 125.5 445.0Q127 457 130.5 481.0Q134 505 138 528Q138 528 140.0 538.0Q142 548 145.0 568.0Q148 588 151 607Q151 607 154.0 626.0Q157 645 162.0 681.5Q167 718 168 755"/>
</svg>
