<?xml version="1.0" encoding="UTF-8"?>
<svg xmlns="http://www.w3.org/2000/svg" width="405" height="1268" viewBox="0 0 405 1268" data-advance="405" data-ascent="750" data-descent="-518" data-vertical-extent="1268" data-units-per-em="1000" data-glyph-name="f" data-codepoint="102" fill="none" stroke="currentColor" stroke-width="50" stroke-linecap="round" stroke-linejoin="round">
  <path d="M-12 632Q-12 632 1.0 600.5Q14 569 23.5 492.5Q33 416 33 348Q33 348 33.0 335.5Q33 323 31.0 279.5Q29 236 22.0 191.5Q15 147 0.5 110.0Q-14 73 -38 60Q-38 60 -41.5 58.0Q-45 56 -52 56Q-52 56 -58.0 56.0Q-64 56 -71.0 66.5Q-78 77 -81.5 92.5Q-85 108 -86.0 125.0Q-87 142 -87 154Q-87 154 -87.0 171.0Q-87 188 -83.5 231.0Q-80 274 -74.5 319.5Q-69 365 -61.5 409.5Q-54 454 -45 491L-25 577Q-25 577 -21.5 591.5Q-18 606 -10.0 642.5Q-2 679 20 753Q20 753 25.5 771.5Q31 790 45.0 837.0Q59 884 77.5 934.5Q96 985 119.5 1036.0Q143 1087 174 1132Q174 1132 185.5 1148.5Q197 1165 221.0 1187.5Q245 1210 272 1210Q272 1210 286.5 1210.0Q301 1210 310.5 1186.0Q320 1162 320 1133Q320 1133 320.0 1109.0Q320 1085 302.0 1030.0Q284 975 255.5 920.0Q227 865 192.5 815.0Q158 765 124 728Q124 728 119.0 722.5Q114 717 103.5 706.0Q93 695 86 689Q86 689 78.5 681.5Q71 674 45.5 654.0Q20 634 8 634Q8 634 2.5 634.0Q-3 634 -3 643Q-3 643 -3.0 646.5Q-3 650 10.0 661.0Q23 672 32 680Q32 680 52.5 697.0Q73 714 127.5 737.0Q182 760 241 760Q241 760 268.0 760.0Q295 760 335.0 736.5Q375 713 395 659Q395 659 396.0 655.5Q397 652 399.5 645.5Q402 639 405 631"/>
</svg>
