<?xml version="1.0" encoding="UTF-8"?>
<svg xmlns="http://www.w3.org/2000/svg" width="272" height="1268" viewBox="0 0 272 1268" data-advance="272" data-ascent="750" data-descent="-518" data-vertical-extent="1268" data-units-per-em="1000" data-glyph-name="j" data-codepoint="106" fill="none" stroke="currentColor" stroke-width="50" stroke-linecap="round" stroke-linejoin="round">
  <path d="M-5 321Q-5 321 -10.0 321.0Q-15 321 -19.0 329.0Q-23 337 -23 345Q-23 345 -23.0 349.0Q-23 353 -20.0 365.5Q-17 378 -6 378Q-6 378 -0.5 378.0Q5 378 9.5 368.0Q14 358 14 350Q14 350 14.0 345.5Q14 341 10.0 331.0Q6 321 -5 321M-4 632Q-4 632 4.0 613.5Q12 595 18 552Q18 552 18.5 549.5Q19 547 19.0 542.0Q19 537 21 532Q21 532 21.0 528.5Q21 525 28 525Q28 525 31.5 525.0Q35 525 37 533Q37 533 38.5 541.0Q40 549 40.0 565.5Q40 582 42 598Q42 598 43.0 608.5Q44 619 48.0 640.0Q52 661 57 683Q57 683 64.0 718.5Q71 754 87.5 823.5Q104 893 118 964Q118 964 123.0 990.0Q128 1016 141.0 1067.0Q154 1118 154 1172Q154 1172 154.0 1184.5Q154 1197 145.0 1219.5Q136 1242 106 1242Q106 1242 92.0 1242.0Q78 1242 53 1225Q53 1225 24.5 1206.0Q-4 1187 -33.0 1129.0Q-62 1071 -62 1002Q-62 1002 -62.0 971.5Q-62 941 -29.5 900.5Q3 860 49.5 828.0Q96 796 146.0 767.5Q196 739 231 703Q231 703 238.5 695.5Q246 688 255.0 670.0Q264 652 272 632"/>
</svg>
