<?xml version="1.0" encoding="UTF-8"?>
<svg xmlns="http://www.w3.org/2000/svg" width="325" height="1268" viewBox="0 0 325 1268" data-advance="325" data-ascent="750" data-descent="-518" data-vertical-extent="1268" data-units-per-em="1000" data-glyph-name="braceleft" data-codepoint="123" fill="none" stroke="currentColor" stroke-width="50" stroke-linecap="round" stroke-linejoin="round">
  <path d="M160 -92Q160 -92 125.0 -92.0Q90 -92 48.5 -57.5Q7 -23 7 50Q7 50 7.0 63.5Q7 77 13.0 102.0Q19 127 25 153Q25 153 26.5 160.0Q28 167 30.0 179.5Q32 192 35 206Q35 206 36.5 211.5Q38 217 41.0 227.5Q44 238 46 249Q46 249 47.0 254.5Q48 260 49.5 271.0Q51 282 53 293V301Q53 301 53.0 311.0Q53 321 49.0 337.0Q45 353 28 365Q28 365 24.5 367.5Q21 370 15.0 370.5Q9 371 1 373Q1 373 6.5 375.5Q12 378 21.5 389.5Q31 401 38 411Q38 411 54.5 435.0Q71 459 76.5 498.0Q82 537 82 594Q82 594 82.0 610.5Q82 627 84.0 660.0Q86 693 94.5 723.0Q103 753 119.5 780.0Q136 807 166 828Q166 828 182.5 840.0Q199 852 237.0 867.5Q275 883 315 894"/>
</svg>
