<?xml version="1.0" encoding="UTF-8"?>
<svg xmlns="http://www.w3.org/2000/svg" width="401" height="1268" viewBox="0 0 401 1268" data-advance="401" data-ascent="750" data-descent="-518" data-vertical-extent="1268" data-units-per-em="1000" data-glyph-name="r" data-codepoint="114" fill="none" stroke="currentColor" stroke-width="50" stroke-linecap="round" stroke-linejoin="round">
  <path d="M-2 633Q-2 633 2.0 622.5Q6 612 11.5 595.5Q17 579 17 556Q17 556 17.0 554.5Q17 553 15.5 539.0Q14 525 11.0 509.5Q8 494 3.5 481.0Q-1 468 -8 468Q-8 468 -14.5 468.0Q-21 468 -21 483Q-21 483 -21.0 485.5Q-21 488 -20 490Q-20 490 -17.0 501.5Q-14 513 -6.0 534.0Q2 555 25 566Q25 566 27.5 567.0Q30 568 35.0 570.0Q40 572 45 573Q45 573 47.5 574.0Q50 575 69.0 577.5Q88 580 90 587Q90 587 92.0 595.0Q94 603 95.5 619.5Q97 636 99 652Q99 652 101.0 670.5Q103 689 132.5 720.0Q162 751 197 759Q197 759 206.0 761.5Q215 764 240 764Q240 764 257.5 764.0Q275 764 308.0 749.5Q341 735 363 708Q363 708 370.5 698.0Q378 688 385.0 671.0Q392 654 401 631"/>
</svg>
