<?xml version="1.0" encoding="UTF-8"?>
<svg xmlns="http://www.w3.org/2000/svg" width="182" height="1268" viewBox="0 0 182 1268" data-advance="182" data-ascent="750" data-descent="-518" data-vertical-extent="1268" data-units-per-em="1000" data-glyph-name="semicolon" data-codepoint="59" fill="none" stroke="currentColor" stroke-width="50" stroke-linecap="round" stroke-linejoin="round">
  <path d="M54 523Q54 523 49.0 523.0Q44 523 40.0 530.0Q36 537 36 545Q36 545 36.0 559.0Q36 573 61 573Q61 573 65.5 573.0Q70 573 74.0 566.0Q78 559 78 551Q78 551 78.0 545.5Q78 540 71.5 531.5Q65 523 54 523M88 701Q88 701 105.0 714.0Q122 727 122 767Q122 767 122.0 776.5Q122 786 110.0 801.5Q98 817 79 823"/>
</svg>
