<?xml version="1.0" encoding="UTF-8"?>
<svg xmlns="http://www.w3.org/2000/svg" width="443" height="1268" viewBox="0 0 443 1268" data-advance="443" data-ascent="750" data-descent="-518" data-vertical-extent="1268" data-units-per-em="1000" data-glyph-name="v" data-codepoint="118" fill="none" stroke="currentColor" stroke-width="50" stroke-linecap="round" stroke-linejoin="round">
  <path d="M-17 532Q-17 532 -18.5 538.0Q-20 544 -20 555Q-20 555 -20.0 560.5Q-20 566 -17.5 577.0Q-15 588 -12 599Q-12 599 -3.5 634.5Q5 670 59 730Q59 730 61.0 732.5Q63 735 67.0 739.5Q71 744 79 744L80 743Q80 743 84.0 742.5Q88 742 93.0 732.5Q98 723 101 716Q101 716 110.0 693.5Q119 671 136.5 618.0Q154 565 154 516Q154 516 154.0 508.0Q154 500 151.0 482.5Q148 465 131 459Q131 459 124.0 459.0Q117 459 115.5 473.5Q114 488 114 498Q114 498 114.0 520.5Q114 543 135.5 592.0Q157 641 190 670Q190 670 203.5 681.5Q217 693 254.5 704.5Q292 716 327 716Q327 716 351.5 716.0Q376 716 401.0 697.0Q426 678 443 633"/>
</svg>
