<?xml version="1.0" encoding="UTF-8"?>
<svg xmlns="http://www.w3.org/2000/svg" width="439" height="1268" viewBox="0 0 439 1268" data-advance="439" data-ascent="750" data-descent="-518" data-vertical-extent="1268" data-units-per-em="1000" data-glyph-name="zero" data-codepoint="48" fill="none" stroke="currentColor" stroke-width="50" stroke-linecap="round" stroke-linejoin="round">
  <path d="M37 187Q37 187 24.0 206.5Q11 226 3.5 273.0Q-4 320 -4 367Q-4 367 -4.0 399.0Q-4 431 3 486Q3 486 5.5 504.5Q8 523 23.0 569.0Q38 615 63.0 655.5Q88 696 123.0 723.0Q158 750 203 750Q203 750 226.0 750.0Q249 750 278.0 724.5Q307 699 324.0 661.0Q341 623 347.5 580.0Q354 537 354 501Q354 501 354.0 478.0Q354 455 345.5 401.0Q337 347 318.0 296.0Q299 245 269.0 202.0Q239 159 196 135Q196 135 184.5 128.5Q173 122 143 122Q143 122 118.5 122.0Q94 122 72.5 156.5Q51 191 51 234Q51 234 51.0 256.0Q51 278 70.0 314.0Q89 350 140 350Q140 350 142.0 350.0Q144 350 146 349"/>
</svg>
