<?xml version="1.0" encoding="UTF-8"?>
<svg xmlns="http://www.w3.org/2000/svg" width="439" height="1268" viewBox="0 0 439 1268" fill="none" stroke="currentColor" stroke-width="50" stroke-linecap="round" stroke-linejoin="round">
  <path d="M146 349Q144 350 140 350Q89 350 70.0 314.0Q51 278 51 234Q51 191 72.5 156.5Q94 122 143 122Q173 122 196 135Q239 159 269.0 202.0Q299 245 318.0 296.0Q337 347 345.5 401.0Q354 455 354 501Q354 537 347.5 580.0Q341 623 324.0 661.0Q307 699 278.0 724.5Q249 750 203 750Q158 750 123.0 723.0Q88 696 63.0 655.5Q38 615 23.0 569.0Q8 523 3 486Q-4 431 -4 367Q-4 320 3.5 273.0Q11 226 37 187Q11 226 3.5 273.0Q-4 320 -4 367Q-4 431 3 486Q8 523 23.0 569.0Q38 615 63.0 655.5Q88 696 123.0 723.0Q158 750 203 750Q249 750 278.0 724.5Q307 699 324.0 661.0Q341 623 347.5 580.0Q354 537 354 501Q354 455 345.5 401.0Q337 347 318.0 296.0Q299 245 269.0 202.0Q239 159 196 135Q173 122 143 122Q94 122 72.5 156.5Q51 191 51 234Q51 278 70.0 314.0Q89 350 140 350Q144 350 146 349Z"/>
</svg>
