<?xml version="1.0" encoding="UTF-8"?>
<svg xmlns="http://www.w3.org/2000/svg" width="317" height="1268" viewBox="0 0 317 1268" fill="none" stroke="currentColor" stroke-width="50" stroke-linecap="round" stroke-linejoin="round">
  <path d="M6 353C14 351 22 349 29 346C66 331 85 255 85 219C85 198 81 177 81 156C81 151 83 147 88 146M254 736C232 727 210 719 186 719C138 719 78 745 39 771M88 146C91 146 95 147 97 150C103 157 105 205 106 216C109 245 111 274 115 303C127 402 144 501 157 601C163 640 167 680 168 720"/>
</svg>
