<?xml version="1.0" encoding="UTF-8"?>
<svg xmlns="http://www.w3.org/2000/svg" width="317" height="1268" viewBox="0 0 317 1268" data-advance="317" data-ascent="750" data-descent="-518" data-vertical-extent="1268" data-units-per-em="1000" data-glyph-name="one" data-codepoint="49" fill="none" stroke="currentColor" stroke-width="50" stroke-linecap="round" stroke-linejoin="round">
  <path d="M6 353Q22 349 29 346Q43 340 53.5 324.5Q64 309 71.0 290.0Q78 271 81.5 251.5Q85 232 85 219Q85 203 83.0 187.5Q81 172 81 156Q81 147 88 146Q81 147 81 156Q81 172 83.0 187.5Q85 203 85 219Q85 232 81.5 251.5Q78 271 71.0 290.0Q64 309 53.5 324.5Q43 340 29 346Q22 349 6 353ZM254 736Q237 729 220.5 724.0Q204 719 186 719Q150 719 109.0 735.0Q68 751 39 771Q68 751 109.0 735.0Q150 719 186 719Q204 719 220.5 724.0Q237 729 254 736ZM88 146Q94 146 97 150Q99 153 100.5 162.0Q102 171 103.0 181.5Q104 192 105.0 202.0Q106 212 106 216Q108 238 110.0 259.5Q112 281 115 303Q124 378 135.5 452.0Q147 526 157 601Q167 663 168 720Q167 663 157 601Q147 526 135.5 452.0Q124 378 115 303Q112 281 110.0 259.5Q108 238 106 216Q106 212 105.0 202.0Q104 192 103.0 181.5Q102 171 100.5 162.0Q99 153 97 150Q94 146 88 146Z"/>
</svg>
