<?xml version="1.0" encoding="UTF-8"?>
<svg xmlns="http://www.w3.org/2000/svg" width="453" height="1268" viewBox="0 0 453 1268" data-advance="453" data-ascent="750" data-descent="-518" data-vertical-extent="1268" data-units-per-em="1000" data-glyph-name="two" data-codepoint="50" fill="none" stroke="currentColor" stroke-width="50" stroke-linecap="round" stroke-linejoin="round">
  <path d="M456 690Q430 709 401.0 722.0Q372 735 339 735Q301 735 277.0 723.5Q253 712 232.5 698.5Q212 685 190.5 673.5Q169 662 136 662Q107 662 75.5 673.5Q44 685 27 709Q22 714 22 723Q22 739 37.5 744.5Q53 750 65 750Q94 750 126.5 739.5Q159 729 179 708Q209 676 228.0 626.5Q247 577 252 534Q254 514 255.0 494.5Q256 475 256 455Q256 398 244.0 335.5Q232 273 201 224Q193 211 184.0 199.5Q175 188 166 177Q125 129 63 129Q50 129 34.0 138.0Q18 147 10 157Q1 168 -3.5 182.5Q-8 197 -8 211Q-8 257 23.5 286.5Q55 316 100 316Q55 316 23.5 286.5Q-8 257 -8 211Q-8 197 -3.5 182.5Q1 168 10 157Q18 147 34.0 138.0Q50 129 63 129Q125 129 166 177Q175 188 184.0 199.5Q193 211 201 224Q232 273 244.0 335.5Q256 398 256 455Q256 475 255.0 494.5Q254 514 252 534Q247 577 228.0 626.5Q209 676 179 708Q159 729 126.5 739.5Q94 750 65 750Q53 750 37.5 744.5Q22 739 22 723Q22 714 27 709Q44 685 75.5 673.5Q107 662 136 662Q169 662 190.5 673.5Q212 685 232.5 698.5Q253 712 277.0 723.5Q301 735 339 735Q372 735 401.0 722.0Q430 709 456 690Z"/>
</svg>
