<?xml version="1.0" encoding="UTF-8"?>
<svg xmlns="http://www.w3.org/2000/svg" width="453" height="1268" viewBox="0 0 453 1268" fill="none" stroke="currentColor" stroke-width="50" stroke-linecap="round" stroke-linejoin="round">
  <path d="M456 690C422 715 383 735 339 735C238 735 223 662 136 662C98 662 50 677 27 709C23 713 22 717 22 723C22 744 49 750 65 750C103 750 152 736 179 708C219 666 246 591 252 534C255 508 256 481 256 455C256 379 242 289 201 224C190 207 178 192 166 177C137 143 107 129 63 129C46 129 20 144 10 157C-2 171 -8 193 -8 211C-8 272 41 316 100 316"/>
</svg>
