<?xml version="1.0" encoding="UTF-8"?>
<svg xmlns="http://www.w3.org/2000/svg" width="391" height="1268" viewBox="0 0 391 1268" fill="none" stroke="currentColor" stroke-width="50" stroke-linecap="round" stroke-linejoin="round">
  <path d="M77 564Q77 566 76.0 570.0Q75 574 74 576Q71 589 71 605Q71 607 70.5 609.5Q70 612 70 614Q70 637 77.0 661.5Q84 686 97.5 706.5Q111 727 131.0 740.0Q151 753 178 753Q220 753 250.0 719.0Q280 685 288 647Q292 623 292 591Q292 567 290.5 539.0Q289 511 284.0 483.5Q279 456 268.5 431.0Q258 406 240 388Q235 383 225.5 377.5Q216 372 208 372Q195 372 181.0 379.0Q167 386 157 394Q166 360 175.0 324.5Q184 289 184 254Q184 231 179.0 208.0Q174 185 162.5 167.0Q151 149 132.5 137.5Q114 126 87 126Q48 126 14.0 154.5Q-20 183 -20 224Q-20 243 -11.0 262.0Q-2 281 13.0 297.0Q28 313 46.0 324.5Q64 336 82 340Q64 336 46.0 324.5Q28 313 13.0 297.0Q-2 281 -11.0 262.0Q-20 243 -20 224Q-20 183 14.0 154.5Q48 126 87 126Q114 126 132.5 137.5Q151 149 162.5 167.0Q174 185 179.0 208.0Q184 231 184 254Q184 289 175.0 324.5Q166 360 157 394Q167 386 181.0 379.0Q195 372 208 372Q216 372 225.5 377.5Q235 383 240 388Q258 406 268.5 431.0Q279 456 284.0 483.5Q289 511 290.5 539.0Q292 567 292 591Q292 623 288 647Q280 685 250.0 719.0Q220 753 178 753Q151 753 131.0 740.0Q111 727 97.5 706.5Q84 686 77.0 661.5Q70 637 70 614Q70 612 70.5 609.5Q71 607 71 605Q71 589 74 576Q75 574 76.0 570.0Q77 566 77 564Z"/>
</svg>
