<?xml version="1.0" encoding="UTF-8"?>
<svg xmlns="http://www.w3.org/2000/svg" width="391" height="1268" viewBox="0 0 391 1268" data-advance="391" data-ascent="750" data-descent="-518" data-vertical-extent="1268" data-units-per-em="1000" data-glyph-name="three" data-codepoint="51" fill="none" stroke="currentColor" stroke-width="50" stroke-linecap="round" stroke-linejoin="round">
  <path d="M82 340Q82 340 73.0 338.0Q64 336 46.0 324.5Q28 313 13.0 297.0Q-2 281 -11.0 262.0Q-20 243 -20 224Q-20 224 -20.0 203.5Q-20 183 14.0 154.5Q48 126 87 126Q87 126 100.5 126.0Q114 126 132.5 137.5Q151 149 162.5 167.0Q174 185 179.0 208.0Q184 231 184 254Q184 254 184.0 271.5Q184 289 175.0 324.5Q166 360 157 394Q157 394 162.0 390.0Q167 386 181.0 379.0Q195 372 208 372Q208 372 212.0 372.0Q216 372 225.5 377.5Q235 383 240 388Q240 388 249.0 397.0Q258 406 268.5 431.0Q279 456 284.0 483.5Q289 511 290.5 539.0Q292 567 292 591Q292 591 292.0 607.0Q292 623 288 647Q288 647 284.0 666.0Q280 685 250.0 719.0Q220 753 178 753Q178 753 164.5 753.0Q151 753 131.0 740.0Q111 727 97.5 706.5Q84 686 77.0 661.5Q70 637 70 614Q70 614 70.0 613.0Q70 612 70.5 609.5Q71 607 71 605Q71 605 71.0 597.0Q71 589 74 576Q74 576 74.5 575.0Q75 574 76.0 570.0Q77 566 77 564"/>
</svg>
