<?xml version="1.0" encoding="UTF-8"?>
<svg xmlns="http://www.w3.org/2000/svg" width="391" height="1268" viewBox="0 0 391 1268" fill="none" stroke="currentColor" stroke-width="50" stroke-linecap="round" stroke-linejoin="round">
  <path d="M77 564C77 566 75 573 74 576C72 585 71 596 71 605C71 608 70 611 70 614C70 675 107 753 178 753C233 753 278 698 288 647C291 629 292 610 292 591C292 527 288 436 240 388C233 381 218 372 208 372C191 372 170 383 157 394C169 349 184 301 184 254C184 192 159 126 87 126C35 126 -20 170 -20 224C-20 275 34 329 82 340"/>
</svg>
