<?xml version="1.0" encoding="UTF-8"?>
<svg xmlns="http://www.w3.org/2000/svg" width="363" height="1268" viewBox="0 0 363 1268" data-advance="363" data-ascent="750" data-descent="-518" data-vertical-extent="1268" data-units-per-em="1000" data-glyph-name="four" data-codepoint="52" fill="none" stroke="currentColor" stroke-width="50" stroke-linecap="round" stroke-linejoin="round">
  <path d="M3 70Q3 70 20.5 95.5Q38 121 49.0 178.0Q60 235 60 296Q60 296 60.0 318.5Q60 341 53.5 385.0Q47 429 37 473Q37 473 35.0 481.5Q33 490 30.0 506.0Q27 522 21 538Q21 538 20.0 540.0Q19 542 16.0 548.5Q13 555 13 559Q13 559 13.0 561.0Q13 563 15 564Q15 564 15.5 564.5Q16 565 20 565Q20 565 21.0 565.0Q22 565 35.5 559.0Q49 553 54 551Q54 551 68.5 546.5Q83 542 114.5 537.5Q146 533 176 533Q176 533 182.0 533.0Q188 533 205.5 535.5Q223 538 241.0 542.5Q259 547 275.0 552.5Q291 558 301 564M190 433Q190 433 190.0 462.5Q190 492 199.5 562.0Q209 632 226 689L251 770"/>
</svg>
