<?xml version="1.0" encoding="UTF-8"?>
<svg xmlns="http://www.w3.org/2000/svg" width="363" height="1268" viewBox="0 0 363 1268" fill="none" stroke="currentColor" stroke-width="50" stroke-linecap="round" stroke-linejoin="round">
  <path d="M301 564Q291 558 275.0 552.5Q259 547 241.0 542.5Q223 538 205.5 535.5Q188 533 176 533Q146 533 114.5 537.5Q83 542 54 551Q49 553 35.5 559.0Q22 565 20 565Q16 565 15 564Q13 563 13 559Q13 555 16.0 548.5Q19 542 21 538Q27 522 30.0 506.0Q33 490 37 473Q47 429 53.5 385.0Q60 341 60 296Q60 235 49.0 178.0Q38 121 3 70Q38 121 49.0 178.0Q60 235 60 296Q60 341 53.5 385.0Q47 429 37 473Q33 490 30.0 506.0Q27 522 21 538Q19 542 16.0 548.5Q13 555 13 559Q13 563 15 564Q16 565 20 565Q22 565 35.5 559.0Q49 553 54 551Q83 542 114.5 537.5Q146 533 176 533Q188 533 205.5 535.5Q223 538 241.0 542.5Q259 547 275.0 552.5Q291 558 301 564ZM251 770 226 689Q209 632 199.5 562.0Q190 492 190 433Q190 387 195.5 342.0Q201 297 215 253Q201 297 195.5 342.0Q190 387 190 433Q190 492 199.5 562.0Q209 632 226 689"/>
</svg>
