<?xml version="1.0" encoding="UTF-8"?>
<svg xmlns="http://www.w3.org/2000/svg" width="363" height="1268" viewBox="0 0 363 1268" fill="none" stroke="currentColor" stroke-width="50" stroke-linecap="round" stroke-linejoin="round">
  <path d="M3 70C49 138 60 215 60 296C60 355 50 415 37 473C32 495 29 517 21 538C19 543 13 554 13 559C13 561 13 563 15 564C16 565 18 565 20 565C22 565 48 553 54 551C92 539 136 533 176 533C208 533 275 548 301 564M215 253C197 311 190 372 190 433C190 511 203 614 226 689L251 770"/>
</svg>
