<?xml version="1.0" encoding="UTF-8"?>
<svg xmlns="http://www.w3.org/2000/svg" width="290" height="1268" viewBox="0 0 290 1268" fill="none" stroke="currentColor" stroke-width="50" stroke-linecap="round" stroke-linejoin="round">
  <path d="M38 561Q37 563 36.5 585.5Q36 608 36 613Q36 634 42.0 659.0Q48 684 60.0 705.5Q72 727 91.0 741.0Q110 755 136 755Q167 755 187.0 734.0Q207 713 218.0 683.0Q229 653 233.5 620.0Q238 587 238 564Q238 538 232.0 501.5Q226 465 212.5 432.0Q199 399 176.0 375.5Q153 352 118 352Q99 354 87.5 360.0Q76 366 68.5 373.0Q61 380 56.5 386.0Q52 392 47 393Q43 393 41 388Q30 353 20.5 317.5Q11 282 0 247Q-4 236 -12.0 216.5Q-20 197 -20 186Q-20 176 -15 168L-12 166Q14 172 37.5 175.5Q61 179 87 179Q100 179 116.0 176.5Q132 174 147.5 168.0Q163 162 175.5 153.0Q188 144 194 131Q188 144 175.5 153.0Q163 162 147.5 168.0Q132 174 116.0 176.5Q100 179 87 179Q61 179 37.5 175.5Q14 172 -12 166L-15 168Q-20 176 -20 186Q-20 197 -12.0 216.5Q-4 236 0 247Q11 282 20.5 317.5Q30 353 41 388Q43 393 47 393Q52 392 56.5 386.0Q61 380 68.5 373.0Q76 366 87.5 360.0Q99 354 118 352Q153 352 176.0 375.5Q199 399 212.5 432.0Q226 465 232.0 501.5Q238 538 238 564Q238 587 233.5 620.0Q229 653 218.0 683.0Q207 713 187.0 734.0Q167 755 136 755Q110 755 91.0 741.0Q72 727 60.0 705.5Q48 684 42.0 659.0Q36 634 36 613Q36 608 36.5 585.5Q37 563 38 561Z"/>
</svg>
