<?xml version="1.0" encoding="UTF-8"?>
<svg xmlns="http://www.w3.org/2000/svg" width="290" height="1268" viewBox="0 0 290 1268" fill="none" stroke="currentColor" stroke-width="50" stroke-linecap="round" stroke-linejoin="round">
  <path d="M38 561C37 563 36 607 36 613C36 670 67 755 136 755C219 755 238 626 238 564C238 494 210 352 118 352C67 357 60 390 47 393C44 393 42 391 41 388C27 341 14 294 0 247C-5 232 -20 201 -20 186C-20 179 -18 173 -15 168L-12 166C22 174 52 179 87 179C121 179 179 165 194 131"/>
</svg>
