<?xml version="1.0" encoding="UTF-8"?>
<svg xmlns="http://www.w3.org/2000/svg" width="347" height="1268" viewBox="0 0 347 1268" data-advance="347" data-ascent="750" data-descent="-518" data-vertical-extent="1268" data-units-per-em="1000" data-glyph-name="six" data-codepoint="54" fill="none" stroke="currentColor" stroke-width="50" stroke-linecap="round" stroke-linejoin="round">
  <path d="M193 199Q193 199 193.5 198.5Q194 198 194.0 192.5Q194 187 194 185M194 185Q194 185 194.0 171.0Q194 157 177.0 142.0Q160 127 134 127Q134 127 124.5 127.0Q115 127 96 135Q96 135 81.5 141.5Q67 148 50.5 173.5Q34 199 26.0 230.0Q18 261 16.0 294.0Q14 327 14 354Q14 354 14.0 375.0Q14 396 19.0 446.0Q24 496 35.5 546.0Q47 596 66.5 641.0Q86 686 114 718Q114 718 125.5 731.5Q137 745 170 745Q170 745 181.5 745.0Q193 745 209.0 729.5Q225 714 235.5 692.0Q246 670 251.0 645.5Q256 621 256 603Q256 603 256.0 590.0Q256 577 250.5 546.5Q245 516 232.5 490.0Q220 464 198.5 447.0Q177 430 144 430Q144 430 141.5 430.0Q139 430 133.0 431.0Q127 432 122 433Q122 433 94.5 437.0Q67 441 35.5 488.5Q4 536 4 605"/>
</svg>
