<?xml version="1.0" encoding="UTF-8"?>
<svg xmlns="http://www.w3.org/2000/svg" width="347" height="1268" viewBox="0 0 347 1268" fill="none" stroke="currentColor" stroke-width="50" stroke-linecap="round" stroke-linejoin="round">
  <path d="M194 185Q194 187 194.0 192.5Q194 198 193 199Q194 198 194.0 192.5Q194 187 194 185ZM4 605Q4 536 35.5 488.5Q67 441 122 433Q127 432 133.0 431.0Q139 430 144 430Q177 430 198.5 447.0Q220 464 232.5 490.0Q245 516 250.5 546.5Q256 577 256 603Q256 621 251.0 645.5Q246 670 235.5 692.0Q225 714 209.0 729.5Q193 745 170 745Q137 745 114 718Q86 686 66.5 641.0Q47 596 35.5 546.0Q24 496 19.0 446.0Q14 396 14 354Q14 327 16.0 294.0Q18 261 26.0 230.0Q34 199 50.5 173.5Q67 148 96 135Q115 127 134 127Q160 127 177.0 142.0Q194 157 194 185Q194 157 177.0 142.0Q160 127 134 127Q115 127 96 135Q67 148 50.5 173.5Q34 199 26.0 230.0Q18 261 16.0 294.0Q14 327 14 354Q14 396 19.0 446.0Q24 496 35.5 546.0Q47 596 66.5 641.0Q86 686 114 718Q137 745 170 745Q193 745 209.0 729.5Q225 714 235.5 692.0Q246 670 251.0 645.5Q256 621 256 603Q256 577 250.5 546.5Q245 516 232.5 490.0Q220 464 198.5 447.0Q177 430 144 430Q139 430 133.0 431.0Q127 432 122 433Q67 441 35.5 488.5Q4 536 4 605Z"/>
</svg>
