<?xml version="1.0" encoding="UTF-8"?>
<svg xmlns="http://www.w3.org/2000/svg" width="409" height="1268" viewBox="0 0 409 1268" fill="none" stroke="currentColor" stroke-width="50" stroke-linecap="round" stroke-linejoin="round">
  <path d="M299 765C275 764 256 740 245 721C235 704 227 687 220 668C188 581 177 455 177 362C177 292 186 160 235 107C244 97 258 89 271 89C283 89 287 90 287 103C287 113 279 126 272 134C237 178 159 187 106 187C54 187 -21 182 -56 137M319 397C269 427 218 454 158 454C137 454 117 446 100 434"/>
</svg>
