<?xml version="1.0" encoding="UTF-8"?>
<svg xmlns="http://www.w3.org/2000/svg" width="301" height="1268" viewBox="0 0 301 1268" fill="none" stroke="currentColor" stroke-width="50" stroke-linecap="round" stroke-linejoin="round">
  <path d="M113 310 100 386 87 443 70 505C61.33000183105469 534.3300018310547 53.660003662109375 564.6600036621094 46.99000549316406 595.9900054931641C42.99000549316406 611.9900054931641 40.99000549316406 628.3200073242188 40.99000549316406 644.9900054931641C40.99000549316406 652.9900054931641 41.32000732421875 660.6600036621094 41.99000549316406 667.9900054931641C46.660003662109375 691.9900054931641 56.99000549316406 712.6600036621094 72.99000549316406 729.9900054931641C84.32000732421875 743.9900054931641 99.32000732421875 752.9900054931641 117.99000549316406 756.9900054931641C125.32000732421875 758.9900054931641 133.65000915527344 759.9900054931641 142.98001098632812 759.9900054931641C154.98001098632812 759.9900054931641 166.98001098632812 757.9900054931641 178.98001098632812 753.9900054931641C197.65000915527344 746.6600036621094 212.98001098632812 734.6600036621094 224.98001098632812 717.9900054931641C234.3100128173828 703.9900054931641 239.3100128173828 687.3200073242188 239.98001098632812 667.9900054931641C240.65000915527344 665.3200073242188 240.98001098632812 661.9900054931641 240.98001098632812 657.9900054931641C240.98001098632812 639.9900054931641 238.3100128173828 621.9900054931641 232.98001098632812 603.9900054931641C226.98001098632812 585.9900054931641 220.3100128173828 569.6600036621094 212.98001098632812 554.9900054931641C202.3100128173828 533.6600036621094 189.6400146484375 515.3300018310547 174.9700164794922 500.0L83.97001647949219 418.0L39.97001647949219 378.0C28.6400146484375 369.3300018310547 17.970016479492188 359.6600036621094 7.9700164794921875 348.99000549316406C-6.0299835205078125 334.99000549316406 -18.029983520507812 319.6600036621094 -28.029983520507812 302.99000549316406C-36.699981689453125 288.99000549316406 -42.36997985839844 273.6600036621094 -45.03997802734375 256.99000549316406C-46.36997985839844 248.99000549316406 -47.03997802734375 240.32000732421875 -47.03997802734375 230.99000549316406C-47.03997802734375 224.32000732421875 -46.70997619628906 217.32000732421875 -46.03997802734375 209.99000549316406C-42.70997619628906 194.66000366210938 -38.03997802734375 180.66000366210938 -32.03997802734375 167.99000549316406C-24.03997802734375 152.66000366210938 -12.03997802734375 141.3300018310547 3.96002197265625 134.0C16.630020141601562 128.0 30.96002197265625 125.0 46.96002197265625 125.0H51.96002197265625C69.29002380371094 125.66999816894531 84.29002380371094 131.0 96.96002197265625 141.0C104.96002197265625 147.6699981689453 110.63002014160156 156.0 113.96002197265625 166.0C118.63002014160156 176.0 121.30001831054688 186.6699981689453 121.97001647949219 198.0L117.97001647949219 257.0V261.0C117.97001647949219 278.3300018310547 116.30001831054688 294.6600036621094 112.97001647949219 309.99000549316406Z"/>
</svg>
