<?xml version="1.0" encoding="UTF-8"?>
<svg xmlns="http://www.w3.org/2000/svg" width="301" height="1268" viewBox="0 0 301 1268" data-advance="301" data-ascent="750" data-descent="-518" data-vertical-extent="1268" data-units-per-em="1000" data-glyph-name="eight" data-codepoint="56" fill="none" stroke="currentColor" stroke-width="50" stroke-linecap="round" stroke-linejoin="round">
  <path d="M113 310 100 386 87 443 70 505Q57 549 47 596Q41 620 41 645Q41 657 42 668Q49 704 73 730Q90 751 118 757Q129 760 143 760Q161 760 179 754Q207 743 225 718Q239 697 240 668Q241 664 241 658Q241 631 233 604Q224 577 213 555Q197 523 175 500L84 418L40 378Q23 365 8 349Q-13 328 -28 303Q-41 282 -45 257Q-47 245 -47 231Q-47 221 -46 210Q-41 187 -32 168Q-20 145 4 134Q23 125 47 125Q50 125 52 125Q78 126 97 141Q109 151 114 166Q121 181 122 198L118 257Q118 260 118 261Q118 287 113 310Q118 287 118 261Q118 260 118 257L122 198Q121 181 114 166Q109 151 97 141Q78 126 52 125Q50 125 47 125Q23 125 4 134Q-20 145 -32 168Q-41 187 -46 210Q-47 221 -47 231Q-47 245 -45 257Q-41 282 -28 303Q-13 328 8 349Q23 365 40 378L84 418L175 500Q197 523 213 555Q224 577 233 604Q241 631 241 658Q241 664 240 668Q239 697 225 718Q207 743 179 754Q161 760 143 760Q129 760 118 757Q90 751 73 730Q49 704 42 668Q41 657 41 645Q41 620 47 596Q57 549 70 505L87 443L100 386"/>
</svg>
