<?xml version="1.0" encoding="UTF-8"?>
<svg xmlns="http://www.w3.org/2000/svg" width="373" height="1268" viewBox="0 0 373 1268" data-advance="373" data-ascent="750" data-descent="-518" data-vertical-extent="1268" data-units-per-em="1000" data-glyph-name="nine" data-codepoint="57" fill="none" stroke="currentColor" stroke-width="50" stroke-linecap="round" stroke-linejoin="round">
  <path d="M195 133Q197 156 199.5 178.5Q202 201 202 224Q202 244 193.5 289.5Q185 335 169.0 383.0Q153 431 130.0 469.5Q107 508 78 514Q27 525 0.0 489.5Q-27 454 -35.5 402.0Q-44 350 -37.0 295.0Q-30 240 -12 212Q6 183 25.5 162.0Q45 141 84 141Q108 141 124.5 155.5Q141 170 152 190Q141 170 124.5 155.5Q108 141 84 141Q45 141 25.5 162.0Q6 183 -12 212Q-30 240 -37.0 295.0Q-44 350 -35.5 402.0Q-27 454 0.0 489.5Q27 525 78 514Q107 508 130.0 469.5Q153 431 169.0 383.0Q185 335 193.5 289.5Q202 244 202 224Q202 201 199.5 178.5Q197 156 195 133ZM329 764Q301 759 283.5 726.0Q266 693 255.0 652.0Q244 611 238.5 571.0Q233 531 230 512Q208 374 202 227Q208 374 230 512Q233 531 238.5 571.0Q244 611 255.0 652.0Q266 693 283.5 726.0Q301 759 329 764Z"/>
</svg>
