<?xml version="1.0" encoding="UTF-8"?>
<svg xmlns="http://www.w3.org/2000/svg" width="517" height="1268" viewBox="0 0 517 1268" fill="none" stroke="currentColor" stroke-width="50" stroke-linecap="round" stroke-linejoin="round">
  <path d="M369 470V481C369 600 289 735 158 735C77 735 17 659 17 582C17 543 28 503 56 475C82 448 109 423 135 396C155 376 172 355 187 332C203 305 223 269 223 237C223 227 221 219 218 209C206 162 180 126 127 126C63 126 30 173 30 234C30 318 88 424 144 484C171 513 318 731 373 750C416 765 437 750 472 712C483 700 505 667 507 646"/>
</svg>
