<?xml version="1.0" encoding="UTF-8"?>
<svg xmlns="http://www.w3.org/2000/svg" width="517" height="1268" viewBox="0 0 517 1268" data-advance="517" data-ascent="750" data-descent="-518" data-vertical-extent="1268" data-units-per-em="1000" data-glyph-name="ampersand" data-codepoint="38" fill="none" stroke="currentColor" stroke-width="50" stroke-linecap="round" stroke-linejoin="round">
  <path d="M369 470V481Q369 526 354.5 571.0Q340 616 312.5 652.5Q285 689 246.0 712.0Q207 735 158 735Q128 735 102.0 722.0Q76 709 57.0 687.5Q38 666 27.5 638.5Q17 611 17 582Q17 553 26.0 524.5Q35 496 56 475Q76 455 95.5 435.5Q115 416 135 396Q165 366 187 332Q199 312 211.0 286.5Q223 261 223 237Q223 226 218 209Q209 174 188.0 150.0Q167 126 127 126Q79 126 54.5 157.0Q30 188 30 234Q30 265 40.0 300.0Q50 335 66.0 368.0Q82 401 102.5 431.0Q123 461 144 484Q154 495 183.5 535.0Q213 575 248.0 620.5Q283 666 317.5 704.5Q352 743 373 750Q405 761 425.5 751.0Q446 741 472 712Q480 703 492.5 682.5Q505 662 507 646Q505 662 492.5 682.5Q480 703 472 712Q446 741 425.5 751.0Q405 761 373 750Q352 743 317.5 704.5Q283 666 248.0 620.5Q213 575 183.5 535.0Q154 495 144 484Q123 461 102.5 431.0Q82 401 66.0 368.0Q50 335 40.0 300.0Q30 265 30 234Q30 188 54.5 157.0Q79 126 127 126Q167 126 188.0 150.0Q209 174 218 209Q223 226 223 237Q223 261 211.0 286.5Q199 312 187 332Q165 366 135 396Q115 416 95.5 435.5Q76 455 56 475Q35 496 26.0 524.5Q17 553 17 582Q17 611 27.5 638.5Q38 666 57.0 687.5Q76 709 102.0 722.0Q128 735 158 735Q207 735 246.0 712.0Q285 689 312.5 652.5Q340 616 354.5 571.0Q369 526 369 481"/>
</svg>
