<?xml version="1.0" encoding="UTF-8"?>
<svg xmlns="http://www.w3.org/2000/svg" width="589" height="1268" viewBox="0 0 589 1268" fill="none" stroke="currentColor" stroke-width="50" stroke-linecap="round" stroke-linejoin="round">
  <path d="M228 512Q215 482 196.0 475.0Q177 468 159.0 480.0Q141 492 133 520Q127 545 131.0 573.0Q135 601 147 620Q171 652 203.0 660.0Q235 668 253 642Q272 610 274.0 565.0Q276 520 270 469Q278 540 294.5 582.5Q311 625 347 652Q450 712 509 638Q523 617 526.5 586.5Q530 556 523 530Q502 454 461.5 407.5Q421 361 343 339Q180 297 77 381Q26 433 11.5 497.0Q-3 561 11 609Q48 713 145 760Q217 792 298 786Q217 792 145 760Q48 713 11 609Q-3 561 11.5 497.0Q26 433 77 381Q180 297 343 339Q421 361 461.5 407.5Q502 454 523 530Q530 556 526.5 586.5Q523 617 509 638Q450 712 347 652Q311 625 294.5 582.5Q278 540 270 469Q276 520 274.0 565.0Q272 610 253 642Q235 668 203.0 660.0Q171 652 147 620Q135 601 131.0 573.0Q127 545 133 520Q141 492 159.0 480.0Q177 468 196.0 475.0Q215 482 228 512Z"/>
</svg>
