<?xml version="1.0" encoding="UTF-8"?>
<svg xmlns="http://www.w3.org/2000/svg" width="589" height="1268" viewBox="0 0 589 1268" fill="none" stroke="currentColor" stroke-width="50" stroke-linecap="round" stroke-linejoin="round">
  <path d="M228 512C202.35000610351562 452.8000030517578 149.0500030517578 463.8300018310547 133.0 519.9900054931641C125.0 553.3200073242188 131.0 594.6500091552734 147.0 619.9800109863281C179.0 662.6500091552734 229.0 676.6500091552734 253.0 641.9800109863281C278.3300018310547 599.3100128173828 278.0 536.9800109863281 270.0 468.9800109863281C280.6699981689453 563.6500091552734 299.0 615.9800109863281 347.0 651.9800109863281C415.6699981689453 691.9800109863281 469.6699981689453 687.3100128173828 509.0 637.9800109863281C527.6699981689453 609.9800109863281 532.3399963378906 564.6500091552734 523.0099945068359 529.9800109863281C495.00999450683594 428.65000915527344 447.00999450683594 368.32000732421875 343.00999450683594 338.99000549316406C234.33999633789062 310.99000549316406 145.6699981689453 324.99000549316406 77.0 380.99000549316406C43.0 415.6600036621094 21.169998168945312 454.3300018310547 11.5 497.0C1.8300018310546875 539.6699981689453 1.660003662109375 577.0 10.990005493164062 609.0C35.660003662109375 678.3300018310547 80.33000183105469 728.6600036621094 145.0 759.9900054931641C193.0 781.3200073242188 244.0 789.9900054931641 298.0 785.9900054931641"/>
</svg>
