<?xml version="1.0" encoding="UTF-8"?>
<svg xmlns="http://www.w3.org/2000/svg" width="551" height="1268" viewBox="0 0 551 1268" data-advance="551" data-ascent="750" data-descent="-518" data-vertical-extent="1268" data-units-per-em="1000" data-glyph-name="b" data-codepoint="98" fill="none" stroke="currentColor" stroke-width="50" stroke-linecap="round" stroke-linejoin="round">
  <path d="M-1 631Q-1 631 23.0 576.0Q47 521 47 397Q47 397 47.0 371.5Q47 346 44 294Q44 294 43.5 284.0Q43 274 36.5 234.0Q30 194 17.5 154.0Q5 114 -14.0 84.5Q-33 55 -60 55Q-60 55 -69.5 55.0Q-79 55 -89.5 71.5Q-100 88 -105.0 110.5Q-110 133 -111.0 156.0Q-112 179 -112 192Q-112 192 -112.0 226.5Q-112 261 -101.0 330.0Q-90 399 -71 465Q-71 465 -65.0 486.5Q-59 508 -37.0 561.5Q-15 615 17.0 662.5Q49 710 91.5 742.5Q134 775 187 775Q187 775 215.0 775.0Q243 775 268.5 738.5Q294 702 294 651Q294 651 294.0 641.0Q294 631 290.5 608.0Q287 585 279.5 563.0Q272 541 260.0 522.5Q248 504 230 493Q230 493 223.5 488.5Q217 484 205 484Q205 484 196.5 484.0Q188 484 188 500Q188 500 188.0 513.0Q188 526 206.0 559.5Q224 593 250.5 624.5Q277 656 307.0 681.5Q337 707 361 717Q361 717 376.0 723.5Q391 730 427 730Q427 730 452.5 730.0Q478 730 506.5 696.5Q535 663 551 617"/>
</svg>
