<?xml version="1.0" encoding="UTF-8"?>
<svg xmlns="http://www.w3.org/2000/svg" width="551" height="1268" viewBox="0 0 551 1268" fill="none" stroke="currentColor" stroke-width="50" stroke-linecap="round" stroke-linejoin="round">
  <path d="M-1 631C31 558 47 478 47 397C47 363 46 329 44 294C40 240 11 55 -60 55C-111 55 -112 158 -112 192C-112 283 -96 378 -71 465C-39 579 45 775 187 775C261 775 294 719 294 651C294 599 277 522 230 493C223 488 214 484 205 484C196 484 188 491 188 500C188 570 298 690 361 717C382 726 405 730 427 730C495 730 530 678 551 617"/>
</svg>
