<?xml version="1.0" encoding="UTF-8"?>
<svg xmlns="http://www.w3.org/2000/svg" width="343" height="1268" viewBox="0 0 343 1268" data-advance="343" data-ascent="750" data-descent="-518" data-vertical-extent="1268" data-units-per-em="1000" data-glyph-name="c" data-codepoint="99" fill="none" stroke="currentColor" stroke-width="50" stroke-linecap="round" stroke-linejoin="round">
  <path d="M343 625Q321 687 287.0 724.0Q253 761 183 761Q158 761 131.0 756.0Q104 751 81 740Q42 720 19.0 679.5Q-4 639 -4 596Q-4 570 12.0 544.0Q28 518 57 518Q90 518 103.5 539.5Q117 561 125 588Q117 561 103.5 539.5Q90 518 57 518Q28 518 12.0 544.0Q-4 570 -4 596Q-4 639 19.0 679.5Q42 720 81 740Q104 751 131.0 756.0Q158 761 183 761Q253 761 287.0 724.0Q321 687 343 625Z"/>
</svg>
