<?xml version="1.0" encoding="UTF-8"?>
<svg xmlns="http://www.w3.org/2000/svg" width="343" height="1268" viewBox="0 0 343 1268" data-advance="343" data-ascent="750" data-descent="-518" data-vertical-extent="1268" data-units-per-em="1000" data-glyph-name="c" data-codepoint="99" fill="none" stroke="currentColor" stroke-width="50" stroke-linecap="round" stroke-linejoin="round">
  <path d="M125 588Q125 588 121.0 574.5Q117 561 103.5 539.5Q90 518 57 518Q57 518 42.5 518.0Q28 518 12.0 544.0Q-4 570 -4 596Q-4 596 -4.0 617.5Q-4 639 19.0 679.5Q42 720 81 740Q81 740 92.5 745.5Q104 751 131.0 756.0Q158 761 183 761Q183 761 218.0 761.0Q253 761 287.0 724.0Q321 687 343 625"/>
</svg>
