<?xml version="1.0" encoding="UTF-8"?>
<svg xmlns="http://www.w3.org/2000/svg" width="595" height="1268" viewBox="0 0 595 1268" fill="none" stroke="currentColor" stroke-width="50" stroke-linecap="round" stroke-linejoin="round">
  <path d="M359 87Q370 135 379.5 195.5Q389 256 389 306Q389 348 383.0 399.5Q377 451 364.0 502.0Q351 553 332.0 600.0Q313 647 287 682Q244 739 177 739Q151 739 123.5 729.5Q96 720 76 703Q46 676 25.5 634.5Q5 593 -9.5 547.0Q-24 501 -33.0 454.0Q-42 407 -48 369L-71 238Q-81 181 -98.0 125.5Q-115 70 -144 19Q-171 -29 -209.0 -54.0Q-247 -79 -303 -79Q-335 -79 -371 -68Q-335 -79 -303 -79Q-247 -79 -209.0 -54.0Q-171 -29 -144 19Q-115 70 -98.0 125.5Q-81 181 -71 238L-48 369Q-42 407 -33.0 454.0Q-24 501 -9.5 547.0Q5 593 25.5 634.5Q46 676 76 703Q96 720 123.5 729.5Q151 739 177 739Q244 739 287 682Q313 647 332.0 600.0Q351 553 364.0 502.0Q377 451 383.0 399.5Q389 348 389 306Q389 256 379.5 195.5Q370 135 359 87ZM595 628Q571 695 531.5 738.0Q492 781 450.0 810.5Q408 840 369.5 862.0Q331 884 308 909Q282 938 282.0 978.5Q282 1019 282 1058Q282 1125 304 1194Q330 1274 374.0 1328.0Q418 1382 491 1424Q507 1433 530.0 1441.0Q553 1449 571 1449Q600 1449 612.5 1432.0Q625 1415 625 1388Q625 1349 617.5 1308.5Q610 1268 602 1230Q595 1199 588.5 1168.5Q582 1138 574 1107Q559 1044 538.0 977.5Q517 911 501 848Q493 817 491.0 790.0Q489 763 481 731Q474 706 467.5 681.5Q461 657 456 631Q450 603 444.0 575.5Q438 548 432 521Q420 467 407.5 415.0Q395 363 388 309Q395 363 407.5 415.0Q420 467 432 521Q438 548 444.0 575.5Q450 603 456 631Q461 657 467.5 681.5Q474 706 481 731Q489 763 491.0 790.0Q493 817 501 848Q517 911 538.0 977.5Q559 1044 574 1107Q582 1138 588.5 1168.5Q595 1199 602 1230Q610 1268 617.5 1308.5Q625 1349 625 1388Q625 1415 612.5 1432.0Q600 1449 571 1449Q553 1449 530.0 1441.0Q507 1433 491 1424Q418 1382 374.0 1328.0Q330 1274 304 1194Q282 1125 282 1058Q282 1019 282.0 978.5Q282 938 308 909Q331 884 369.5 862.0Q408 840 450.0 810.5Q492 781 531.5 738.0Q571 695 595 628Z"/>
</svg>
