<?xml version="1.0" encoding="UTF-8"?>
<svg xmlns="http://www.w3.org/2000/svg" width="807" height="1268" viewBox="0 0 807 1268" data-advance="807" data-ascent="750" data-descent="-518" data-vertical-extent="1268" data-units-per-em="1000" data-glyph-name="U" data-codepoint="85" fill="none" stroke="currentColor" stroke-width="50" stroke-linecap="round" stroke-linejoin="round">
  <path d="M-215 -61Q-215 -61 -203.0 -56.5Q-191 -52 -171 -35Q-171 -35 -156.5 -22.0Q-142 -9 -122.0 35.0Q-102 79 -88.5 129.0Q-75 179 -67.0 228.0Q-59 277 -53 313Q-53 313 -49.0 340.0Q-45 367 -35.5 419.0Q-26 471 -16 523Q-16 523 -12.0 545.5Q-8 568 16.0 623.0Q40 678 72 710Q72 710 80.5 718.5Q89 727 115.0 737.0Q141 747 164 747Q164 747 175.5 747.0Q187 747 205 740Q205 740 216.5 735.5Q228 731 245.5 711.5Q263 692 275.0 667.0Q287 642 294.0 615.5Q301 589 305 567Q305 567 307.0 556.5Q309 546 310.5 524.5Q312 503 313 481Q313 481 314.0 460.5Q315 440 317.5 399.5Q320 359 320 317Q320 317 320.0 276.0Q320 235 308 151Q308 151 305.5 133.5Q303 116 297.0 81.0Q291 46 289 11M534 714Q534 714 529.5 709.0Q525 704 512.0 686.0Q499 668 485.5 648.5Q472 629 460.0 610.5Q448 592 441 580Q441 580 430.0 560.0Q419 540 400 491Q400 491 395.5 479.5Q391 468 382.0 445.0Q373 422 365 399L317 230M706 764H720"/>
</svg>
