<?xml version="1.0" encoding="UTF-8"?>
<svg xmlns="http://www.w3.org/2000/svg" width="569" height="1268" viewBox="0 0 569 1268" fill="none" stroke="currentColor" stroke-width="50" stroke-linecap="round" stroke-linejoin="round">
  <path d="M569 631Q551 668 522.0 691.0Q493 714 457.0 727.0Q421 740 379.0 745.0Q337 750 292 750Q234 750 179.0 732.5Q124 715 79.0 682.0Q34 649 3.0 601.5Q-28 554 -38 494Q-39 489 -39 479Q-39 441 -16.0 406.0Q7 371 45 359Q61 355 83 355Q118 355 151 370Q173 380 200.5 404.0Q228 428 228 455Q228 477 204 477Q182 477 161.0 462.0Q140 447 121.0 426.5Q102 406 86.5 383.5Q71 361 60 346Q33 308 15.5 255.5Q-2 203 -2 156Q-2 115 23 86Q33 75 52.5 62.0Q72 49 87 49Q126 49 157.5 65.5Q189 82 213 111Q234 137 250.0 161.5Q266 186 280 217Q283 224 287.5 235.5Q292 247 292 254Q292 273 271 273Q260 273 251.0 265.0Q242 257 236 249Q220 229 207.0 201.0Q194 173 185.0 142.5Q176 112 171.5 81.5Q167 51 167 26V-37V26Q167 51 171.5 81.5Q176 112 185.0 142.5Q194 173 207.0 201.0Q220 229 236 249Q242 257 251.0 265.0Q260 273 271 273Q292 273 292 254Q292 247 287.5 235.5Q283 224 280 217Q266 186 250.0 161.5Q234 137 213 111Q189 82 157.5 65.5Q126 49 87 49Q72 49 52.5 62.0Q33 75 23 86Q-2 115 -2 156Q-2 203 15.5 255.5Q33 308 60 346Q71 361 86.5 383.5Q102 406 121.0 426.5Q140 447 161.0 462.0Q182 477 204 477Q228 477 228 455Q228 428 200.5 404.0Q173 380 151 370Q118 355 83 355Q61 355 45 359Q7 371 -16.0 406.0Q-39 441 -39 479Q-39 489 -38 494Q-28 554 3.0 601.5Q34 649 79.0 682.0Q124 715 179.0 732.5Q234 750 292 750Q337 750 379.0 745.0Q421 740 457.0 727.0Q493 714 522.0 691.0Q551 668 569 631Z"/>
</svg>
