<?xml version="1.0" encoding="UTF-8"?>
<svg xmlns="http://www.w3.org/2000/svg" width="835" height="1268" viewBox="0 0 835 1268" data-advance="835" data-ascent="750" data-descent="-518" data-vertical-extent="1268" data-units-per-em="1000" data-glyph-name="Q" data-codepoint="81" fill="none" stroke="currentColor" stroke-width="50" stroke-linecap="round" stroke-linejoin="round">
  <path d="M834 626Q823 672 796.0 697.0Q769 722 731.0 729.5Q693 737 647.5 731.0Q602 725 555 710Q511 693 466.5 668.5Q422 644 376.5 621.5Q331 599 284.5 582.5Q238 566 190 566Q165 566 136.5 570.0Q108 574 83.0 585.0Q58 596 41.5 616.0Q25 636 25 668Q25 713 56.0 742.5Q87 772 126 784Q149 791 173.0 793.0Q197 795 221 795Q290 795 340.5 770.0Q391 745 424.0 702.0Q457 659 473.5 602.5Q490 546 490 483Q490 392 465.5 317.0Q441 242 394 166Q381 146 368.0 125.5Q355 105 340 87Q311 52 267.5 21.5Q224 -9 181 -26Q161 -34 136.5 -39.5Q112 -45 91 -45Q33 -45 -7.5 -17.0Q-48 11 -48 74Q-48 89 -44.0 108.5Q-40 128 -33 141Q-10 186 32.5 225.5Q75 265 117 292Q146 310 176.0 325.0Q206 340 237 354Q260 364 282.5 372.0Q305 380 329 388Q333 389 343.0 391.5Q353 394 364.5 396.5Q376 399 384.5 401.5Q393 404 394 404Q393 404 384.5 401.5Q376 399 364.5 396.5Q353 394 343.0 391.5Q333 389 329 388Q305 380 282.5 372.0Q260 364 237 354Q206 340 176.0 325.0Q146 310 117 292Q75 265 32.5 225.5Q-10 186 -33 141Q-40 128 -44.0 108.5Q-48 89 -48 74Q-48 11 -7.5 -17.0Q33 -45 91 -45Q112 -45 136.5 -39.5Q161 -34 181 -26Q224 -9 267.5 21.5Q311 52 340 87Q355 105 368.0 125.5Q381 146 394 166Q441 242 465.5 317.0Q490 392 490 483Q490 546 473.5 602.5Q457 659 424.0 702.0Q391 745 340.5 770.0Q290 795 221 795Q197 795 173.0 793.0Q149 791 126 784Q87 772 56.0 742.5Q25 713 25 668Q25 636 41.5 616.0Q58 596 83.0 585.0Q108 574 136.5 570.0Q165 566 190 566Q238 566 284.5 582.5Q331 599 376.5 621.5Q422 644 466.5 668.5Q511 693 555 710Q602 725 647.5 731.0Q693 737 731.0 729.5Q769 722 796.0 697.0Q823 672 834 626Z"/>
</svg>
