<?xml version="1.0" encoding="UTF-8"?>
<svg xmlns="http://www.w3.org/2000/svg" width="484" height="1268" viewBox="0 0 484 1268" data-advance="484" data-ascent="750" data-descent="-518" data-vertical-extent="1268" data-units-per-em="1000" data-glyph-name="F" data-codepoint="70" fill="none" stroke="currentColor" stroke-width="50" stroke-linecap="round" stroke-linejoin="round">
  <path d="M507 446Q465 468 408.5 483.0Q352 498 291.5 508.0Q231 518 171.5 522.5Q112 527 64 527Q40 527 8.5 526.5Q-23 526 -55.5 523.0Q-88 520 -117.5 513.0Q-147 506 -168 494Q-147 506 -117.5 513.0Q-88 520 -55.5 523.0Q-23 526 8.5 526.5Q40 527 64 527Q112 527 171.5 522.5Q231 518 291.5 508.0Q352 498 408.5 483.0Q465 468 507 446ZM249 895Q252 878 252.5 862.0Q253 846 253 829Q253 789 243.0 736.5Q233 684 218.0 630.5Q203 577 185.5 526.5Q168 476 152 439Q129 383 111.0 316.5Q93 250 93 189Q93 126 114.0 68.5Q135 11 191 -26Q204 -35 219.0 -41.0Q234 -47 250 -47Q272 -47 272 -24Q272 -12 257.5 6.5Q243 25 233 33Q164 96 70.5 120.0Q-23 144 -114 144Q-142 144 -180.5 142.0Q-219 140 -258.0 133.5Q-297 127 -331.5 115.0Q-366 103 -387 83Q-366 103 -331.5 115.0Q-297 127 -258.0 133.5Q-219 140 -180.5 142.0Q-142 144 -114 144Q-23 144 70.5 120.0Q164 96 233 33Q243 25 257.5 6.5Q272 -12 272 -24Q272 -47 250 -47Q234 -47 219.0 -41.0Q204 -35 191 -26Q135 11 114.0 68.5Q93 126 93 189Q93 250 111.0 316.5Q129 383 152 439Q168 476 185.5 526.5Q203 577 218.0 630.5Q233 684 243.0 736.5Q253 789 253 829Q253 846 252.5 862.0Q252 878 249 895Z"/>
</svg>
