<?xml version="1.0" encoding="UTF-8"?>
<svg xmlns="http://www.w3.org/2000/svg" width="711" height="1268" viewBox="0 0 711 1268" data-advance="711" data-ascent="750" data-descent="-518" data-vertical-extent="1268" data-units-per-em="1000" data-glyph-name="X" data-codepoint="88" fill="none" stroke="currentColor" stroke-width="50" stroke-linecap="round" stroke-linejoin="round">
  <path d="M-171 -83Q-171 -83 -110.5 -62.0Q-50 -41 50.5 39.5Q151 120 235 214L309 297Q309 297 320.5 310.0Q332 323 352.5 351.0Q373 379 393 406Q393 406 411.0 430.0Q429 454 459 505L533 627Q533 627 540.0 638.5Q547 650 557.0 672.0Q567 694 572 720M495 -91Q495 -91 476.5 -78.0Q458 -65 431.5 -27.0Q405 11 381 49Q381 49 357.0 86.5Q333 124 296.5 194.5Q260 265 226 346Q226 346 219.0 362.5Q212 379 198.0 411.5Q184 444 170 477Q170 477 161.0 499.5Q152 522 133.0 572.0Q114 622 97.0 671.0Q80 720 68.0 765.0Q56 810 51 846"/>
</svg>
