<?xml version="1.0" encoding="UTF-8"?>
<svg xmlns="http://www.w3.org/2000/svg" width="807" height="1268" viewBox="0 0 807 1268" fill="none" stroke="currentColor" stroke-width="50" stroke-linecap="round" stroke-linejoin="round">
  <path d="M289 11Q291 46 297.0 81.0Q303 116 308 151Q320 235 320 317Q320 359 317.5 399.5Q315 440 313 481Q312 503 310.5 524.5Q309 546 305 567Q301 589 294.0 615.5Q287 642 275.0 667.0Q263 692 245.5 711.5Q228 731 205 740Q187 747 164 747Q141 747 115.0 737.0Q89 727 72 710Q40 678 16.0 623.0Q-8 568 -16 523Q-26 471 -35.5 419.0Q-45 367 -53 313Q-59 277 -67.0 228.0Q-75 179 -88.5 129.0Q-102 79 -122.0 35.0Q-142 -9 -171 -35Q-191 -52 -215 -61Q-191 -52 -171 -35Q-142 -9 -122.0 35.0Q-102 79 -88.5 129.0Q-75 179 -67.0 228.0Q-59 277 -53 313Q-45 367 -35.5 419.0Q-26 471 -16 523Q-8 568 16.0 623.0Q40 678 72 710Q89 727 115.0 737.0Q141 747 164 747Q187 747 205 740Q228 731 245.5 711.5Q263 692 275.0 667.0Q287 642 294.0 615.5Q301 589 305 567Q309 546 310.5 524.5Q312 503 313 481Q315 440 317.5 399.5Q320 359 320 317Q320 235 308 151Q303 116 297.0 81.0Q291 46 289 11ZM317 230 365 399Q373 422 382.0 445.0Q391 468 400 491Q419 540 441 580Q448 592 460.0 610.5Q472 629 485.5 648.5Q499 668 512.0 686.0Q525 704 534 714Q566 736 603.5 744.5Q641 753 678.0 745.0Q715 737 748.5 709.0Q782 681 807 630Q782 681 748.5 709.0Q715 737 678.0 745.0Q641 753 603.5 744.5Q566 736 534 714Q525 704 512.0 686.0Q499 668 485.5 648.5Q472 629 460.0 610.5Q448 592 441 580Q419 540 400 491Q391 468 382.0 445.0Q373 422 365 399M720 764H706H720Z"/>
</svg>
