<?xml version="1.0" encoding="UTF-8"?>
<svg xmlns="http://www.w3.org/2000/svg" width="585" height="1268" viewBox="0 0 585 1268" fill="none" stroke="currentColor" stroke-width="50" stroke-linecap="round" stroke-linejoin="round">
  <path d="M93 815Q83 756 75.0 698.5Q67 641 57 582Q45 514 29.0 447.5Q13 381 -1 313Q-18 238 -34.0 164.5Q-50 91 -75 18Q-50 91 -34.0 164.5Q-18 238 -1 313Q13 381 29.0 447.5Q45 514 57 582Q67 641 75.0 698.5Q83 756 93 815ZM339 38Q353 56 366.0 80.0Q379 104 389.0 131.0Q399 158 405.0 185.0Q411 212 411 235Q411 257 407.0 281.0Q403 305 396 326Q365 424 271 463Q254 470 234.5 474.5Q215 479 198 479Q164 479 140 471Q108 461 79.0 434.5Q50 408 50 373Q50 361 59.0 356.0Q68 351 79 351Q93 351 109.0 359.0Q125 367 141.5 378.5Q158 390 173.0 402.5Q188 415 198 424Q221 444 241.5 460.5Q262 477 278 501Q297 530 313.5 562.5Q330 595 348 624Q380 674 427.0 719.5Q474 765 530.0 797.5Q586 830 649.0 845.0Q712 860 777 849Q788 847 798.0 847.0Q808 847 818 840Q808 847 798.0 847.0Q788 847 777 849Q712 860 649.0 845.0Q586 830 530.0 797.5Q474 765 427.0 719.5Q380 674 348 624Q330 595 313.5 562.5Q297 530 278 501Q262 477 241.5 460.5Q221 444 198 424Q188 415 173.0 402.5Q158 390 141.5 378.5Q125 367 109.0 359.0Q93 351 79 351Q68 351 59.0 356.0Q50 361 50 373Q50 408 79.0 434.5Q108 461 140 471Q164 479 198 479Q215 479 234.5 474.5Q254 470 271 463Q365 424 396 326Q403 305 407.0 281.0Q411 257 411 235Q411 212 405.0 185.0Q399 158 389.0 131.0Q379 104 366.0 80.0Q353 56 339 38Z"/>
</svg>
