<?xml version="1.0" encoding="UTF-8"?>
<svg xmlns="http://www.w3.org/2000/svg" width="634" height="1268" viewBox="0 0 634 1268" fill="none" stroke="currentColor" stroke-width="50" stroke-linecap="round" stroke-linejoin="round">
  <path d="M634 619Q597 699 535.0 724.0Q473 749 384 745Q367 744 350.5 743.5Q334 743 317 741Q270 733 223 729Q186 724 149.0 714.0Q112 704 77 692Q40 680 6.5 664.5Q-27 649 -61 630Q-69 626 -78 626Q-83 626 -84.0 630.5Q-85 635 -85 639Q-85 649 -81.5 658.5Q-78 668 -73 676Q-43 734 -1 779Q33 817 75.0 853.0Q117 889 163 913Q188 925 214 932Q226 936 238 936Q279 936 293.0 909.5Q307 883 307 848Q307 817 299 782Q294 759 290.0 736.0Q286 713 280 690Q274 669 267.5 647.5Q261 626 254 605Q240 557 225.0 510.5Q210 464 196 416Q186 384 176.0 351.5Q166 319 156 287Q142 241 133.5 195.5Q125 150 125 102Q125 61 136.0 24.5Q147 -12 182 -38Q216 -63 259 -63Q289 -63 318.0 -53.5Q347 -44 369.5 -26.0Q392 -8 406.0 18.0Q420 44 420 77Q420 120 397.5 149.5Q375 179 341.0 197.0Q307 215 267.0 223.0Q227 231 191 231Q158 231 124.0 228.5Q90 226 58 219Q22 212 -21.5 196.0Q-65 180 -107.5 157.0Q-150 134 -186.0 106.0Q-222 78 -242 47Q-222 78 -186.0 106.0Q-150 134 -107.5 157.0Q-65 180 -21.5 196.0Q22 212 58 219Q90 226 124.0 228.5Q158 231 191 231Q227 231 267.0 223.0Q307 215 341.0 197.0Q375 179 397.5 149.5Q420 120 420 77Q420 44 406.0 18.0Q392 -8 369.5 -26.0Q347 -44 318.0 -53.5Q289 -63 259 -63Q216 -63 182 -38Q147 -12 136.0 24.5Q125 61 125 102Q125 150 133.5 195.5Q142 241 156 287Q166 319 176.0 351.5Q186 384 196 416Q210 464 225.0 510.5Q240 557 254 605Q261 626 267.5 647.5Q274 669 280 690Q286 713 290.0 736.0Q294 759 299 782Q307 817 307 848Q307 883 293.0 909.5Q279 936 238 936Q226 936 214 932Q188 925 163 913Q117 889 75.0 853.0Q33 817 -1 779Q-43 734 -73 676Q-78 668 -81.5 658.5Q-85 649 -85 639Q-85 635 -84.0 630.5Q-83 626 -78 626Q-69 626 -61 630Q-27 649 6.5 664.5Q40 680 77 692Q112 704 149.0 714.0Q186 724 223 729Q270 733 317 741Q334 743 350.5 743.5Q367 744 384 745Q473 749 535.0 724.0Q597 699 634 619Z"/>
</svg>
