<?xml version="1.0" encoding="UTF-8"?>
<svg xmlns="http://www.w3.org/2000/svg" width="484" height="1268" viewBox="0 0 484 1268" data-advance="484" data-ascent="750" data-descent="-518" data-vertical-extent="1268" data-units-per-em="1000" data-glyph-name="F" data-codepoint="70" fill="none" stroke="currentColor" stroke-width="50" stroke-linecap="round" stroke-linejoin="round">
  <path d="M-168 494Q-168 494 -157.5 500.0Q-147 506 -117.5 513.0Q-88 520 -55.5 523.0Q-23 526 8.5 526.5Q40 527 64 527Q64 527 88.0 527.0Q112 527 171.5 522.5Q231 518 291.5 508.0Q352 498 408.5 483.0Q465 468 507 446M-387 83Q-387 83 -376.5 93.0Q-366 103 -331.5 115.0Q-297 127 -258.0 133.5Q-219 140 -180.5 142.0Q-142 144 -114 144Q-114 144 -68.5 144.0Q-23 144 70.5 120.0Q164 96 233 33Q233 33 238.0 29.0Q243 25 257.5 6.5Q272 -12 272 -24Q272 -24 272.0 -35.5Q272 -47 250 -47Q250 -47 242.0 -47.0Q234 -47 219.0 -41.0Q204 -35 191 -26Q191 -26 163.0 -7.5Q135 11 114.0 68.5Q93 126 93 189Q93 189 93.0 219.5Q93 250 111.0 316.5Q129 383 152 439Q152 439 160.0 457.5Q168 476 185.5 526.5Q203 577 218.0 630.5Q233 684 243.0 736.5Q253 789 253 829Q253 829 253.0 837.5Q253 846 252.5 862.0Q252 878 249 895"/>
</svg>
