<?xml version="1.0" encoding="UTF-8"?>
<svg xmlns="http://www.w3.org/2000/svg" width="879" height="1268" viewBox="0 0 879 1268" data-advance="879" data-ascent="750" data-descent="-518" data-vertical-extent="1268" data-units-per-em="1000" data-glyph-name="O" data-codepoint="79" fill="none" stroke="currentColor" stroke-width="50" stroke-linecap="round" stroke-linejoin="round">
  <path d="M880 621Q838 699 775.5 729.0Q713 759 645.5 757.0Q578 755 513.0 727.0Q448 699 401 660Q354 621 321.0 586.0Q288 551 261.5 513.0Q235 475 210.5 429.0Q186 383 156 323Q135 281 124.5 235.0Q114 189 109 143Q107 134 107.0 125.0Q107 116 107 106Q107 70 114.5 33.5Q122 -3 140.0 -31.5Q158 -60 187.0 -78.0Q216 -96 259 -96Q315 -96 358.5 -73.5Q402 -51 443 -16Q485 21 517.5 72.0Q550 123 572.0 181.0Q594 239 605.5 299.0Q617 359 617 413Q617 448 612.0 480.5Q607 513 599 547Q576 637 519.5 696.0Q463 755 364 755Q274 755 212.5 715.0Q151 675 101 605Q79 575 65 546Q48 510 36.0 472.5Q24 435 16 396Q2 334 2 277Q2 204 15.0 132.5Q28 61 75 1Q28 61 15.0 132.5Q2 204 2 277Q2 334 16 396Q24 435 36.0 472.5Q48 510 65 546Q79 575 101 605Q151 675 212.5 715.0Q274 755 364 755Q463 755 519.5 696.0Q576 637 599 547Q607 513 612.0 480.5Q617 448 617 413Q617 359 605.5 299.0Q594 239 572.0 181.0Q550 123 517.5 72.0Q485 21 443 -16Q402 -51 358.5 -73.5Q315 -96 259 -96Q216 -96 187.0 -78.0Q158 -60 140.0 -31.5Q122 -3 114.5 33.5Q107 70 107 106Q107 116 107.0 125.0Q107 134 109 143Q114 189 124.5 235.0Q135 281 156 323Q186 383 210.5 429.0Q235 475 261.5 513.0Q288 551 321.0 586.0Q354 621 401 660Q448 699 513.0 727.0Q578 755 645.5 757.0Q713 759 775.5 729.0Q838 699 880 621Z"/>
</svg>
