<?xml version="1.0" encoding="UTF-8"?>
<svg xmlns="http://www.w3.org/2000/svg" width="806" height="1268" viewBox="0 0 806 1268" fill="none" stroke="currentColor" stroke-width="50" stroke-linecap="round" stroke-linejoin="round">
  <path d="M790 633Q774 675 754.5 708.0Q735 741 688 755Q656 765 630 765Q589 765 548 742Q524 728 506.5 706.5Q489 685 473 662Q432 601 408.0 525.5Q384 450 374 378Q365 315 365 255Q365 247 367.0 235.0Q369 223 373.0 212.0Q377 201 384.5 193.5Q392 186 402 186Q423 186 435.0 211.5Q447 237 453.0 270.5Q459 304 460.5 336.5Q462 369 462 383Q462 405 460.5 427.5Q459 450 457 471Q454 501 446.0 535.0Q438 569 425.5 602.5Q413 636 396.5 666.0Q380 696 359 718Q339 740 312.0 749.0Q285 758 256 758Q225 758 195.0 749.5Q165 741 140 722Q92 687 63.5 643.0Q35 599 21 541Q12 503 6.5 464.5Q1 426 1 388Q1 338 10.0 281.0Q19 224 40.0 171.0Q61 118 95.0 74.5Q129 31 178 8Q215 -9 252 -9Q317 -9 341.5 32.0Q366 73 360 131Q366 73 341.5 32.0Q317 -9 252 -9Q215 -9 178 8Q129 31 95.0 74.5Q61 118 40.0 171.0Q19 224 10.0 281.0Q1 338 1 388Q1 426 6.5 464.5Q12 503 21 541Q35 599 63.5 643.0Q92 687 140 722Q165 741 195.0 749.5Q225 758 256 758Q285 758 312.0 749.0Q339 740 359 718Q380 696 396.5 666.0Q413 636 425.5 602.5Q438 569 446.0 535.0Q454 501 457 471Q459 450 460.5 427.5Q462 405 462 383Q462 369 460.5 336.5Q459 304 453.0 270.5Q447 237 435.0 211.5Q423 186 402 186Q392 186 384.5 193.5Q377 201 373.0 212.0Q369 223 367.0 235.0Q365 247 365 255Q365 315 374 378Q384 450 408.0 525.5Q432 601 473 662Q489 685 506.5 706.5Q524 728 548 742Q589 765 630 765Q656 765 688 755Q735 741 754.5 708.0Q774 675 790 633Z"/>
</svg>
