<?xml version="1.0" encoding="UTF-8"?>
<svg xmlns="http://www.w3.org/2000/svg" width="539" height="1268" viewBox="0 0 539 1268" data-advance="539" data-ascent="750" data-descent="-518" data-vertical-extent="1268" data-units-per-em="1000" data-glyph-name="P" data-codepoint="80" fill="none" stroke="currentColor" stroke-width="50" stroke-linecap="round" stroke-linejoin="round">
  <path d="M24 218Q24 218 25.0 188.0Q26 158 38.5 95.5Q51 33 100 -8Q100 -8 115.0 -21.0Q130 -34 178 -34Q178 -34 190.5 -34.0Q203 -34 230 -26Q230 -26 269.0 -14.5Q308 -3 363.0 54.0Q418 111 448 185Q448 185 454.5 201.0Q461 217 469.5 249.5Q478 282 478 317Q478 317 478.0 356.5Q478 396 435.5 443.5Q393 491 312 491Q312 491 304.5 491.0Q297 491 290 490Q290 490 277.5 488.5Q265 487 239.0 472.5Q213 458 191.0 437.0Q169 416 152.0 391.5Q135 367 127 343M-89 62Q-89 62 -70.0 73.0Q-51 84 -29.0 110.5Q-7 137 6.5 167.0Q20 197 28.0 232.0Q36 267 45 308Q45 308 50.5 331.0Q56 354 65.5 399.5Q75 445 86 491Q86 491 87.5 497.5Q89 504 92.5 516.5Q96 529 100 543Q100 543 101.5 550.0Q103 557 106.0 572.0Q109 587 112 601Q112 601 116.5 620.0Q121 639 130.5 676.0Q140 713 148 751"/>
</svg>
