<?xml version="1.0" encoding="UTF-8"?>
<svg xmlns="http://www.w3.org/2000/svg" width="592" height="1268" viewBox="0 0 592 1268" data-advance="592" data-ascent="750" data-descent="-518" data-vertical-extent="1268" data-units-per-em="1000" data-glyph-name="T" data-codepoint="84" fill="none" stroke="currentColor" stroke-width="50" stroke-linecap="round" stroke-linejoin="round">
  <path d="M-200 29Q-200 29 -133.5 29.0Q-67 29 61.5 19.0Q190 9 322 -8Q322 -8 350.0 -12.0Q378 -16 433.0 -23.5Q488 -31 543 -42Q543 -42 556.5 -44.5Q570 -47 597.0 -53.0Q624 -59 650 -64Q650 -64 663.0 -66.5Q676 -69 702.5 -73.0Q729 -77 755 -85L846 -111M213 95Q213 95 217.0 111.0Q221 127 225.0 159.0Q229 191 234 223Q234 223 237.5 244.0Q241 265 247.0 307.0Q253 349 261 392Q261 392 267.5 431.0Q274 470 288.0 547.5Q302 625 302 704Q302 704 302.0 708.5Q302 713 301.5 722.0Q301 731 301 740"/>
</svg>
