<?xml version="1.0" encoding="UTF-8"?>
<svg xmlns="http://www.w3.org/2000/svg" width="701" height="1268" viewBox="0 0 701 1268" fill="none" stroke="currentColor" stroke-width="50" stroke-linecap="round" stroke-linejoin="round">
  <path d="M701 623Q692 642 683.5 658.5Q675 675 660 686Q638 701 613.0 706.0Q588 711 563.5 709.5Q539 708 517.5 702.0Q496 696 482 690Q469 684 461.5 680.5Q454 677 447.5 673.5Q441 670 433.0 665.0Q425 660 411 652Q387 637 350.5 612.5Q314 588 275.5 557.0Q237 526 201.5 490.0Q166 454 145 417Q126 385 112.0 351.5Q98 318 85 283Q72 244 64.0 204.0Q56 164 56 122Q56 66 79.5 28.0Q103 -10 166 -10Q208 -10 245.0 9.0Q282 28 313 55Q345 84 373.5 116.0Q402 148 425 185Q467 251 496.5 332.0Q526 413 536 491Q539 525 539 560Q539 594 528 629Q510 694 463.5 721.5Q417 749 353 749Q322 749 296.0 739.5Q270 730 245 714Q191 681 154.5 633.0Q118 585 92 529Q90 524 82.5 507.5Q75 491 68 491Q65 491 63 495Q63 497 62.0 514.0Q61 531 60.5 551.5Q60 572 59.5 590.0Q59 608 59 611Q58 619 58.5 627.0Q59 635 59 643V701Q59 709 59.0 717.0Q59 725 57 733L56 735L54 736Q50 735 47.0 726.5Q44 718 42.0 707.5Q40 697 39.0 688.0Q38 679 38 677Q14 541 -11.0 407.0Q-36 273 -62 138Q-36 273 -11.0 407.0Q14 541 38 677Q38 679 39.0 688.0Q40 697 42.0 707.5Q44 718 47.0 726.5Q50 735 54 736L56 735L57 733Q59 725 59.0 717.0Q59 709 59 701V643Q59 635 58.5 627.0Q58 619 59 611Q59 608 59.5 590.0Q60 572 60.5 551.5Q61 531 62.0 514.0Q63 497 63 495Q65 491 68 491Q75 491 82.5 507.5Q90 524 92 529Q118 585 154.5 633.0Q191 681 245 714Q270 730 296.0 739.5Q322 749 353 749Q417 749 463.5 721.5Q510 694 528 629Q539 594 539 560Q539 525 536 491Q526 413 496.5 332.0Q467 251 425 185Q402 148 373.5 116.0Q345 84 313 55Q282 28 245.0 9.0Q208 -10 166 -10Q103 -10 79.5 28.0Q56 66 56 122Q56 164 64.0 204.0Q72 244 85 283Q98 318 112.0 351.5Q126 385 145 417Q166 454 201.5 490.0Q237 526 275.5 557.0Q314 588 350.5 612.5Q387 637 411 652Q425 660 433.0 665.0Q441 670 447.5 673.5Q454 677 461.5 680.5Q469 684 482 690Q496 696 517.5 702.0Q539 708 563.5 709.5Q588 711 613.0 706.0Q638 701 660 686Q675 675 683.5 658.5Q692 642 701 623Z"/>
</svg>
