<?xml version="1.0" encoding="UTF-8"?>
<svg xmlns="http://www.w3.org/2000/svg" width="657" height="1268" viewBox="0 0 657 1268" fill="none" stroke="currentColor" stroke-width="50" stroke-linecap="round" stroke-linejoin="round">
  <path d="M657 621Q627 682 585.5 710.5Q544 739 499.5 755.0Q455 771 412.0 782.5Q369 794 336 821Q252 874 211.5 927.5Q171 981 160.0 1030.5Q149 1080 160.0 1124.5Q171 1169 190.5 1203.0Q210 1237 230.0 1259.5Q250 1282 256 1288Q311 1339 373.0 1371.0Q435 1403 491 1403Q507 1403 521.0 1397.0Q535 1391 543 1376Q553 1357 557.0 1332.0Q561 1307 561 1287Q561 1257 556 1220Q551 1175 546.5 1131.5Q542 1088 531 1043Q510 965 474.0 890.5Q438 816 384 753Q357 722 317.0 692.5Q277 663 231.0 639.5Q185 616 137.0 602.0Q89 588 48 588Q43 588 35.5 590.0Q28 592 28 599Q28 607 39 607Q50 607 62 598Q83 581 103.5 564.0Q124 547 143 528Q196 476 239.5 401.0Q283 326 297 252Q301 235 302.0 216.5Q303 198 303 180Q303 151 299.5 120.0Q296 89 283 62Q270 33 246.0 12.0Q222 -9 192.0 -23.5Q162 -38 130.0 -45.0Q98 -52 69 -52Q20 -52 -35.5 -32.0Q-91 -12 -132 14Q-164 35 -197.0 68.0Q-230 101 -250 133Q-274 168 -274 210Q-274 240 -242 240Q-207 240 -164.5 217.0Q-122 194 -96 170Q-79 153 -62.0 133.5Q-45 114 -31 94Q-17 73 -1.0 44.5Q15 16 30.0 -15.0Q45 -46 56.5 -76.5Q68 -107 72 -132Q74 -140 74.0 -149.0Q74 -158 74 -167V-185V-167Q74 -158 74.0 -149.0Q74 -140 72 -132Q68 -107 56.5 -76.5Q45 -46 30.0 -15.0Q15 16 -1.0 44.5Q-17 73 -31 94Q-45 114 -62.0 133.5Q-79 153 -96 170Q-122 194 -164.5 217.0Q-207 240 -242 240Q-274 240 -274 210Q-274 168 -250 133Q-230 101 -197.0 68.0Q-164 35 -132 14Q-91 -12 -35.5 -32.0Q20 -52 69 -52Q98 -52 130.0 -45.0Q162 -38 192.0 -23.5Q222 -9 246.0 12.0Q270 33 283 62Q296 89 299.5 120.0Q303 151 303 180Q303 198 302.0 216.5Q301 235 297 252Q283 326 239.5 401.0Q196 476 143 528Q124 547 103.5 564.0Q83 581 62 598Q50 607 39 607Q28 607 28 599Q28 592 35.5 590.0Q43 588 48 588Q89 588 137.0 602.0Q185 616 231.0 639.5Q277 663 317.0 692.5Q357 722 384 753Q438 816 474.0 890.5Q510 965 531 1043Q542 1088 546.5 1131.5Q551 1175 556 1220Q561 1257 561 1287Q561 1307 557.0 1332.0Q553 1357 543 1376Q535 1391 521.0 1397.0Q507 1403 491 1403Q435 1403 373.0 1371.0Q311 1339 256 1288Q250 1282 230.0 1259.5Q210 1237 190.5 1203.0Q171 1169 160.0 1124.5Q149 1080 160.0 1030.5Q171 981 211.5 927.5Q252 874 336 821Q369 794 412.0 782.5Q455 771 499.5 755.0Q544 739 585.5 710.5Q627 682 657 621Z"/>
</svg>
