<?xml version="1.0" encoding="UTF-8"?>
<svg xmlns="http://www.w3.org/2000/svg" width="592" height="1268" viewBox="0 0 592 1268" data-advance="592" data-ascent="750" data-descent="-518" data-vertical-extent="1268" data-units-per-em="1000" data-glyph-name="T" data-codepoint="84" fill="none" stroke="currentColor" stroke-width="50" stroke-linecap="round" stroke-linejoin="round">
  <path d="M846 -111 755 -85Q729 -77 702.5 -73.0Q676 -69 650 -64Q624 -59 597.0 -53.0Q570 -47 543 -42Q488 -31 433.0 -23.5Q378 -16 322 -8Q190 9 61.5 19.0Q-67 29 -200 29Q-239 29 -279.0 27.0Q-319 25 -356 13Q-319 25 -279.0 27.0Q-239 29 -200 29Q-67 29 61.5 19.0Q190 9 322 -8Q378 -16 433.0 -23.5Q488 -31 543 -42Q570 -47 597.0 -53.0Q624 -59 650 -64Q676 -69 702.5 -73.0Q729 -77 755 -85M301 740Q301 731 301.5 722.0Q302 713 302 704Q302 625 288.0 547.5Q274 470 261 392Q253 349 247.0 307.0Q241 265 234 223Q229 191 225.0 159.0Q221 127 213 95Q221 127 225.0 159.0Q229 191 234 223Q241 265 247.0 307.0Q253 349 261 392Q274 470 288.0 547.5Q302 625 302 704Q302 713 301.5 722.0Q301 731 301 740Z"/>
</svg>
