<?xml version="1.0" encoding="UTF-8"?>
<svg xmlns="http://www.w3.org/2000/svg" width="569" height="1268" viewBox="0 0 569 1268" data-advance="569" data-ascent="750" data-descent="-518" data-vertical-extent="1268" data-units-per-em="1000" data-glyph-name="E" data-codepoint="69" fill="none" stroke="currentColor" stroke-width="50" stroke-linecap="round" stroke-linejoin="round">
  <path d="M167 -37V26Q167 26 167.0 38.5Q167 51 171.5 81.5Q176 112 185.0 142.5Q194 173 207.0 201.0Q220 229 236 249Q236 249 239.0 253.0Q242 257 251.0 265.0Q260 273 271 273Q271 273 281.5 273.0Q292 273 292 254Q292 254 292.0 250.5Q292 247 287.5 235.5Q283 224 280 217Q280 217 273.0 201.5Q266 186 250.0 161.5Q234 137 213 111Q213 111 201.0 96.5Q189 82 157.5 65.5Q126 49 87 49Q87 49 79.5 49.0Q72 49 52.5 62.0Q33 75 23 86Q23 86 10.5 100.5Q-2 115 -2 156Q-2 156 -2.0 179.5Q-2 203 15.5 255.5Q33 308 60 346Q60 346 65.5 353.5Q71 361 86.5 383.5Q102 406 121.0 426.5Q140 447 161.0 462.0Q182 477 204 477Q204 477 216.0 477.0Q228 477 228 455Q228 455 228.0 441.5Q228 428 200.5 404.0Q173 380 151 370Q151 370 134.5 362.5Q118 355 83 355Q83 355 72.0 355.0Q61 355 45 359Q45 359 26.0 365.0Q7 371 -16.0 406.0Q-39 441 -39 479Q-39 479 -39.0 484.0Q-39 489 -38 494Q-38 494 -33.0 524.0Q-28 554 3.0 601.5Q34 649 79.0 682.0Q124 715 179.0 732.5Q234 750 292 750Q292 750 314.5 750.0Q337 750 379.0 745.0Q421 740 457.0 727.0Q493 714 522.0 691.0Q551 668 569 631"/>
</svg>
