<?xml version="1.0" encoding="UTF-8"?>
<svg xmlns="http://www.w3.org/2000/svg" width="701" height="1268" viewBox="0 0 701 1268" data-advance="701" data-ascent="750" data-descent="-518" data-vertical-extent="1268" data-units-per-em="1000" data-glyph-name="D" data-codepoint="68" fill="none" stroke="currentColor" stroke-width="50" stroke-linecap="round" stroke-linejoin="round">
  <path d="M-62 138Q-62 138 -49.0 205.5Q-36 273 -11.0 407.0Q14 541 38 677Q38 677 38.0 678.0Q38 679 39.0 688.0Q40 697 42.0 707.5Q44 718 47.0 726.5Q50 735 54 736L56 735L57 733Q57 733 58.0 729.0Q59 725 59.0 717.0Q59 709 59 701V643Q59 643 59.0 639.0Q59 635 58.5 627.0Q58 619 59 611Q59 611 59.0 609.5Q59 608 59.5 590.0Q60 572 60.5 551.5Q61 531 62.0 514.0Q63 497 63 495Q63 495 64.0 493.0Q65 491 68 491Q68 491 71.5 491.0Q75 491 82.5 507.5Q90 524 92 529Q92 529 105.0 557.0Q118 585 154.5 633.0Q191 681 245 714Q245 714 257.5 722.0Q270 730 296.0 739.5Q322 749 353 749Q353 749 385.0 749.0Q417 749 463.5 721.5Q510 694 528 629Q528 629 533.5 611.5Q539 594 539 560Q539 560 539.0 542.5Q539 525 536 491Q536 491 531.0 452.0Q526 413 496.5 332.0Q467 251 425 185Q425 185 413.5 166.5Q402 148 373.5 116.0Q345 84 313 55Q313 55 297.5 41.5Q282 28 245.0 9.0Q208 -10 166 -10Q166 -10 134.5 -10.0Q103 -10 79.5 28.0Q56 66 56 122Q56 122 56.0 143.0Q56 164 64.0 204.0Q72 244 85 283Q85 283 91.5 300.5Q98 318 112.0 351.5Q126 385 145 417Q145 417 155.5 435.5Q166 454 201.5 490.0Q237 526 275.5 557.0Q314 588 350.5 612.5Q387 637 411 652Q411 652 418.0 656.0Q425 660 433.0 665.0Q441 670 447.5 673.5Q454 677 461.5 680.5Q469 684 482 690Q482 690 489.0 693.0Q496 696 517.5 702.0Q539 708 563.5 709.5Q588 711 613.0 706.0Q638 701 660 686Q660 686 667.5 680.5Q675 675 683.5 658.5Q692 642 701 623"/>
</svg>
