<?xml version="1.0" encoding="UTF-8"?>
<svg xmlns="http://www.w3.org/2000/svg" width="865" height="1268" viewBox="0 0 865 1268" data-advance="865" data-ascent="750" data-descent="-518" data-vertical-extent="1268" data-units-per-em="1000" data-glyph-name="B" data-codepoint="66" fill="none" stroke="currentColor" stroke-width="50" stroke-linecap="round" stroke-linejoin="round">
  <path d="M204 769Q199 729 190.5 690.0Q182 651 173 611L151 506Q134 428 113.5 336.0Q93 244 55 169Q45 150 31.5 133.5Q18 117 0 106Q18 117 31.5 133.5Q45 150 55 169Q93 244 113.5 336.0Q134 428 151 506L173 611Q182 651 190.5 690.0Q199 729 204 769ZM776 715Q750 727 721.5 731.0Q693 735 669 733Q627 729 591.0 721.0Q555 713 521.5 702.0Q488 691 453.5 676.5Q419 662 380 645Q359 636 337.0 622.5Q315 609 297 595Q294 593 289.5 589.5Q285 586 282 586Q273 586 273 595Q273 603 287.5 618.0Q302 633 308 640Q332 665 363.5 690.0Q395 715 430.0 735.5Q465 756 502.5 768.5Q540 781 576 781Q616 781 642.5 764.5Q669 748 669 705Q669 677 653.5 642.5Q638 608 622 585Q599 553 574.0 522.0Q549 491 520 465Q472 422 406.0 381.5Q340 341 277 322Q266 319 254.0 316.5Q242 314 230 312Q222 310 213.0 309.0Q204 308 194 308Q184 308 175.5 312.5Q167 317 167 329Q167 337 175 345Q194 362 227.0 370.0Q260 378 285 378Q369 378 424.0 329.5Q479 281 479 195Q479 184 475.5 168.5Q472 153 467 142Q447 92 409.5 58.5Q372 25 319 14Q304 11 289.5 10.5Q275 10 260 10Q249 10 235.0 13.0Q221 16 211 21Q178 34 158.5 54.5Q139 75 128.5 100.5Q118 126 114.0 155.5Q110 185 106 216Q104 234 103.0 252.5Q102 271 101 290Q102 271 103.0 252.5Q104 234 106 216Q110 185 114.0 155.5Q118 126 128.5 100.5Q139 75 158.5 54.5Q178 34 211 21Q221 16 235.0 13.0Q249 10 260 10Q275 10 289.5 10.5Q304 11 319 14Q372 25 409.5 58.5Q447 92 467 142Q472 153 475.5 168.5Q479 184 479 195Q479 281 424.0 329.5Q369 378 285 378Q260 378 227.0 370.0Q194 362 175 345Q167 337 167 329Q167 317 175.5 312.5Q184 308 194 308Q204 308 213.0 309.0Q222 310 230 312Q242 314 254.0 316.5Q266 319 277 322Q340 341 406.0 381.5Q472 422 520 465Q549 491 574.0 522.0Q599 553 622 585Q638 608 653.5 642.5Q669 677 669 705Q669 748 642.5 764.5Q616 781 576 781Q540 781 502.5 768.5Q465 756 430.0 735.5Q395 715 363.5 690.0Q332 665 308 640Q302 633 287.5 618.0Q273 603 273 595Q273 586 282 586Q285 586 289.5 589.5Q294 593 297 595Q315 609 337.0 622.5Q359 636 380 645Q419 662 453.5 676.5Q488 691 521.5 702.0Q555 713 591.0 721.0Q627 729 669 733Q693 735 721.5 731.0Q750 727 776 715ZM854 623Q826 686 776 715Q826 686 854 623Z"/>
</svg>
