<?xml version="1.0" encoding="UTF-8"?>
<svg xmlns="http://www.w3.org/2000/svg" width="670" height="1268" viewBox="0 0 670 1268" fill="none" stroke="currentColor" stroke-width="50" stroke-linecap="round" stroke-linejoin="round">
  <path d="M103 745Q98 702 86.5 661.0Q75 620 65 578Q57 542 50.0 505.5Q43 469 35 433Q30 406 24.5 379.0Q19 352 13 326Q9 307 -0.5 270.5Q-10 234 -24.5 196.0Q-39 158 -58.0 125.5Q-77 93 -101 83Q-77 93 -58.0 125.5Q-39 158 -24.5 196.0Q-10 234 -0.5 270.5Q9 307 13 326Q19 352 24.5 379.0Q30 406 35 433Q43 469 50.0 505.5Q57 542 65 578Q75 620 86.5 661.0Q98 702 103 745ZM670 623Q655 657 640.0 680.0Q625 703 605.5 717.5Q586 732 558.5 738.5Q531 745 492 745Q435 745 377.5 721.5Q320 698 269.0 659.5Q218 621 176.5 571.5Q135 522 110 471Q102 456 97.0 437.5Q92 419 92 402Q92 382 102.5 369.0Q113 356 128.5 348.5Q144 341 162.0 337.5Q180 334 196 334Q231 334 262.5 350.0Q294 366 329 366Q380 366 414.5 331.0Q449 296 449 245Q449 207 438 177Q425 145 402.5 117.5Q380 90 357 66Q315 23 259.0 -11.0Q203 -45 141 -45Q125 -45 108 -42Q56 -33 29.5 13.0Q3 59 0 108L-4 168Q-6 188 -7.0 207.0Q-8 226 -8 246Q-8 226 -7.0 207.0Q-6 188 -4 168L0 108Q3 59 29.5 13.0Q56 -33 108 -42Q125 -45 141 -45Q203 -45 259.0 -11.0Q315 23 357 66Q380 90 402.5 117.5Q425 145 438 177Q449 207 449 245Q449 296 414.5 331.0Q380 366 329 366Q294 366 262.5 350.0Q231 334 196 334Q180 334 162.0 337.5Q144 341 128.5 348.5Q113 356 102.5 369.0Q92 382 92 402Q92 419 97.0 437.5Q102 456 110 471Q135 522 176.5 571.5Q218 621 269.0 659.5Q320 698 377.5 721.5Q435 745 492 745Q531 745 558.5 738.5Q586 732 605.5 717.5Q625 703 640.0 680.0Q655 657 670 623Z"/>
</svg>
