<?xml version="1.0" encoding="UTF-8"?>
<svg xmlns="http://www.w3.org/2000/svg" width="542" height="1268" viewBox="0 0 542 1268" data-advance="542" data-ascent="750" data-descent="-518" data-vertical-extent="1268" data-units-per-em="1000" data-glyph-name="H" data-codepoint="72" fill="none" stroke="currentColor" stroke-width="50" stroke-linecap="round" stroke-linejoin="round">
  <path d="M281 -125Q281 -125 279.5 -115.5Q278 -106 277.0 -87.0Q276 -68 276 -49Q276 -49 276.0 -25.0Q276 -1 279.5 45.0Q283 91 288 138Q288 138 292.0 169.5Q296 201 303.0 263.5Q310 326 324 389L346 485Q346 485 352.5 513.5Q359 542 371.5 598.0Q384 654 403 708Q403 708 404.0 711.0Q405 714 411.0 731.0Q417 748 417 753Q417 753 417.0 754.5Q417 756 414 759M-60 -14Q-60 -14 -47.0 23.0Q-34 60 -17.5 137.0Q-1 214 15 291Q15 291 21.0 319.5Q27 348 36.5 405.0Q46 462 56 520Q56 520 61.0 550.0Q66 580 73.5 633.0Q81 686 84 747M414 759Q414 759 413.0 758.5Q412 758 409 753Q409 753 399.0 723.0Q389 693 357.5 638.5Q326 584 289 532Q289 532 282.5 523.5Q276 515 256.0 493.0Q236 471 212.0 452.0Q188 433 163.0 420.0Q138 407 115 407Q115 407 103.5 407.0Q92 407 72.0 417.0Q52 427 52 454Q52 454 52.0 462.5Q52 471 64.0 489.0Q76 507 88 519Q88 519 100.0 531.0Q112 543 152.0 561.5Q192 580 237.0 593.0Q282 606 326.5 613.0Q371 620 404 620Q404 620 412.0 620.0Q420 620 434.5 618.0Q449 616 463 609"/>
</svg>
