<?xml version="1.0" encoding="UTF-8"?>
<svg xmlns="http://www.w3.org/2000/svg" width="670" height="1268" viewBox="0 0 670 1268" data-advance="670" data-ascent="750" data-descent="-518" data-vertical-extent="1268" data-units-per-em="1000" data-glyph-name="R" data-codepoint="82" fill="none" stroke="currentColor" stroke-width="50" stroke-linecap="round" stroke-linejoin="round">
  <path d="M-101 83Q-101 83 -89.0 88.0Q-77 93 -58.0 125.5Q-39 158 -24.5 196.0Q-10 234 -0.5 270.5Q9 307 13 326Q13 326 16.0 339.0Q19 352 24.5 379.0Q30 406 35 433Q35 433 39.0 451.0Q43 469 50.0 505.5Q57 542 65 578Q65 578 70.0 599.0Q75 620 86.5 661.0Q98 702 103 745M-8 246Q-8 246 -8.0 236.0Q-8 226 -7.0 207.0Q-6 188 -4 168L0 108Q0 108 1.5 83.5Q3 59 29.5 13.0Q56 -33 108 -42Q108 -42 116.5 -43.5Q125 -45 141 -45Q141 -45 172.0 -45.0Q203 -45 259.0 -11.0Q315 23 357 66Q357 66 368.5 78.0Q380 90 402.5 117.5Q425 145 438 177Q438 177 443.5 192.0Q449 207 449 245Q449 245 449.0 270.5Q449 296 414.5 331.0Q380 366 329 366Q329 366 311.5 366.0Q294 366 262.5 350.0Q231 334 196 334Q196 334 188.0 334.0Q180 334 162.0 337.5Q144 341 128.5 348.5Q113 356 102.5 369.0Q92 382 92 402Q92 402 92.0 410.5Q92 419 97.0 437.5Q102 456 110 471Q110 471 122.5 496.5Q135 522 176.5 571.5Q218 621 269.0 659.5Q320 698 377.5 721.5Q435 745 492 745Q492 745 511.5 745.0Q531 745 558.5 738.5Q586 732 605.5 717.5Q625 703 640.0 680.0Q655 657 670 623"/>
</svg>
