<?xml version="1.0" encoding="UTF-8"?>
<svg xmlns="http://www.w3.org/2000/svg" width="810" height="1268" viewBox="0 0 810 1268" data-advance="810" data-ascent="750" data-descent="-518" data-vertical-extent="1268" data-units-per-em="1000" data-glyph-name="W" data-codepoint="87" fill="none" stroke="currentColor" stroke-width="50" stroke-linecap="round" stroke-linejoin="round">
  <path d="M764 -103Q714 -82 681.0 -45.5Q648 -9 628.0 36.5Q608 82 597.0 132.5Q586 183 580 231Q577 255 575.0 280.0Q573 305 575 329Q580 426 586.0 524.0Q592 622 632 713Q634 716 636.5 721.0Q639 726 644 726Q652 726 652 718Q652 713 651 712Q650 708 649.5 703.5Q649 699 648 694Q645 678 638.5 662.5Q632 647 627 631Q606 559 578.0 474.5Q550 390 514.5 306.5Q479 223 436.0 147.0Q393 71 342 16Q318 -10 287.0 -27.0Q256 -44 219 -44Q168 -44 137.5 -14.5Q107 15 91.5 58.0Q76 101 71.5 149.5Q67 198 67 236Q67 361 93.0 482.0Q119 603 167 718Q169 723 172.5 731.0Q176 739 183 739Q188 739 190.0 734.5Q192 730 192 726Q192 715 187.5 699.5Q183 684 180 674Q158 599 126 527Q120 512 113.0 498.0Q106 484 99 469Q89 448 80.5 426.5Q72 405 62 384Q45 349 22.5 305.5Q0 262 -26.0 218.5Q-52 175 -80.5 135.5Q-109 96 -137 68Q-177 30 -228.5 4.0Q-280 -22 -337 -22Q-375 -22 -407.0 -10.5Q-439 1 -470 22Q-439 1 -407.0 -10.5Q-375 -22 -337 -22Q-280 -22 -228.5 4.0Q-177 30 -137 68Q-109 96 -80.5 135.5Q-52 175 -26.0 218.5Q0 262 22.5 305.5Q45 349 62 384Q72 405 80.5 426.5Q89 448 99 469Q106 484 113.0 498.0Q120 512 126 527Q158 599 180 674Q183 684 187.5 699.5Q192 715 192 726Q192 730 190.0 734.5Q188 739 183 739Q176 739 172.5 731.0Q169 723 167 718Q119 603 93.0 482.0Q67 361 67 236Q67 198 71.5 149.5Q76 101 91.5 58.0Q107 15 137.5 -14.5Q168 -44 219 -44Q256 -44 287.0 -27.0Q318 -10 342 16Q393 71 436.0 147.0Q479 223 514.5 306.5Q550 390 578.0 474.5Q606 559 627 631Q632 647 638.5 662.5Q645 678 648 694Q649 699 649.5 703.5Q650 708 651 712Q652 713 652 718Q652 726 644 726Q639 726 636.5 721.0Q634 716 632 713Q592 622 586.0 524.0Q580 426 575 329Q573 305 575.0 280.0Q577 255 580 231Q586 183 597.0 132.5Q608 82 628.0 36.5Q648 -9 681.0 -45.5Q714 -82 764 -103Z"/>
</svg>
