<?xml version="1.0" encoding="UTF-8"?>
<svg xmlns="http://www.w3.org/2000/svg" width="574" height="1268" viewBox="0 0 574 1268" data-advance="574" data-ascent="750" data-descent="-518" data-vertical-extent="1268" data-units-per-em="1000" data-glyph-name="C" data-codepoint="67" fill="none" stroke="currentColor" stroke-width="50" stroke-linecap="round" stroke-linejoin="round">
  <path d="M572 623Q540 695 484.0 721.5Q428 748 349 750Q249 753 176.5 712.5Q104 672 53 582Q21 526 6.5 464.5Q-8 403 -8 340Q-8 298 -0.5 244.5Q7 191 25.0 141.0Q43 91 72.5 50.5Q102 10 147 -8Q170 -17 193 -17Q231 -17 257.0 7.5Q283 32 299.5 67.0Q316 102 323.5 141.5Q331 181 331 211Q331 266 319 319Q331 266 331 211Q331 181 323.5 141.5Q316 102 299.5 67.0Q283 32 257.0 7.5Q231 -17 193 -17Q170 -17 147 -8Q102 10 72.5 50.5Q43 91 25.0 141.0Q7 191 -0.5 244.5Q-8 298 -8 340Q-8 403 6.5 464.5Q21 526 53 582Q104 672 176.5 712.5Q249 753 349 750Q428 748 484.0 721.5Q540 695 572 623Z"/>
</svg>
