<?xml version="1.0" encoding="UTF-8"?>
<svg xmlns="http://www.w3.org/2000/svg" width="1202" height="1268" viewBox="0 0 1202 1268" data-advance="1202" data-ascent="750" data-descent="-518" data-vertical-extent="1268" data-units-per-em="1000" data-glyph-name="M" data-codepoint="77" fill="none" stroke="currentColor" stroke-width="50" stroke-linecap="round" stroke-linejoin="round">
  <path d="M88 753Q82 699 73.0 646.0Q64 593 56 539Q51 506 42.0 474.0Q33 442 24 410Q16 379 6.5 349.5Q-3 320 -14 290Q-39 220 -66.5 166.5Q-94 113 -145 57Q-172 28 -207.0 9.0Q-242 -10 -284 -10Q-327 -10 -367 17Q-327 -10 -284 -10Q-242 -10 -207.0 9.0Q-172 28 -145 57Q-94 113 -66.5 166.5Q-39 220 -14 290Q-3 320 6.5 349.5Q16 379 24 410Q33 442 42.0 474.0Q51 506 56 539Q64 593 73.0 646.0Q82 699 88 753ZM1202 623Q1182 671 1148.5 701.5Q1115 732 1063 740Q1019 740 979.0 728.5Q939 717 901 697Q871 681 837.5 654.5Q804 628 782 602Q735 545 697.0 468.5Q659 392 636 322L614 259Q612 254 607.0 241.5Q602 229 595.5 216.0Q589 203 582.0 193.0Q575 183 569 183Q557 183 554.5 196.5Q552 210 550 218Q548 232 547.0 246.0Q546 260 544 274Q533 365 520.0 455.0Q507 545 496 636Q494 648 493.0 659.5Q492 671 491 683Q489 694 488.5 703.5Q488 713 487 724Q486 728 485.5 744.0Q485 760 478 760Q474 760 473 756Q472 753 470.0 744.0Q468 735 466.5 724.0Q465 713 463.5 702.5Q462 692 461 687Q456 658 451.0 628.5Q446 599 439 570Q432 538 416.5 474.0Q401 410 379.0 339.5Q357 269 329.5 204.5Q302 140 271 107Q238 70 188 70Q180 70 169.0 74.0Q158 78 150 83Q120 103 104.5 149.0Q89 195 82.0 248.0Q75 301 74.5 352.0Q74 403 73 433Q71 470 69.5 507.5Q68 545 68 583Q68 593 68.0 602.0Q68 611 69 622Q68 611 68.0 602.0Q68 593 68 583Q68 545 69.5 507.5Q71 470 73 433Q74 403 74.5 352.0Q75 301 82.0 248.0Q89 195 104.5 149.0Q120 103 150 83Q158 78 169.0 74.0Q180 70 188 70Q238 70 271 107Q302 140 329.5 204.5Q357 269 379.0 339.5Q401 410 416.5 474.0Q432 538 439 570Q446 599 451.0 628.5Q456 658 461 687Q462 692 463.5 702.5Q465 713 466.5 724.0Q468 735 470.0 744.0Q472 753 473 756Q474 760 478 760Q485 760 485.5 744.0Q486 728 487 724Q488 713 488.5 703.5Q489 694 491 683Q492 671 493.0 659.5Q494 648 496 636Q507 545 520.0 455.0Q533 365 544 274Q546 260 547.0 246.0Q548 232 550 218Q552 210 554.5 196.5Q557 183 569 183Q575 183 582.0 193.0Q589 203 595.5 216.0Q602 229 607.0 241.5Q612 254 614 259L636 322Q659 392 697.0 468.5Q735 545 782 602Q804 628 837.5 654.5Q871 681 901 697Q939 717 979.0 728.5Q1019 740 1063 740Q1115 732 1148.5 701.5Q1182 671 1202 623Z"/>
</svg>
