<?xml version="1.0" encoding="UTF-8"?>
<svg xmlns="http://www.w3.org/2000/svg" width="443" height="1268" viewBox="0 0 443 1268" fill="none" stroke="currentColor" stroke-width="50" stroke-linecap="round" stroke-linejoin="round">
  <path d="M444 163Q432 140 416.5 112.5Q401 85 381.5 59.5Q362 34 339.5 13.5Q317 -7 292 -16Q265 -25 238 -25Q193 -25 162 2Q121 37 105.0 85.5Q89 134 84 185Q82 210 80.5 234.5Q79 259 79 284Q79 296 79.0 308.0Q79 320 80 333Q82 372 85.0 410.0Q88 448 94 486Q100 522 109.5 556.0Q119 590 129 625Q134 640 138.5 654.5Q143 669 148 683Q151 689 155.5 700.5Q160 712 165.0 723.5Q170 735 176.0 744.0Q182 753 188 756H189Q195 756 195 751Q195 740 187.5 714.5Q180 689 171.0 662.0Q162 635 154.0 612.5Q146 590 144 584Q132 552 120.0 521.0Q108 490 96 459Q90 443 81.0 429.0Q72 415 64 401Q53 383 45.5 364.5Q38 346 28 328Q6 287 -16.5 245.0Q-39 203 -65.0 164.0Q-91 125 -122.5 90.5Q-154 56 -194 30Q-225 10 -258.5 -4.0Q-292 -18 -330 -18Q-364 -18 -395.5 -5.0Q-427 8 -450 34Q-427 8 -395.5 -5.0Q-364 -18 -330 -18Q-292 -18 -258.5 -4.0Q-225 10 -194 30Q-154 56 -122.5 90.5Q-91 125 -65.0 164.0Q-39 203 -16.5 245.0Q6 287 28 328Q38 346 45.5 364.5Q53 383 64 401Q72 415 81.0 429.0Q90 443 96 459Q108 490 120.0 521.0Q132 552 144 584Q146 590 154.0 612.5Q162 635 171.0 662.0Q180 689 187.5 714.5Q195 740 195 751Q195 756 189 756H188Q182 753 176.0 744.0Q170 735 165.0 723.5Q160 712 155.5 700.5Q151 689 148 683Q143 669 138.5 654.5Q134 640 129 625Q119 590 109.5 556.0Q100 522 94 486Q88 448 85.0 410.0Q82 372 80 333Q79 320 79.0 308.0Q79 296 79 284Q79 259 80.5 234.5Q82 210 84 185Q89 134 105.0 85.5Q121 37 162 2Q193 -25 238 -25Q265 -25 292 -16Q317 -7 339.5 13.5Q362 34 381.5 59.5Q401 85 416.5 112.5Q432 140 444 163Z"/>
</svg>
