<?xml version="1.0" encoding="UTF-8"?>
<svg xmlns="http://www.w3.org/2000/svg" width="770" height="1268" viewBox="0 0 770 1268" data-advance="770" data-ascent="750" data-descent="-518" data-vertical-extent="1268" data-units-per-em="1000" data-glyph-name="S" data-codepoint="83" fill="none" stroke="currentColor" stroke-width="50" stroke-linecap="round" stroke-linejoin="round">
  <path d="M376 40Q376 40 361.0 19.0Q346 -2 300.0 -22.0Q254 -42 203 -42Q203 -42 158.0 -42.0Q113 -42 51.0 5.5Q-11 53 -11 149Q-11 149 -11.0 172.0Q-11 195 2.5 228.0Q16 261 39.0 287.0Q62 313 94.5 333.5Q127 354 164 375Q164 375 175.5 381.0Q187 387 210.0 398.5Q233 410 256 421Q256 421 276.0 431.0Q296 441 340.5 462.0Q385 483 426.5 508.0Q468 533 503.5 565.0Q539 597 561 640Q561 640 569.0 656.0Q577 672 577 707Q577 707 577.0 723.0Q577 739 566.5 774.0Q556 809 527 828Q527 828 520.0 832.0Q513 836 487.0 844.0Q461 852 444 852Q444 852 425.5 852.0Q407 852 374 831Q374 831 340.0 808.5Q306 786 252 715Q252 715 247.5 709.0Q243 703 233.5 691.0Q224 679 215 666Q215 666 212.5 662.5Q210 659 205.0 652.0Q200 645 195 639L132 564Q132 564 125.0 555.5Q118 547 93.0 527.5Q68 508 45 508Q45 508 38.5 508.0Q32 508 27.5 516.5Q23 525 23 536Q23 536 23.0 542.5Q23 549 28.5 571.5Q34 594 41 605Q41 605 54.5 628.5Q68 652 127.0 694.5Q186 737 260.5 767.0Q335 797 416.5 810.0Q498 823 570.0 809.5Q642 796 695.5 752.5Q749 709 767 627"/>
</svg>
