<?xml version="1.0" encoding="UTF-8"?>
<svg xmlns="http://www.w3.org/2000/svg" width="711" height="1268" viewBox="0 0 711 1268" fill="none" stroke="currentColor" stroke-width="50" stroke-linecap="round" stroke-linejoin="round">
  <path d="M572 720Q567 694 557.0 672.0Q547 650 533 627L459 505Q429 454 393 406Q373 379 352.5 351.0Q332 323 309 297L235 214Q151 120 50.5 39.5Q-50 -41 -171 -83Q-50 -41 50.5 39.5Q151 120 235 214L309 297Q332 323 352.5 351.0Q373 379 393 406Q429 454 459 505L533 627Q547 650 557.0 672.0Q567 694 572 720ZM51 846Q56 810 68.0 765.0Q80 720 97.0 671.0Q114 622 133.0 572.0Q152 522 170 477Q184 444 198.0 411.5Q212 379 226 346Q260 265 296.5 194.5Q333 124 381 49Q405 11 431.5 -27.0Q458 -65 495 -91Q458 -65 431.5 -27.0Q405 11 381 49Q333 124 296.5 194.5Q260 265 226 346Q212 379 198.0 411.5Q184 444 170 477Q152 522 133.0 572.0Q114 622 97.0 671.0Q80 720 68.0 765.0Q56 810 51 846Z"/>
</svg>
