<?xml version="1.0" encoding="UTF-8"?>
<svg xmlns="http://www.w3.org/2000/svg" width="543" height="1268" viewBox="0 0 543 1268" data-advance="543" data-ascent="750" data-descent="-518" data-vertical-extent="1268" data-units-per-em="1000" data-glyph-name="J" data-codepoint="74" fill="none" stroke="currentColor" stroke-width="50" stroke-linecap="round" stroke-linejoin="round">
  <path d="M554 561Q525 572 496.0 582.0Q467 592 438 604Q422 610 406.0 615.5Q390 621 375 629Q324 652 272.0 684.0Q220 716 177.5 757.5Q135 799 108.0 850.5Q81 902 81 964Q81 1021 97.0 1081.0Q113 1141 141.0 1198.0Q169 1255 206.0 1306.0Q243 1357 285 1395Q311 1419 342.0 1437.5Q373 1456 410 1456Q445 1456 463.0 1429.0Q481 1402 489.0 1365.0Q497 1328 498.0 1290.0Q499 1252 499 1231Q499 1175 492.0 1119.5Q485 1064 476 1009Q466 955 456.5 902.5Q447 850 435 796Q421 739 406.0 683.0Q391 627 376 570Q368 541 358.0 514.0Q348 487 337 458Q317 402 297.5 346.0Q278 290 255 234Q236 186 213.0 142.0Q190 98 165 53Q154 33 136.5 4.0Q119 -25 97.0 -51.5Q75 -78 50.5 -97.0Q26 -116 0 -116Q-21 -116 -38.5 -103.0Q-56 -90 -64 -71Q-78 -39 -84.0 8.5Q-90 56 -90 91Q-90 120 -88.0 148.0Q-86 176 -83 205Q-77 248 -62.0 297.0Q-47 346 -24.5 393.0Q-2 440 27.5 480.5Q57 521 92 548Q128 575 174 595Q214 613 252 621Q255 622 264.0 623.5Q273 625 283.5 626.5Q294 628 302.5 628.5Q311 629 313 629Q311 629 302.5 628.5Q294 628 283.5 626.5Q273 625 264.0 623.5Q255 622 252 621Q214 613 174 595Q128 575 92 548Q57 521 27.5 480.5Q-2 440 -24.5 393.0Q-47 346 -62.0 297.0Q-77 248 -83 205Q-86 176 -88.0 148.0Q-90 120 -90 91Q-90 56 -84.0 8.5Q-78 -39 -64 -71Q-56 -90 -38.5 -103.0Q-21 -116 0 -116Q26 -116 50.5 -97.0Q75 -78 97.0 -51.5Q119 -25 136.5 4.0Q154 33 165 53Q190 98 213.0 142.0Q236 186 255 234Q278 290 297.5 346.0Q317 402 337 458Q348 487 358.0 514.0Q368 541 376 570Q391 627 406.0 683.0Q421 739 435 796Q447 850 456.5 902.5Q466 955 476 1009Q485 1064 492.0 1119.5Q499 1175 499 1231Q499 1252 498.0 1290.0Q497 1328 489.0 1365.0Q481 1402 463.0 1429.0Q445 1456 410 1456Q373 1456 342.0 1437.5Q311 1419 285 1395Q243 1357 206.0 1306.0Q169 1255 141.0 1198.0Q113 1141 97.0 1081.0Q81 1021 81 964Q81 902 108.0 850.5Q135 799 177.5 757.5Q220 716 272.0 684.0Q324 652 375 629Q390 621 406.0 615.5Q422 610 438 604Q467 592 496.0 582.0Q525 572 554 561Z"/>
</svg>
