<?xml version="1.0" encoding="UTF-8"?>
<svg xmlns="http://www.w3.org/2000/svg" width="539" height="1268" viewBox="0 0 539 1268" data-advance="539" data-ascent="750" data-descent="-518" data-vertical-extent="1268" data-units-per-em="1000" data-glyph-name="P" data-codepoint="80" fill="none" stroke="currentColor" stroke-width="50" stroke-linecap="round" stroke-linejoin="round">
  <path d="M127 343Q135 367 152.0 391.5Q169 416 191.0 437.0Q213 458 239.0 472.5Q265 487 290 490Q297 491 312 491Q393 491 435.5 443.5Q478 396 478 317Q478 282 469.5 249.5Q461 217 448 185Q418 111 363.0 54.0Q308 -3 230 -26Q203 -34 178 -34Q130 -34 100 -8Q51 33 38.5 95.5Q26 158 24 218Q26 158 38.5 95.5Q51 33 100 -8Q130 -34 178 -34Q203 -34 230 -26Q308 -3 363.0 54.0Q418 111 448 185Q461 217 469.5 249.5Q478 282 478 317Q478 396 435.5 443.5Q393 491 312 491Q297 491 290 490Q265 487 239.0 472.5Q213 458 191.0 437.0Q169 416 152.0 391.5Q135 367 127 343ZM148 751Q140 713 130.5 676.0Q121 639 112 601Q109 587 106.0 572.0Q103 557 100 543Q96 529 92.5 516.5Q89 504 86 491Q75 445 65.5 399.5Q56 354 45 308Q36 267 28.0 232.0Q20 197 6.5 167.0Q-7 137 -29.0 110.5Q-51 84 -89 62Q-51 84 -29.0 110.5Q-7 137 6.5 167.0Q20 197 28.0 232.0Q36 267 45 308Q56 354 65.5 399.5Q75 445 86 491Q89 504 92.5 516.5Q96 529 100 543Q103 557 106.0 572.0Q109 587 112 601Q121 639 130.5 676.0Q140 713 148 751Z"/>
</svg>
