<?xml version="1.0" encoding="UTF-8"?>
<svg xmlns="http://www.w3.org/2000/svg" width="880" height="1268" viewBox="0 0 880 1268" data-advance="880" data-ascent="750" data-descent="-518" data-vertical-extent="1268" data-units-per-em="1000" data-glyph-name="N" data-codepoint="78" fill="none" stroke="currentColor" stroke-width="50" stroke-linecap="round" stroke-linejoin="round">
  <path d="M-319 4Q-319 4 -306.5 -4.0Q-294 -12 -264 -12Q-264 -12 -250.5 -12.0Q-237 -12 -210.0 -1.0Q-183 10 -158.5 27.0Q-134 44 -113.0 66.0Q-92 88 -78 109Q-78 109 -70.0 121.0Q-62 133 -45.5 167.5Q-29 202 -13.5 240.0Q2 278 15.0 315.0Q28 352 37 380Q37 380 40.5 392.0Q44 404 50.0 428.5Q56 453 62 477Q62 477 65.0 489.0Q68 501 73.5 525.5Q79 550 83 574Q83 574 87.0 596.0Q91 618 97.0 661.0Q103 704 113 747H114Q114 747 114.0 748.0Q114 749 117 749Q117 749 119.0 749.0Q121 749 121 746Q121 746 122.0 737.0Q123 728 124.0 709.5Q125 691 127 673Q127 673 128.0 661.0Q129 649 131.0 625.0Q133 601 135 577Q135 577 137.5 546.5Q140 516 144.0 455.5Q148 395 153 334Q153 334 154.5 314.5Q156 295 160.0 256.0Q164 217 167 178Q167 178 167.0 175.0Q167 172 168.5 160.5Q170 149 171.5 136.5Q173 124 175.0 113.0Q177 102 180 98Q180 98 181.5 96.5Q183 95 187 95Q187 95 193.5 95.0Q200 95 203.0 111.5Q206 128 208 136Q208 136 209.0 142.0Q210 148 212.5 160.0Q215 172 218 185Q218 185 222.5 207.5Q227 230 243.5 278.0Q260 326 277 369Q277 369 287.5 394.5Q298 420 325.5 473.0Q353 526 388.5 573.5Q424 621 467.5 660.0Q511 699 563 724Q563 724 579.5 732.0Q596 740 632.5 746.5Q669 753 706 753Q706 753 717.0 753.0Q728 753 751.0 749.0Q774 745 794 735Q794 735 811.5 727.0Q829 719 847.5 687.5Q866 656 880 623"/>
</svg>
