<?xml version="1.0" encoding="UTF-8"?>
<svg xmlns="http://www.w3.org/2000/svg" width="698" height="1268" viewBox="0 0 698 1268" data-advance="698" data-ascent="750" data-descent="-518" data-vertical-extent="1268" data-units-per-em="1000" data-glyph-name="G" data-codepoint="71" fill="none" stroke="currentColor" stroke-width="50" stroke-linecap="round" stroke-linejoin="round">
  <path d="M370 152Q370 152 371.0 146.0Q372 140 372 136Q372 136 372.0 127.5Q372 119 367.0 103.5Q362 88 355 73Q355 73 346.5 53.5Q338 34 309.5 10.0Q281 -14 235 -14Q235 -14 212.5 -14.0Q190 -14 154.5 6.0Q119 26 93.0 58.0Q67 90 49.5 129.5Q32 169 21 207Q21 207 15.5 224.5Q10 242 4.0 277.5Q-2 313 -2 350Q-2 350 -2.0 369.5Q-2 389 0.0 426.5Q2 464 10 502Q10 502 15.0 525.0Q20 548 40.0 591.5Q60 635 90.0 669.0Q120 703 160.5 724.0Q201 745 253 745Q253 745 276.0 745.0Q299 745 340.0 723.5Q381 702 407 665Q407 665 424.5 639.5Q442 614 459.5 544.0Q477 474 477 413Q477 413 477.0 406.0Q477 399 475.5 367.0Q474 335 468.5 302.0Q463 269 452.0 244.0Q441 219 421 219Q421 219 415.5 219.0Q410 219 407.5 227.5Q405 236 405 245Q405 245 405.0 251.0Q405 257 407.5 270.0Q410 283 412 295Q412 295 426.5 375.0Q441 455 483.5 609.5Q526 764 568 921Q568 921 573.0 939.5Q578 958 587.0 995.0Q596 1032 606 1069Q606 1069 611.5 1088.0Q617 1107 626.5 1145.5Q636 1184 647 1223Q647 1223 648.5 1229.5Q650 1236 653.5 1249.5Q657 1263 657 1276Q657 1276 657.0 1297.0Q657 1318 614 1318Q614 1318 602.0 1318.0Q590 1318 563 1308Q563 1308 519.0 1289.5Q475 1271 420.0 1191.5Q365 1112 347 1021Q347 1021 345.0 1011.5Q343 1002 343 979V974Q343 974 345.5 939.0Q348 904 375.0 840.5Q402 777 446 723Q446 723 470.0 694.0Q494 665 548.5 618.0Q603 571 668 534"/>
</svg>
