<?xml version="1.0" encoding="UTF-8"?>
<svg xmlns="http://www.w3.org/2000/svg" width="933" height="1268" viewBox="0 0 933 1268" fill="none" stroke="currentColor" stroke-width="50" stroke-linecap="round" stroke-linejoin="round">
  <path d="M13 495Q24 512 35.5 526.0Q47 540 60 554Q94 591 134.5 625.5Q175 660 220.0 686.5Q265 713 315.0 729.0Q365 745 417 745Q442 745 466.5 741.5Q491 738 514 733Q711 689 758 487Q767 449 767 414Q767 305 726.0 207.5Q685 110 607 33Q574 0 539 -21Q465 -63 375 -63Q359 -63 341.5 -57.0Q324 -51 311 -42Q285 -23 275.5 14.0Q266 51 266 82Q266 121 276.0 154.5Q286 188 303 223Q371 366 496.5 436.5Q622 507 777 507Q837 507 890.5 492.0Q944 477 992 440Q944 477 890.5 492.0Q837 507 777 507Q622 507 496.5 436.5Q371 366 303 223Q286 188 276.0 154.5Q266 121 266 82Q266 51 275.5 14.0Q285 -23 311 -42Q324 -51 341.5 -57.0Q359 -63 375 -63Q465 -63 539 -21Q574 0 607 33Q685 110 726.0 207.5Q767 305 767 414Q767 449 758 487Q711 689 514 733Q491 738 466.5 741.5Q442 745 417 745Q365 745 315.0 729.0Q265 713 220.0 686.5Q175 660 134.5 625.5Q94 591 60 554Q47 540 35.5 526.0Q24 512 13 495Z"/>
</svg>
