<?xml version="1.0" encoding="UTF-8"?>
<svg xmlns="http://www.w3.org/2000/svg" width="574" height="1268" viewBox="0 0 574 1268" data-advance="574" data-ascent="750" data-descent="-518" data-vertical-extent="1268" data-units-per-em="1000" data-glyph-name="C" data-codepoint="67" fill="none" stroke="currentColor" stroke-width="50" stroke-linecap="round" stroke-linejoin="round">
  <path d="M319 319Q319 319 325.0 292.5Q331 266 331 211Q331 211 331.0 196.0Q331 181 323.5 141.5Q316 102 299.5 67.0Q283 32 257.0 7.5Q231 -17 193 -17Q193 -17 181.5 -17.0Q170 -17 147 -8Q147 -8 124.5 1.0Q102 10 72.5 50.5Q43 91 25.0 141.0Q7 191 -0.5 244.5Q-8 298 -8 340Q-8 340 -8.0 371.5Q-8 403 6.5 464.5Q21 526 53 582Q53 582 78.5 627.0Q104 672 176.5 712.5Q249 753 349 750Q349 750 388.5 749.0Q428 748 484.0 721.5Q540 695 572 623"/>
</svg>
