<?xml version="1.0" encoding="UTF-8"?>
<svg xmlns="http://www.w3.org/2000/svg" width="698" height="1268" viewBox="0 0 698 1268" fill="none" stroke="currentColor" stroke-width="50" stroke-linecap="round" stroke-linejoin="round">
  <path d="M668 534Q603 571 548.5 618.0Q494 665 446 723Q402 777 375.0 840.5Q348 904 343 974V979Q343 1002 347 1021Q365 1112 420.0 1191.5Q475 1271 563 1308Q590 1318 614 1318Q657 1318 657 1276Q657 1263 653.5 1249.5Q650 1236 647 1223Q636 1184 626.5 1145.5Q617 1107 606 1069Q596 1032 587.0 995.0Q578 958 568 921Q526 764 483.5 609.5Q441 455 412 295Q410 283 407.5 270.0Q405 257 405 245Q405 236 407.5 227.5Q410 219 421 219Q441 219 452.0 244.0Q463 269 468.5 302.0Q474 335 475.5 367.0Q477 399 477 413Q477 474 459.5 544.0Q442 614 407 665Q381 702 340.0 723.5Q299 745 253 745Q201 745 160.5 724.0Q120 703 90.0 669.0Q60 635 40.0 591.5Q20 548 10 502Q2 464 0.0 426.5Q-2 389 -2 350Q-2 313 4.0 277.5Q10 242 21 207Q32 169 49.5 129.5Q67 90 93.0 58.0Q119 26 154.5 6.0Q190 -14 235 -14Q281 -14 309.5 10.0Q338 34 355 73Q362 88 367.0 103.5Q372 119 372 136Q372 140 370 152Q372 140 372 136Q372 119 367.0 103.5Q362 88 355 73Q338 34 309.5 10.0Q281 -14 235 -14Q190 -14 154.5 6.0Q119 26 93.0 58.0Q67 90 49.5 129.5Q32 169 21 207Q10 242 4.0 277.5Q-2 313 -2 350Q-2 389 0.0 426.5Q2 464 10 502Q20 548 40.0 591.5Q60 635 90.0 669.0Q120 703 160.5 724.0Q201 745 253 745Q299 745 340.0 723.5Q381 702 407 665Q442 614 459.5 544.0Q477 474 477 413Q477 399 475.5 367.0Q474 335 468.5 302.0Q463 269 452.0 244.0Q441 219 421 219Q410 219 407.5 227.5Q405 236 405 245Q405 257 407.5 270.0Q410 283 412 295Q441 455 483.5 609.5Q526 764 568 921Q578 958 587.0 995.0Q596 1032 606 1069Q617 1107 626.5 1145.5Q636 1184 647 1223Q650 1236 653.5 1249.5Q657 1263 657 1276Q657 1318 614 1318Q590 1318 563 1308Q475 1271 420.0 1191.5Q365 1112 347 1021Q343 1002 343 979V974Q348 904 375.0 840.5Q402 777 446 723Q494 665 548.5 618.0Q603 571 668 534Z"/>
</svg>
