<?xml version="1.0" encoding="UTF-8"?>
<svg xmlns="http://www.w3.org/2000/svg" width="1202" height="1268" viewBox="0 0 1202 1268" data-advance="1202" data-ascent="750" data-descent="-518" data-vertical-extent="1268" data-units-per-em="1000" data-glyph-name="M" data-codepoint="77" fill="none" stroke="currentColor" stroke-width="50" stroke-linecap="round" stroke-linejoin="round">
  <path d="M-367 17Q-367 17 -347.0 3.5Q-327 -10 -284 -10Q-284 -10 -263.0 -10.0Q-242 -10 -207.0 9.0Q-172 28 -145 57Q-145 57 -119.5 85.0Q-94 113 -66.5 166.5Q-39 220 -14 290Q-14 290 -8.5 305.0Q-3 320 6.5 349.5Q16 379 24 410Q24 410 28.5 426.0Q33 442 42.0 474.0Q51 506 56 539Q56 539 60.0 566.0Q64 593 73.0 646.0Q82 699 88 753M69 622Q69 622 68.5 616.5Q68 611 68.0 602.0Q68 593 68 583Q68 583 68.0 564.0Q68 545 69.5 507.5Q71 470 73 433Q73 433 73.5 418.0Q74 403 74.5 352.0Q75 301 82.0 248.0Q89 195 104.5 149.0Q120 103 150 83Q150 83 154.0 80.5Q158 78 169.0 74.0Q180 70 188 70Q188 70 213.0 70.0Q238 70 271 107Q271 107 286.5 123.5Q302 140 329.5 204.5Q357 269 379.0 339.5Q401 410 416.5 474.0Q432 538 439 570Q439 570 442.5 584.5Q446 599 451.0 628.5Q456 658 461 687Q461 687 461.5 689.5Q462 692 463.5 702.5Q465 713 466.5 724.0Q468 735 470.0 744.0Q472 753 473 756Q473 756 473.5 758.0Q474 760 478 760Q478 760 481.5 760.0Q485 760 485.5 744.0Q486 728 487 724Q487 724 487.5 718.5Q488 713 488.5 703.5Q489 694 491 683Q491 683 491.5 677.0Q492 671 493.0 659.5Q494 648 496 636Q496 636 501.5 590.5Q507 545 520.0 455.0Q533 365 544 274Q544 274 545.0 267.0Q546 260 547.0 246.0Q548 232 550 218Q550 218 551.0 214.0Q552 210 554.5 196.5Q557 183 569 183Q569 183 572.0 183.0Q575 183 582.0 193.0Q589 203 595.5 216.0Q602 229 607.0 241.5Q612 254 614 259L636 322Q636 322 647.5 357.0Q659 392 697.0 468.5Q735 545 782 602Q782 602 793.0 615.0Q804 628 837.5 654.5Q871 681 901 697Q901 697 920.0 707.0Q939 717 979.0 728.5Q1019 740 1063 740Q1063 740 1089.0 736.0Q1115 732 1148.5 701.5Q1182 671 1202 623"/>
</svg>
