<?xml version="1.0" encoding="UTF-8"?>
<svg xmlns="http://www.w3.org/2000/svg" width="187" height="1268" viewBox="0 0 187 1268" fill="none" stroke="currentColor" stroke-width="50" stroke-linecap="round" stroke-linejoin="round">
  <path d="M57 510Q71 510 74.0 522.5Q77 535 77 546Q77 567 57 567Q46 567 43.0 556.5Q40 546 40 538Q40 529 43.0 519.5Q46 510 57 510Q46 510 43.0 519.5Q40 529 40 538Q40 546 43.0 556.5Q46 567 57 567Q77 567 77 546Q77 535 74.0 522.5Q71 510 57 510ZM91 694Q102 694 106.5 706.0Q111 718 111 726Q111 735 106.0 744.0Q101 753 90 753Q79 753 75.5 744.0Q72 735 72 726Q72 717 76.0 705.5Q80 694 91 694Q80 694 76.0 705.5Q72 717 72 726Q72 735 75.5 744.0Q79 753 90 753Q101 753 106.0 744.0Q111 735 111 726Q111 718 106.5 706.0Q102 694 91 694Z"/>
</svg>
