<?xml version="1.0" encoding="UTF-8"?>
<svg xmlns="http://www.w3.org/2000/svg" width="604" height="1268" viewBox="0 0 604 1268" fill="none" stroke="currentColor" stroke-width="50" stroke-linecap="round" stroke-linejoin="round">
  <path d="M144 599C132 566 111 533 72 533C19 533 -5 595 -5 640C-5 699 24 754 89 754C181 754 230 623 241 547C246 514 247 479 247 446C247 333 229 138 150 53C140 42 123 31 108 31C77 31 73 76 73 99C73 220 121 409 177 516L205 569C218 593 230 618 247 640C276 680 311 712 354 736C384 753 411 764 446 764C495 764 545 743 571 700C584 678 596 647 604 625"/>
</svg>
