<?xml version="1.0" encoding="UTF-8"?>
<svg xmlns="http://www.w3.org/2000/svg" width="604" height="1268" viewBox="0 0 604 1268" data-advance="604" data-ascent="750" data-descent="-518" data-vertical-extent="1268" data-units-per-em="1000" data-glyph-name="d" data-codepoint="100" fill="none" stroke="currentColor" stroke-width="50" stroke-linecap="round" stroke-linejoin="round">
  <path d="M144 599Q144 599 139.5 586.5Q135 574 118.0 553.5Q101 533 72 533Q72 533 62.0 533.0Q52 533 37.5 543.5Q23 554 13.5 569.5Q4 585 -0.5 604.0Q-5 623 -5 640Q-5 640 -5.0 662.5Q-5 685 17.5 719.5Q40 754 89 754Q89 754 106.5 754.0Q124 754 150.5 732.5Q177 711 195.5 679.0Q214 647 225.5 611.0Q237 575 241 547Q241 547 243.0 534.5Q245 522 246.0 496.5Q247 471 247 446Q247 446 247.0 425.0Q247 404 243.0 349.0Q239 294 228.0 239.0Q217 184 198.5 134.5Q180 85 150 53Q150 53 146.0 49.0Q142 45 130.5 38.0Q119 31 108 31Q108 31 102.0 31.0Q96 31 89.5 38.5Q83 46 79.0 56.5Q75 67 74.0 78.5Q73 90 73 99Q73 99 73.0 121.5Q73 144 81.5 200.0Q90 256 104.0 313.0Q118 370 137.0 423.0Q156 476 177 516L205 569Q205 569 210.0 578.0Q215 587 224.5 605.0Q234 623 247 640Q247 640 269.0 670.5Q291 701 354 736Q354 736 365.5 742.5Q377 749 398.5 756.5Q420 764 446 764Q446 764 464.5 764.0Q483 764 517.0 748.0Q551 732 571 700Q571 700 576.0 691.5Q581 683 589.5 662.5Q598 642 604 625"/>
</svg>
