<?xml version="1.0" encoding="UTF-8"?>
<svg xmlns="http://www.w3.org/2000/svg" width="604" height="1268" viewBox="0 0 604 1268" data-advance="604" data-ascent="750" data-descent="-518" data-vertical-extent="1268" data-units-per-em="1000" data-glyph-name="d" data-codepoint="100" fill="none" stroke="currentColor" stroke-width="50" stroke-linecap="round" stroke-linejoin="round">
  <path d="M604 625Q598 642 589.5 662.5Q581 683 571 700Q551 732 517.0 748.0Q483 764 446 764Q420 764 398.5 756.5Q377 749 354 736Q291 701 247 640Q234 623 224.5 605.0Q215 587 205 569L177 516Q156 476 137.0 423.0Q118 370 104.0 313.0Q90 256 81.5 200.0Q73 144 73 99Q73 90 74.0 78.5Q75 67 79.0 56.5Q83 46 89.5 38.5Q96 31 108 31Q119 31 130.5 38.0Q142 45 150 53Q180 85 198.5 134.5Q217 184 228.0 239.0Q239 294 243.0 349.0Q247 404 247 446Q247 471 246.0 496.5Q245 522 241 547Q237 575 225.5 611.0Q214 647 195.5 679.0Q177 711 150.5 732.5Q124 754 89 754Q40 754 17.5 719.5Q-5 685 -5 640Q-5 623 -0.5 604.0Q4 585 13.5 569.5Q23 554 37.5 543.5Q52 533 72 533Q101 533 118.0 553.5Q135 574 144 599Q135 574 118.0 553.5Q101 533 72 533Q52 533 37.5 543.5Q23 554 13.5 569.5Q4 585 -0.5 604.0Q-5 623 -5 640Q-5 685 17.5 719.5Q40 754 89 754Q124 754 150.5 732.5Q177 711 195.5 679.0Q214 647 225.5 611.0Q237 575 241 547Q245 522 246.0 496.5Q247 471 247 446Q247 404 243.0 349.0Q239 294 228.0 239.0Q217 184 198.5 134.5Q180 85 150 53Q142 45 130.5 38.0Q119 31 108 31Q96 31 89.5 38.5Q83 46 79.0 56.5Q75 67 74.0 78.5Q73 90 73 99Q73 144 81.5 200.0Q90 256 104.0 313.0Q118 370 137.0 423.0Q156 476 177 516L205 569Q215 587 224.5 605.0Q234 623 247 640Q291 701 354 736Q377 749 398.5 756.5Q420 764 446 764Q483 764 517.0 748.0Q551 732 571 700Q581 683 589.5 662.5Q598 642 604 625Z"/>
</svg>
