<?xml version="1.0" encoding="UTF-8"?>
<svg xmlns="http://www.w3.org/2000/svg" width="324" height="1268" viewBox="0 0 324 1268" data-advance="324" data-ascent="750" data-descent="-518" data-vertical-extent="1268" data-units-per-em="1000" data-glyph-name="dollar" data-codepoint="36" fill="none" stroke="currentColor" stroke-width="50" stroke-linecap="round" stroke-linejoin="round">
  <path d="M-7 457Q-3 487 10.0 524.0Q23 561 44.5 593.0Q66 625 95.5 647.0Q125 669 161 669Q196 669 218.5 647.0Q241 625 241 589Q241 552 224 515Q217 499 209.5 484.5Q202 470 191 456Q168 428 142.5 403.5Q117 379 90 356Q68 337 43.5 315.5Q19 294 5 267Q-4 248 -4 221Q-4 207 1.0 191.0Q6 175 14 164Q33 134 75 134Q95 134 112.0 141.0Q129 148 146 158Q172 174 184.0 195.5Q196 217 201 246Q202 250 202 255Q202 268 198 276Q202 268 202 255Q202 250 201 246Q196 217 184.0 195.5Q172 174 146 158Q129 148 112.0 141.0Q95 134 75 134Q33 134 14 164Q6 175 1.0 191.0Q-4 207 -4 221Q-4 248 5 267Q19 294 43.5 315.5Q68 337 90 356Q117 379 142.5 403.5Q168 428 191 456Q202 470 209.5 484.5Q217 499 224 515Q241 552 241 589Q241 625 218.5 647.0Q196 669 161 669Q125 669 95.5 647.0Q66 625 44.5 593.0Q23 561 10.0 524.0Q-3 487 -7 457ZM168 755Q167 718 162.0 681.5Q157 645 151 607Q148 588 145.0 568.0Q142 548 138 528Q134 505 130.5 481.0Q127 457 124 433Q116 386 107.0 340.5Q98 295 88 249Q77 194 68.0 140.0Q59 86 42 32Q59 86 68.0 140.0Q77 194 88 249Q98 295 107.0 340.5Q116 386 124 433Q127 457 130.5 481.0Q134 505 138 528Q142 548 145.0 568.0Q148 588 151 607Q157 645 162.0 681.5Q167 718 168 755Z"/>
</svg>
