<?xml version="1.0" encoding="UTF-8"?>
<svg xmlns="http://www.w3.org/2000/svg" width="324" height="1268" viewBox="0 0 324 1268" fill="none" stroke="currentColor" stroke-width="50" stroke-linecap="round" stroke-linejoin="round">
  <path d="M-7 457C3 537 65 669 161 669C208 669 241 637 241 589C241 562 235 539 224 515C215 494 206 474 191 456C161 419 126 387 90 356C61 331 23 303 5 267C-2 252 -4 236 -4 221C-4 202 4 179 14 164C28 142 49 134 75 134C101 134 124 145 146 158C180 179 194 208 201 246C202 250 202 252 202 255C202 262 201 270 198 276M168 755C167 706 159 657 151 607C147 582 143 555 138 528C133 497 128 465 124 433C114 371 101 310 88 249C74 176 64 103 42 32"/>
</svg>
