<?xml version="1.0" encoding="UTF-8"?>
<svg xmlns="http://www.w3.org/2000/svg" width="203" height="1268" viewBox="0 0 203 1268" data-advance="203" data-ascent="750" data-descent="-518" data-vertical-extent="1268" data-units-per-em="1000" data-glyph-name="exclam" data-codepoint="33" fill="none" stroke="currentColor" stroke-width="50" stroke-linecap="round" stroke-linejoin="round">
  <path d="M84 705Q87 705 89 706Q98 704 101.5 716.5Q105 729 105 735Q105 742 101.5 753.0Q98 764 88 764Q76 764 72.5 747.0Q69 730 69 721Q69 705 84 705Q69 705 69 721Q69 730 72.5 747.0Q76 764 88 764Q98 764 101.5 753.0Q105 742 105 735Q105 729 101.5 716.5Q98 704 89 706Q87 705 84 705ZM77 636Q79 624 79 618Q79 616 78.5 614.5Q78 613 78 611Q76 588 73.5 564.0Q71 540 69 517Q62 454 52.5 392.5Q43 331 35 269Q26 204 18.5 141.0Q11 78 -4 15Q11 78 18.5 141.0Q26 204 35 269Q43 331 52.5 392.5Q62 454 69 517Q71 540 73.5 564.0Q76 588 78 611Q78 613 78.5 614.5Q79 616 79 618Q79 624 77 636Z"/>
</svg>
