<?xml version="1.0" encoding="UTF-8"?>
<svg xmlns="http://www.w3.org/2000/svg" width="405" height="1268" viewBox="0 0 405 1268" fill="none" stroke="currentColor" stroke-width="50" stroke-linecap="round" stroke-linejoin="round">
  <path d="M-12 632C22 549 33 438 33 348C33 281 27 94 -38 60C-43 57 -48 56 -52 56C-84 56 -87 121 -87 154C-87 245 -68 392 -45 491L-25 577C-16 615 -9 655 20 753C49 851 92 1012 174 1132C204 1176 236 1210 272 1210C310 1210 320 1171 320 1133C320 1006 214 827 124 728C111 714 95 697 86 689C66 669 24 634 8 634C3 634 -3 638 -3 643C-3 652 20 670 32 680C86 725 163 760 241 760C313 760 369 730 395 659C398 650 401 641 405 631"/>
</svg>
