<?xml version="1.0" encoding="UTF-8"?>
<svg xmlns="http://www.w3.org/2000/svg" width="405" height="1268" viewBox="0 0 405 1268" fill="none" stroke="currentColor" stroke-width="50" stroke-linecap="round" stroke-linejoin="round">
  <path d="M405 631Q402 639 399.5 645.5Q397 652 395 659Q375 713 335.0 736.5Q295 760 241 760Q182 760 127.5 737.0Q73 714 32 680Q23 672 10.0 661.0Q-3 650 -3 643Q-3 634 8 634Q20 634 45.5 654.0Q71 674 86 689Q93 695 103.5 706.0Q114 717 124 728Q158 765 192.5 815.0Q227 865 255.5 920.0Q284 975 302.0 1030.0Q320 1085 320 1133Q320 1162 310.5 1186.0Q301 1210 272 1210Q245 1210 221.0 1187.5Q197 1165 174 1132Q143 1087 119.5 1036.0Q96 985 77.5 934.5Q59 884 45.0 837.0Q31 790 20 753Q-2 679 -10.0 642.5Q-18 606 -25 577L-45 491Q-54 454 -61.5 409.5Q-69 365 -74.5 319.5Q-80 274 -83.5 231.0Q-87 188 -87 154Q-87 142 -86.0 125.0Q-85 108 -81.5 92.5Q-78 77 -71.0 66.5Q-64 56 -52 56Q-45 56 -38 60Q-14 73 0.5 110.0Q15 147 22.0 191.5Q29 236 31.0 279.5Q33 323 33 348Q33 416 23.5 492.5Q14 569 -12 632Q14 569 23.5 492.5Q33 416 33 348Q33 323 31.0 279.5Q29 236 22.0 191.5Q15 147 0.5 110.0Q-14 73 -38 60Q-45 56 -52 56Q-64 56 -71.0 66.5Q-78 77 -81.5 92.5Q-85 108 -86.0 125.0Q-87 142 -87 154Q-87 188 -83.5 231.0Q-80 274 -74.5 319.5Q-69 365 -61.5 409.5Q-54 454 -45 491L-25 577Q-18 606 -10.0 642.5Q-2 679 20 753Q31 790 45.0 837.0Q59 884 77.5 934.5Q96 985 119.5 1036.0Q143 1087 174 1132Q197 1165 221.0 1187.5Q245 1210 272 1210Q301 1210 310.5 1186.0Q320 1162 320 1133Q320 1085 302.0 1030.0Q284 975 255.5 920.0Q227 865 192.5 815.0Q158 765 124 728Q114 717 103.5 706.0Q93 695 86 689Q71 674 45.5 654.0Q20 634 8 634Q-3 634 -3 643Q-3 650 10.0 661.0Q23 672 32 680Q73 714 127.5 737.0Q182 760 241 760Q295 760 335.0 736.5Q375 713 395 659Q397 652 399.5 645.5Q402 639 405 631Z"/>
</svg>
