<?xml version="1.0" encoding="UTF-8"?>
<svg xmlns="http://www.w3.org/2000/svg" width="411" height="1268" viewBox="0 0 411 1268" fill="none" stroke="currentColor" stroke-width="50" stroke-linecap="round" stroke-linejoin="round">
  <path d="M176 521Q178 536 180.0 551.0Q182 566 182 581Q182 610 173.0 653.0Q164 696 149 721Q131 751 97 751Q80 751 66 744Q28 727 13.0 690.5Q-2 654 -2 615Q-2 580 16.0 548.0Q34 516 74 516Q98 516 112.5 530.0Q127 544 132 567Q127 544 112.5 530.0Q98 516 74 516Q34 516 16.0 548.0Q-2 580 -2 615Q-2 654 13.0 690.5Q28 727 66 744Q80 751 97 751Q131 751 149 721Q164 696 173.0 653.0Q182 610 182 581Q182 566 180.0 551.0Q178 536 176 521ZM411 632Q398 673 375 703Q342 746 285.0 773.5Q228 801 172.5 826.5Q117 852 76.0 883.5Q35 915 35 966Q35 990 45.0 1014.0Q55 1038 66 1059Q95 1114 133.5 1165.0Q172 1216 225 1249Q236 1256 251.0 1263.0Q266 1270 279 1270Q302 1270 310.5 1257.0Q319 1244 319 1223Q319 1198 311.0 1163.0Q303 1128 298 1103Q290 1065 282.5 1028.0Q275 991 267 955Q244 858 219.5 763.0Q195 668 182 569Q195 668 219.5 763.0Q244 858 267 955Q275 991 282.5 1028.0Q290 1065 298 1103Q303 1128 311.0 1163.0Q319 1198 319 1223Q319 1244 310.5 1257.0Q302 1270 279 1270Q266 1270 251.0 1263.0Q236 1256 225 1249Q172 1216 133.5 1165.0Q95 1114 66 1059Q55 1038 45.0 1014.0Q35 990 35 966Q35 915 76.0 883.5Q117 852 172.5 826.5Q228 801 285.0 773.5Q342 746 375 703Q398 673 411 632Z"/>
</svg>
