<?xml version="1.0" encoding="UTF-8"?>
<svg xmlns="http://www.w3.org/2000/svg" width="411" height="1268" viewBox="0 0 411 1268" fill="none" stroke="currentColor" stroke-width="50" stroke-linecap="round" stroke-linejoin="round">
  <path d="M176 521C179 541 182 561 182 581C182 619 169 688 149 721C138 739 119 751 97 751C86 751 76 749 66 744C16 722 -2 667 -2 615C-2 568 21 516 74 516C106 516 126 537 132 567M411 632C403 657 391 682 375 703C288 819 35 829 35 966C35 998 52 1031 66 1059C104 1132 155 1205 225 1249C239 1258 262 1270 279 1270C309 1270 319 1251 319 1223C319 1190 305 1136 298 1103C288 1053 278 1003 267 955C236 827 199 700 182 569"/>
</svg>
