<?xml version="1.0" encoding="UTF-8"?>
<svg xmlns="http://www.w3.org/2000/svg" width="535" height="1268" viewBox="0 0 535 1268" data-advance="535" data-ascent="750" data-descent="-518" data-vertical-extent="1268" data-units-per-em="1000" data-glyph-name="h" data-codepoint="104" fill="none" stroke="currentColor" stroke-width="50" stroke-linecap="round" stroke-linejoin="round">
  <path d="M535 632Q512 697 476.0 729.0Q440 761 368 761Q321 761 279 735Q240 710 221.0 669.5Q202 629 182 590Q180 585 175.0 578.0Q170 571 165 571H164Q157 571 144.0 598.0Q131 625 117.0 657.0Q103 689 88.0 716.0Q73 743 61 743Q55 743 50 737Q33 717 20.5 687.5Q8 658 -1.5 625.0Q-11 592 -17.5 559.0Q-24 526 -30 501Q-42 445 -53.5 389.5Q-65 334 -71 276Q-75 244 -76.0 212.5Q-77 181 -77 149Q-77 132 -75.0 107.0Q-73 82 -65.5 59.0Q-58 36 -44.0 19.5Q-30 3 -7 3Q20 3 35.5 26.0Q51 49 59.0 80.0Q67 111 69.0 143.0Q71 175 71 194Q71 242 67.0 300.0Q63 358 54.5 417.0Q46 476 32.5 531.5Q19 587 0 632Q19 587 32.5 531.5Q46 476 54.5 417.0Q63 358 67.0 300.0Q71 242 71 194Q71 175 69.0 143.0Q67 111 59.0 80.0Q51 49 35.5 26.0Q20 3 -7 3Q-30 3 -44.0 19.5Q-58 36 -65.5 59.0Q-73 82 -75.0 107.0Q-77 132 -77 149Q-77 181 -76.0 212.5Q-75 244 -71 276Q-65 334 -53.5 389.5Q-42 445 -30 501Q-24 526 -17.5 559.0Q-11 592 -1.5 625.0Q8 658 20.5 687.5Q33 717 50 737Q55 743 61 743Q73 743 88.0 716.0Q103 689 117.0 657.0Q131 625 144.0 598.0Q157 571 164 571H165Q170 571 175.0 578.0Q180 585 182 590Q202 629 221.0 669.5Q240 710 279 735Q321 761 368 761Q440 761 476.0 729.0Q512 697 535 632Z"/>
</svg>
