<?xml version="1.0" encoding="UTF-8"?>
<svg xmlns="http://www.w3.org/2000/svg" width="535" height="1268" viewBox="0 0 535 1268" fill="none" stroke="currentColor" stroke-width="50" stroke-linecap="round" stroke-linejoin="round">
  <path d="M0 632C50 513 71 323 71 194C71 144 65 3 -7 3C-69 3 -77 104 -77 149C-77 192 -76 234 -71 276C-63 353 -46 427 -30 501C-15 569 4 685 50 737C53 741 56 743 61 743C93 743 144 571 164 571H165C172 571 179 584 182 590C208 642 227 702 279 735C305 751 337 761 368 761C463 761 504 718 535 632"/>
</svg>
