<?xml version="1.0" encoding="UTF-8"?>
<svg xmlns="http://www.w3.org/2000/svg" width="391" height="1268" viewBox="0 0 391 1268" fill="none" stroke="currentColor" stroke-width="50" stroke-linecap="round" stroke-linejoin="round">
  <path d="M391 631Q379 661 369 683Q349 723 311.5 742.5Q274 762 229 762Q172 762 136.5 732.5Q101 703 75 655Q64 634 55.5 608.0Q47 582 45 559Q44 551 44.0 537.5Q44 524 33 524Q31 524 29.0 527.0Q27 530 27 532Q24 549 22.0 560.5Q20 572 17.5 582.0Q15 592 11.0 603.0Q7 614 0 632Q7 614 11.0 603.0Q15 592 17.5 582.0Q20 572 22.0 560.5Q24 549 27 532Q27 530 29.0 527.0Q31 524 33 524Q44 524 44.0 537.5Q44 551 45 559Q47 582 55.5 608.0Q64 634 75 655Q101 703 136.5 732.5Q172 762 229 762Q274 762 311.5 742.5Q349 723 369 683Q379 661 391 631ZM32 321Q43 321 47.0 331.0Q51 341 51 350Q51 358 46.5 368.0Q42 378 31 378Q20 378 16.5 365.5Q13 353 13 345Q13 337 17.5 329.0Q22 321 32 321Q22 321 17.5 329.0Q13 337 13 345Q13 353 16.5 365.5Q20 378 31 378Q42 378 46.5 368.0Q51 358 51 350Q51 341 47.0 331.0Q43 321 32 321Z"/>
</svg>
