<?xml version="1.0" encoding="UTF-8"?>
<svg xmlns="http://www.w3.org/2000/svg" width="391" height="1268" viewBox="0 0 391 1268" fill="none" stroke="currentColor" stroke-width="50" stroke-linecap="round" stroke-linejoin="round">
  <path d="M0 632C18 585 20 578 27 532C27 530 30 524 33 524C47 524 44 549 45 559C48 590 60 627 75 655C109 718 154 762 229 762C288 762 342 736 369 683C377 666 384 649 391 631M32 321C19 321 13 334 13 345C13 355 17 378 31 378C45 378 51 361 51 350C51 338 46 321 32 321Z"/>
</svg>
