<?xml version="1.0" encoding="UTF-8"?>
<svg xmlns="http://www.w3.org/2000/svg" width="272" height="1268" viewBox="0 0 272 1268" fill="none" stroke="currentColor" stroke-width="50" stroke-linecap="round" stroke-linejoin="round">
  <path d="M-5 321C10 321 14 338 14 350C14 361 8 378 -6 378C-20 378 -23 355 -23 345C-23 334 -18 321 -5 321ZM272 632C262 658 251 683 231 703C138 800 -62 840 -62 1002C-62 1093 -23 1174 53 1225C69 1236 86 1242 106 1242C146 1242 154 1205 154 1172C154 1101 131 1033 118 964C99 870 76 777 57 683C51 654 45 626 42 598C40 577 41 554 37 533C36 528 33 525 28 525C22 525 21 528 21 532C19 539 19 545 18 552C14 579 7 606 -4 632"/>
</svg>
