<?xml version="1.0" encoding="UTF-8"?>
<svg xmlns="http://www.w3.org/2000/svg" width="272" height="1268" viewBox="0 0 272 1268" fill="none" stroke="currentColor" stroke-width="50" stroke-linecap="round" stroke-linejoin="round">
  <path d="M-5 321Q6 321 10.0 331.0Q14 341 14 350Q14 358 9.5 368.0Q5 378 -6 378Q-17 378 -20.0 365.5Q-23 353 -23 345Q-23 337 -19.0 329.0Q-15 321 -5 321Q-15 321 -19.0 329.0Q-23 337 -23 345Q-23 353 -20.0 365.5Q-17 378 -6 378Q5 378 9.5 368.0Q14 358 14 350Q14 341 10.0 331.0Q6 321 -5 321ZM272 632Q264 652 255.0 670.0Q246 688 231 703Q196 739 146.0 767.5Q96 796 49.5 828.0Q3 860 -29.5 900.5Q-62 941 -62 1002Q-62 1071 -33.0 1129.0Q-4 1187 53 1225Q78 1242 106 1242Q136 1242 145.0 1219.5Q154 1197 154 1172Q154 1118 141.0 1067.0Q128 1016 118 964Q104 893 87.5 823.5Q71 754 57 683Q52 661 48.0 640.0Q44 619 42 598Q40 582 40.0 565.5Q40 549 37 533Q35 525 28 525Q21 525 21 532Q19 537 19.0 542.0Q19 547 18 552Q12 595 -4 632Q12 595 18 552Q19 547 19.0 542.0Q19 537 21 532Q21 525 28 525Q35 525 37 533Q40 549 40.0 565.5Q40 582 42 598Q44 619 48.0 640.0Q52 661 57 683Q71 754 87.5 823.5Q104 893 118 964Q128 1016 141.0 1067.0Q154 1118 154 1172Q154 1197 145.0 1219.5Q136 1242 106 1242Q78 1242 53 1225Q-4 1187 -33.0 1129.0Q-62 1071 -62 1002Q-62 941 -29.5 900.5Q3 860 49.5 828.0Q96 796 146.0 767.5Q196 739 231 703Q246 688 255.0 670.0Q264 652 272 632Z"/>
</svg>
