<?xml version="1.0" encoding="UTF-8"?>
<svg xmlns="http://www.w3.org/2000/svg" width="453" height="1268" viewBox="0 0 453 1268" fill="none" stroke="currentColor" stroke-width="50" stroke-linecap="round" stroke-linejoin="round">
  <path d="M453 631 438 669Q418 716 380.5 738.0Q343 760 293 760Q215 760 162.0 709.5Q109 659 109 579Q109 576 110.0 567.5Q111 559 112.5 550.5Q114 542 117.5 535.5Q121 529 125 529Q131 529 132 532Q141 555 147.0 575.0Q153 595 176 611Q189 620 200 620Q208 620 215.0 617.0Q222 614 229 610Q252 578 252 535Q252 527 251.5 518.5Q251 510 250 502Q249 489 243.5 472.5Q238 456 228.5 441.5Q219 427 206.0 417.0Q193 407 178 407Q158 407 148.0 411.5Q138 416 124 429Q100 449 84.5 480.0Q69 511 60.0 545.5Q51 580 47.5 615.5Q44 651 44 681Q44 689 44.5 698.0Q45 707 45 715Q45 719 41.5 724.5Q38 730 33 730Q29 730 25 723Q22 715 20.0 706.0Q18 697 16 689L-26 532Q-52 436 -73.5 340.0Q-95 244 -95 144Q-95 120 -94.5 96.0Q-94 72 -89 48Q-84 20 -66.0 -6.5Q-48 -33 -16 -33Q22 -33 36.5 -4.5Q51 24 55 56Q58 89 58.5 121.5Q59 154 59 187Q59 302 46.0 410.0Q33 518 0 630Q33 518 46.0 410.0Q59 302 59 187Q59 154 58.5 121.5Q58 89 55 56Q51 24 36.5 -4.5Q22 -33 -16 -33Q-48 -33 -66.0 -6.5Q-84 20 -89 48Q-94 72 -94.5 96.0Q-95 120 -95 144Q-95 244 -73.5 340.0Q-52 436 -26 532L16 689Q18 697 20.0 706.0Q22 715 25 723Q29 730 33 730Q38 730 41.5 724.5Q45 719 45 715Q45 707 44.5 698.0Q44 689 44 681Q44 651 47.5 615.5Q51 580 60.0 545.5Q69 511 84.5 480.0Q100 449 124 429Q138 416 148.0 411.5Q158 407 178 407Q193 407 206.0 417.0Q219 427 228.5 441.5Q238 456 243.5 472.5Q249 489 250 502Q251 510 251.5 518.5Q252 527 252 535Q252 578 229 610Q222 614 215.0 617.0Q208 620 200 620Q189 620 176 611Q153 595 147.0 575.0Q141 555 132 532Q131 529 125 529Q121 529 117.5 535.5Q114 542 112.5 550.5Q111 559 110.0 567.5Q109 576 109 579Q109 659 162.0 709.5Q215 760 293 760Q343 760 380.5 738.0Q418 716 438 669"/>
</svg>
