<?xml version="1.0" encoding="UTF-8"?>
<svg xmlns="http://www.w3.org/2000/svg" width="453" height="1268" viewBox="0 0 453 1268" fill="none" stroke="currentColor" stroke-width="50" stroke-linecap="round" stroke-linejoin="round">
  <path d="M0 630C44 482 59 340 59 187C59 143 59 100 55 56C50 14 35 -33 -16 -33C-59 -33 -82 11 -89 48C-96 80 -95 112 -95 144C-95 276 -61 405 -26 532L16 689C19 700 21 712 25 723C27 727 29 730 33 730C40 730 45 720 45 715C45 704 44 692 44 681C44 602 61 483 124 429C143 412 152 407 178 407C219 407 248 467 250 502C251 513 252 524 252 535C252 562 245 588 229 610C220 615 210 620 200 620C191 620 183 616 176 611C145 590 144 563 132 532C131 530 128 529 125 529C113 529 109 570 109 579C109 685 189 760 293 760C359 760 412 731 438 669L453 631"/>
</svg>
