<?xml version="1.0" encoding="UTF-8"?>
<svg xmlns="http://www.w3.org/2000/svg" width="453" height="1268" viewBox="0 0 453 1268" data-advance="453" data-ascent="750" data-descent="-518" data-vertical-extent="1268" data-units-per-em="1000" data-glyph-name="k" data-codepoint="107" fill="none" stroke="currentColor" stroke-width="50" stroke-linecap="round" stroke-linejoin="round">
  <path d="M59 187Q59 187 59.0 170.5Q59 154 58.5 121.5Q58 89 55 56Q55 56 53.0 40.0Q51 24 36.5 -4.5Q22 -33 -16 -33Q-16 -33 -32.0 -33.0Q-48 -33 -66.0 -6.5Q-84 20 -89 48Q-89 48 -91.5 60.0Q-94 72 -94.5 96.0Q-95 120 -95 144Q-95 144 -95.0 194.0Q-95 244 -73.5 340.0Q-52 436 -26 532L16 689Q16 689 17.0 693.0Q18 697 20.0 706.0Q22 715 25 723Q25 723 27.0 726.5Q29 730 33 730Q33 730 35.5 730.0Q38 730 41.5 724.5Q45 719 45 715Q45 715 45.0 711.0Q45 707 44.5 698.0Q44 689 44 681Q44 681 44.0 666.0Q44 651 47.5 615.5Q51 580 60.0 545.5Q69 511 84.5 480.0Q100 449 124 429Q124 429 131.0 422.5Q138 416 148.0 411.5Q158 407 178 407Q178 407 185.5 407.0Q193 407 206.0 417.0Q219 427 228.5 441.5Q238 456 243.5 472.5Q249 489 250 502Q250 502 250.5 506.0Q251 510 251.5 518.5Q252 527 252 535Q252 535 252.0 556.5Q252 578 229 610Q229 610 225.5 612.0Q222 614 215.0 617.0Q208 620 200 620Q200 620 194.5 620.0Q189 620 176 611Q176 611 164.5 603.0Q153 595 147.0 575.0Q141 555 132 532Q132 532 131.5 530.5Q131 529 125 529Q125 529 123.0 529.0Q121 529 117.5 535.5Q114 542 112.5 550.5Q111 559 110.0 567.5Q109 576 109 579Q109 579 109.0 619.0Q109 659 162.0 709.5Q215 760 293 760Q293 760 318.0 760.0Q343 760 380.5 738.0Q418 716 438 669L453 631"/>
</svg>
