<?xml version="1.0" encoding="UTF-8"?>
<svg xmlns="http://www.w3.org/2000/svg" width="396" height="1268" viewBox="0 0 396 1268" fill="none" stroke="currentColor" stroke-width="50" stroke-linecap="round" stroke-linejoin="round">
  <path d="M398 631Q393 642 388.5 652.0Q384 662 379 673Q360 715 324.0 739.5Q288 764 243 764Q222 764 202.0 758.5Q182 753 163 745Q141 735 116.5 714.0Q92 693 71.0 670.5Q50 648 35.0 629.5Q20 611 17 606Q-40 522 -61.5 420.0Q-83 318 -83 216Q-83 197 -79.5 159.5Q-76 122 -67.0 85.0Q-58 48 -41.0 20.0Q-24 -8 3 -8Q12 -8 20.0 -3.5Q28 1 36 6Q53 19 63.0 60.0Q73 101 77.5 148.5Q82 196 82.0 241.0Q82 286 79 308Q66 398 47.0 470.0Q28 542 0 625Q28 542 47.0 470.0Q66 398 79 308Q82 286 82.0 241.0Q82 196 77.5 148.5Q73 101 63.0 60.0Q53 19 36 6Q28 1 20.0 -3.5Q12 -8 3 -8Q-24 -8 -41.0 20.0Q-58 48 -67.0 85.0Q-76 122 -79.5 159.5Q-83 197 -83 216Q-83 318 -61.5 420.0Q-40 522 17 606Q20 611 35.0 629.5Q50 648 71.0 670.5Q92 693 116.5 714.0Q141 735 163 745Q182 753 202.0 758.5Q222 764 243 764Q288 764 324.0 739.5Q360 715 379 673Q384 662 388.5 652.0Q393 642 398 631Z"/>
</svg>
