<?xml version="1.0" encoding="UTF-8"?>
<svg xmlns="http://www.w3.org/2000/svg" width="396" height="1268" viewBox="0 0 396 1268" data-advance="396" data-ascent="750" data-descent="-518" data-vertical-extent="1268" data-units-per-em="1000" data-glyph-name="l" data-codepoint="108" fill="none" stroke="currentColor" stroke-width="50" stroke-linecap="round" stroke-linejoin="round">
  <path d="M0 625Q0 625 14.0 583.5Q28 542 47.0 470.0Q66 398 79 308Q79 308 80.5 297.0Q82 286 82.0 241.0Q82 196 77.5 148.5Q73 101 63.0 60.0Q53 19 36 6Q36 6 32.0 3.5Q28 1 20.0 -3.5Q12 -8 3 -8Q3 -8 -10.5 -8.0Q-24 -8 -41.0 20.0Q-58 48 -67.0 85.0Q-76 122 -79.5 159.5Q-83 197 -83 216Q-83 216 -83.0 267.0Q-83 318 -61.5 420.0Q-40 522 17 606Q17 606 18.5 608.5Q20 611 35.0 629.5Q50 648 71.0 670.5Q92 693 116.5 714.0Q141 735 163 745Q163 745 172.5 749.0Q182 753 202.0 758.5Q222 764 243 764Q243 764 265.5 764.0Q288 764 324.0 739.5Q360 715 379 673Q379 673 381.5 667.5Q384 662 388.5 652.0Q393 642 398 631"/>
</svg>
