<?xml version="1.0" encoding="UTF-8"?>
<svg xmlns="http://www.w3.org/2000/svg" width="325" height="1268" viewBox="0 0 325 1268" fill="none" stroke="currentColor" stroke-width="50" stroke-linecap="round" stroke-linejoin="round">
  <path d="M160 -92C67 -92 7 -47 7 50C7 86 17 118 25 153C29 171 31 188 35 206C39 220 43 234 46 249C49 263 51 279 53 293C53 296 53 299 53 301C53 327 51 349 28 365C19 371 12 371 1 373C15 379 29 398 38 411C82 474 82 519 82 594C82 682 87 772 166 828C210 860 262 880 315 894"/>
</svg>
