<?xml version="1.0" encoding="UTF-8"?>
<svg xmlns="http://www.w3.org/2000/svg" width="351" height="1268" viewBox="0 0 351 1268" data-advance="351" data-ascent="750" data-descent="-518" data-vertical-extent="1268" data-units-per-em="1000" data-glyph-name="bracketleft" data-codepoint="91" fill="none" stroke="currentColor" stroke-width="50" stroke-linecap="round" stroke-linejoin="round">
  <path d="M391 803Q343 780 292.0 768.5Q241 757 188 757Q176 757 164.5 756.5Q153 756 142 757Q143 751 143.0 744.5Q143 738 143 732Q143 720 142.5 708.5Q142 697 141 685Q136 616 125.0 531.5Q114 447 94.5 362.0Q75 277 46.5 198.5Q18 120 -22 62Q-12 64 -3.0 64.0Q6 64 16 64Q69 64 119.5 52.5Q170 41 218 16Q170 41 119.5 52.5Q69 64 16 64Q6 64 -3.0 64.0Q-12 64 -22 62Q18 120 46.5 198.5Q75 277 94.5 362.0Q114 447 125.0 531.5Q136 616 141 685Q142 697 142.5 708.5Q143 720 143 732Q143 738 143.0 744.5Q143 751 142 757Q153 756 164.5 756.5Q176 757 188 757Q241 757 292.0 768.5Q343 780 391 803Z"/>
</svg>
