<?xml version="1.0" encoding="UTF-8"?>
<svg xmlns="http://www.w3.org/2000/svg" width="325" height="1268" viewBox="0 0 325 1268" fill="none" stroke="currentColor" stroke-width="50" stroke-linecap="round" stroke-linejoin="round">
  <path d="M315 894Q275 883 237.0 867.5Q199 852 166 828Q136 807 119.5 780.0Q103 753 94.5 723.0Q86 693 84.0 660.0Q82 627 82 594Q82 537 76.5 498.0Q71 459 38 411Q31 401 21.5 389.5Q12 378 1 373Q9 371 15.0 370.5Q21 370 28 365Q45 353 49.0 337.0Q53 321 53 301V293Q51 282 49.5 271.0Q48 260 46 249Q44 238 41.0 227.5Q38 217 35 206Q32 192 30.0 179.5Q28 167 25 153Q19 127 13.0 102.0Q7 77 7 50Q7 -23 48.5 -57.5Q90 -92 160 -92Q90 -92 48.5 -57.5Q7 -23 7 50Q7 77 13.0 102.0Q19 127 25 153Q28 167 30.0 179.5Q32 192 35 206Q38 217 41.0 227.5Q44 238 46 249Q48 260 49.5 271.0Q51 282 53 293V301Q53 321 49.0 337.0Q45 353 28 365Q21 370 15.0 370.5Q9 371 1 373Q12 378 21.5 389.5Q31 401 38 411Q71 459 76.5 498.0Q82 537 82 594Q82 627 84.0 660.0Q86 693 94.5 723.0Q103 753 119.5 780.0Q136 807 166 828Q199 852 237.0 867.5Q275 883 315 894Z"/>
</svg>
