<?xml version="1.0" encoding="UTF-8"?>
<svg xmlns="http://www.w3.org/2000/svg" width="665" height="1268" viewBox="0 0 665 1268" fill="none" stroke="currentColor" stroke-width="50" stroke-linecap="round" stroke-linejoin="round">
  <path d="M0 633C7 611 14 589 18 566C19 562 21 546 27 546C37 546 41 565 42 573C45 594 60 720 80 720C86 720 91 712 94 708C122 667 138 619 154 573C157 565 167 536 175 533C176 532 182 531 183 531C210 531 211 733 243 733C260 733 319 568 327 542C328 539 332 522 336 522C349 522 351 531 353 542C368 610 362 698 433 738C457 751 485 761 513 761C598 761 639 704 665 631"/>
</svg>
