<?xml version="1.0" encoding="UTF-8"?>
<svg xmlns="http://www.w3.org/2000/svg" width="665" height="1268" viewBox="0 0 665 1268" fill="none" stroke="currentColor" stroke-width="50" stroke-linecap="round" stroke-linejoin="round">
  <path d="M665 631Q645 686 611.0 723.5Q577 761 513 761Q492 761 471.5 754.5Q451 748 433 738Q406 723 392.5 700.0Q379 677 372.0 650.5Q365 624 362.0 595.5Q359 567 353 542Q351 534 348.5 528.0Q346 522 336 522Q333 522 330.5 531.0Q328 540 327 542Q324 552 313.0 583.0Q302 614 288.5 647.5Q275 681 262.0 707.0Q249 733 243 733Q231 733 224.0 701.5Q217 670 211.0 632.0Q205 594 199.0 562.5Q193 531 183 531Q177 531 175 533Q169 535 162.5 551.0Q156 567 154 573Q142 608 128.5 642.5Q115 677 94 708Q92 711 88.5 715.5Q85 720 80 720Q73 720 66.5 700.0Q60 680 55.0 654.5Q50 629 46.5 605.0Q43 581 42 573Q41 567 38.0 556.5Q35 546 27 546Q22 546 20.5 554.5Q19 563 18 566Q15 583 10.0 599.5Q5 616 0 633Q5 616 10.0 599.5Q15 583 18 566Q19 563 20.5 554.5Q22 546 27 546Q35 546 38.0 556.5Q41 567 42 573Q43 581 46.5 605.0Q50 629 55.0 654.5Q60 680 66.5 700.0Q73 720 80 720Q85 720 88.5 715.5Q92 711 94 708Q115 677 128.5 642.5Q142 608 154 573Q156 567 162.5 551.0Q169 535 175 533Q177 531 183 531Q193 531 199.0 562.5Q205 594 211.0 632.0Q217 670 224.0 701.5Q231 733 243 733Q249 733 262.0 707.0Q275 681 288.5 647.5Q302 614 313.0 583.0Q324 552 327 542Q328 540 330.5 531.0Q333 522 336 522Q346 522 348.5 528.0Q351 534 353 542Q359 567 362.0 595.5Q365 624 372.0 650.5Q379 677 392.5 700.0Q406 723 433 738Q451 748 471.5 754.5Q492 761 513 761Q577 761 611.0 723.5Q645 686 665 631Z"/>
</svg>
