<?xml version="1.0" encoding="UTF-8"?>
<svg xmlns="http://www.w3.org/2000/svg" width="509" height="1268" viewBox="0 0 509 1268" fill="none" stroke="currentColor" stroke-width="50" stroke-linecap="round" stroke-linejoin="round">
  <path d="M0 633C7 613 15 593 20 572C21 565 24 549 28 543C29 542 30 542 31 541C33 540 34 540 35 540C40 540 43 542 45 545C56 560 61 727 85 727C111 727 151 609 160 585C166 568 170 543 180 528L185 526C192 526 198 532 198 540C198 569 201 598 207 626C223 694 266 763 343 763C438 763 479 716 509 631"/>
</svg>
