<?xml version="1.0" encoding="UTF-8"?>
<svg xmlns="http://www.w3.org/2000/svg" width="509" height="1268" viewBox="0 0 509 1268" data-advance="509" data-ascent="750" data-descent="-518" data-vertical-extent="1268" data-units-per-em="1000" data-glyph-name="n" data-codepoint="110" fill="none" stroke="currentColor" stroke-width="50" stroke-linecap="round" stroke-linejoin="round">
  <path d="M0 633Q0 633 2.5 625.5Q5 618 10.5 603.0Q16 588 20 572Q20 572 20.5 569.5Q21 567 23.0 557.5Q25 548 28 543Q28 543 28.5 542.5Q29 542 29.5 542.0Q30 542 31 541Q31 541 32.0 540.5Q33 540 35 540Q35 540 38.5 540.0Q42 540 45 545Q45 545 47.0 548.0Q49 551 52.5 580.0Q56 609 60.0 641.5Q64 674 70.0 700.5Q76 727 85 727Q85 727 90.0 727.0Q95 727 106.5 708.0Q118 689 129.0 665.0Q140 641 148.5 617.5Q157 594 160 585Q160 585 162.5 578.5Q165 572 168.5 555.5Q172 539 180 528L185 526Q185 526 191.5 526.0Q198 526 198 540Q198 540 198.0 562.0Q198 584 207 626Q207 626 213.0 651.5Q219 677 252.0 720.0Q285 763 343 763Q343 763 379.0 763.0Q415 763 450.5 729.0Q486 695 509 631"/>
</svg>
