<?xml version="1.0" encoding="UTF-8"?>
<svg xmlns="http://www.w3.org/2000/svg" width="397" height="1268" viewBox="0 0 397 1268" fill="none" stroke="currentColor" stroke-width="50" stroke-linecap="round" stroke-linejoin="round">
  <path d="M397 632Q377 689 351.0 716.5Q325 744 260 744Q246 744 228.0 739.5Q210 735 198 729Q147 707 112.0 655.5Q77 604 77 547Q77 530 83.5 518.0Q90 506 109 506Q128 506 144 517Q173 535 184.0 568.5Q195 602 195 634Q195 655 189.5 677.5Q184 700 172.5 718.5Q161 737 143.0 749.0Q125 761 101 761Q45 761 21.5 719.0Q-2 677 -2 628Q-2 599 10.5 570.5Q23 542 52 529Q23 542 10.5 570.5Q-2 599 -2 628Q-2 677 21.5 719.0Q45 761 101 761Q125 761 143.0 749.0Q161 737 172.5 718.5Q184 700 189.5 677.5Q195 655 195 634Q195 602 184.0 568.5Q173 535 144 517Q128 506 109 506Q90 506 83.5 518.0Q77 530 77 547Q77 604 112.0 655.5Q147 707 198 729Q210 735 228.0 739.5Q246 744 260 744Q325 744 351.0 716.5Q377 689 397 632Z"/>
</svg>
