<?xml version="1.0" encoding="UTF-8"?>
<svg xmlns="http://www.w3.org/2000/svg" width="421" height="1268" viewBox="0 0 421 1268" data-advance="421" data-ascent="750" data-descent="-518" data-vertical-extent="1268" data-units-per-em="1000" data-glyph-name="p" data-codepoint="112" fill="none" stroke="currentColor" stroke-width="50" stroke-linecap="round" stroke-linejoin="round">
  <path d="M421 633Q397 694 363.0 728.5Q329 763 257 763Q210 763 168 739Q137 721 107.5 688.0Q78 655 78 617Q78 595 98 595Q106 596 111 605Q114 609 115.5 613.0Q117 617 119 622Q127 641 146.0 660.5Q165 680 188 680Q215 680 228.0 657.0Q241 634 241 611Q241 597 239.0 582.0Q237 567 232 553Q215 509 173.0 478.0Q131 447 83 447Q5 447 -32.5 498.5Q-70 550 -70 622Q-70 665 -61.5 714.0Q-53 763 -39.0 812.0Q-25 861 -7.0 907.5Q11 954 30 992Q44 1020 59.0 1046.5Q74 1073 88 1100Q93 1108 102.0 1124.5Q111 1141 121 1141Q132 1141 134.5 1124.5Q137 1108 137 1100Q137 1066 128.0 1033.5Q119 1001 111 969Q87 872 61.0 774.5Q35 677 35 577Q35 563 37.0 549.0Q39 535 39 521Q39 516 38 514Q37 512 32 512Q26 512 22.5 521.5Q19 531 16.5 543.5Q14 556 13.0 567.5Q12 579 11 584Q9 598 5.0 609.5Q1 621 -4 633Q1 621 5.0 609.5Q9 598 11 584Q12 579 13.0 567.5Q14 556 16.5 543.5Q19 531 22.5 521.5Q26 512 32 512Q37 512 38 514Q39 516 39 521Q39 535 37.0 549.0Q35 563 35 577Q35 677 61.0 774.5Q87 872 111 969Q119 1001 128.0 1033.5Q137 1066 137 1100Q137 1108 134.5 1124.5Q132 1141 121 1141Q111 1141 102.0 1124.5Q93 1108 88 1100Q74 1073 59.0 1046.5Q44 1020 30 992Q11 954 -7.0 907.5Q-25 861 -39.0 812.0Q-53 763 -61.5 714.0Q-70 665 -70 622Q-70 550 -32.5 498.5Q5 447 83 447Q131 447 173.0 478.0Q215 509 232 553Q237 567 239.0 582.0Q241 597 241 611Q241 634 228.0 657.0Q215 680 188 680Q165 680 146.0 660.5Q127 641 119 622Q117 617 115.5 613.0Q114 609 111 605Q106 596 98 595Q78 595 78 617Q78 655 107.5 688.0Q137 721 168 739Q210 763 257 763Q329 763 363.0 728.5Q397 694 421 633Z"/>
</svg>
