<?xml version="1.0" encoding="UTF-8"?>
<svg xmlns="http://www.w3.org/2000/svg" width="421" height="1268" viewBox="0 0 421 1268" data-advance="421" data-ascent="750" data-descent="-518" data-vertical-extent="1268" data-units-per-em="1000" data-glyph-name="p" data-codepoint="112" fill="none" stroke="currentColor" stroke-width="50" stroke-linecap="round" stroke-linejoin="round">
  <path d="M-4 633Q-4 633 -1.5 627.0Q1 621 5.0 609.5Q9 598 11 584Q11 584 11.5 581.5Q12 579 13.0 567.5Q14 556 16.5 543.5Q19 531 22.5 521.5Q26 512 32 512Q32 512 34.5 512.0Q37 512 38 514Q38 514 38.5 515.0Q39 516 39 521Q39 521 39.0 528.0Q39 535 37.0 549.0Q35 563 35 577Q35 577 35.0 627.0Q35 677 61.0 774.5Q87 872 111 969Q111 969 115.0 985.0Q119 1001 128.0 1033.5Q137 1066 137 1100Q137 1100 137.0 1104.0Q137 1108 134.5 1124.5Q132 1141 121 1141Q121 1141 116.0 1141.0Q111 1141 102.0 1124.5Q93 1108 88 1100Q88 1100 81.0 1086.5Q74 1073 59.0 1046.5Q44 1020 30 992Q30 992 20.5 973.0Q11 954 -7.0 907.5Q-25 861 -39.0 812.0Q-53 763 -61.5 714.0Q-70 665 -70 622Q-70 622 -70.0 586.0Q-70 550 -32.5 498.5Q5 447 83 447Q83 447 107.0 447.0Q131 447 173.0 478.0Q215 509 232 553Q232 553 234.5 560.0Q237 567 239.0 582.0Q241 597 241 611Q241 611 241.0 622.5Q241 634 228.0 657.0Q215 680 188 680Q188 680 176.5 680.0Q165 680 146.0 660.5Q127 641 119 622Q119 622 118.0 619.5Q117 617 115.5 613.0Q114 609 111 605Q111 605 108.5 600.5Q106 596 98 595Q98 595 88.0 595.0Q78 595 78 617Q78 617 78.0 636.0Q78 655 107.5 688.0Q137 721 168 739Q168 739 189.0 751.0Q210 763 257 763Q257 763 293.0 763.0Q329 763 363.0 728.5Q397 694 421 633"/>
</svg>
