<?xml version="1.0" encoding="UTF-8"?>
<svg xmlns="http://www.w3.org/2000/svg" width="421" height="1268" viewBox="0 0 421 1268" fill="none" stroke="currentColor" stroke-width="50" stroke-linecap="round" stroke-linejoin="round">
  <path d="M421 633C389 714 353 763 257 763C226 763 196 755 168 739C127 715 78 668 78 617C78 605 86 595 98 595C104 596 108 600 111 605C115 610 116 616 119 622C130 647 157 680 188 680C224 680 241 642 241 611C241 592 239 572 232 553C210 495 146 447 83 447C-21 447 -70 526 -70 622C-70 737 -21 891 30 992C49 1029 69 1064 88 1100C94 1110 108 1141 121 1141C136 1141 137 1110 137 1100C137 1055 122 1011 111 969C79 841 35 710 35 577C35 558 39 540 39 521C39 518 39 516 38 514C37 512 34 512 32 512C16 512 14 572 11 584C8 602 2 617 -4 633"/>
</svg>
