<?xml version="1.0" encoding="UTF-8"?>
<svg xmlns="http://www.w3.org/2000/svg" width="578" height="1268" viewBox="0 0 578 1268" fill="none" stroke="currentColor" stroke-width="50" stroke-linecap="round" stroke-linejoin="round">
  <path d="M59 694Q110 646 154.5 580.5Q199 515 235.0 442.5Q271 370 298.5 295.0Q326 220 345 153Q326 220 298.5 295.0Q271 370 235.0 442.5Q199 515 154.5 580.5Q110 646 59 694ZM69 300Q67 300 65.5 300.5Q64 301 63 301Q46 301 38.5 283.5Q31 266 31 252Q31 230 42.0 213.0Q53 196 77 196Q105 196 124.0 214.5Q143 233 155.0 259.5Q167 286 172.0 315.5Q177 345 177 367Q177 383 172.5 414.5Q168 446 160 460Q156 467 145.0 477.0Q134 487 127 492Q117 497 106 497Q75 497 54.0 477.5Q33 458 20.5 430.0Q8 402 3.0 370.5Q-2 339 -2 315Q-2 269 23 225Q-2 269 -2 315Q-2 339 3.0 370.5Q8 402 20.5 430.0Q33 458 54.0 477.5Q75 497 106 497Q117 497 127 492Q134 487 145.0 477.0Q156 467 160 460Q168 446 172.5 414.5Q177 383 177 367Q177 345 172.0 315.5Q167 286 155.0 259.5Q143 233 124.0 214.5Q105 196 77 196Q53 196 42.0 213.0Q31 230 31 252Q31 266 38.5 283.5Q46 301 63 301Q64 301 65.5 300.5Q67 300 69 300ZM387 454Q385 455 381 455Q364 455 357.0 437.5Q350 420 350 406Q350 384 360.5 367.5Q371 351 396 351Q423 351 442.0 369.0Q461 387 473.0 413.5Q485 440 490.0 469.0Q495 498 495 520Q495 537 491.0 568.5Q487 600 479 614Q474 621 463.5 631.5Q453 642 445 646Q433 651 425 651Q394 651 373.0 631.5Q352 612 339.0 584.0Q326 556 321.0 524.5Q316 493 316 469Q316 423 341 379Q316 423 316 469Q316 493 321.0 524.5Q326 556 339.0 584.0Q352 612 373.0 631.5Q394 651 425 651Q433 651 445 646Q453 642 463.5 631.5Q474 621 479 614Q487 600 491.0 568.5Q495 537 495 520Q495 498 490.0 469.0Q485 440 473.0 413.5Q461 387 442.0 369.0Q423 351 396 351Q371 351 360.5 367.5Q350 384 350 406Q350 420 357.0 437.5Q364 455 381 455Q385 455 387 454Z"/>
</svg>
