<?xml version="1.0" encoding="UTF-8"?>
<svg xmlns="http://www.w3.org/2000/svg" width="578" height="1268" viewBox="0 0 578 1268" data-advance="578" data-ascent="750" data-descent="-518" data-vertical-extent="1268" data-units-per-em="1000" data-glyph-name="percent" data-codepoint="37" fill="none" stroke="currentColor" stroke-width="50" stroke-linecap="round" stroke-linejoin="round">
  <path d="M345 153Q345 153 335.5 186.5Q326 220 298.5 295.0Q271 370 235.0 442.5Q199 515 154.5 580.5Q110 646 59 694M23 225Q23 225 10.5 247.0Q-2 269 -2 315Q-2 315 -2.0 327.0Q-2 339 3.0 370.5Q8 402 20.5 430.0Q33 458 54.0 477.5Q75 497 106 497Q106 497 111.5 497.0Q117 497 127 492Q127 492 130.5 489.5Q134 487 145.0 477.0Q156 467 160 460Q160 460 164.0 453.0Q168 446 172.5 414.5Q177 383 177 367Q177 367 177.0 356.0Q177 345 172.0 315.5Q167 286 155.0 259.5Q143 233 124.0 214.5Q105 196 77 196Q77 196 65.0 196.0Q53 196 42.0 213.0Q31 230 31 252Q31 252 31.0 259.0Q31 266 38.5 283.5Q46 301 63 301Q63 301 63.5 301.0Q64 301 65.5 300.5Q67 300 69 300M341 379Q341 379 328.5 401.0Q316 423 316 469Q316 469 316.0 481.0Q316 493 321.0 524.5Q326 556 339.0 584.0Q352 612 373.0 631.5Q394 651 425 651Q425 651 429.0 651.0Q433 651 445 646Q445 646 449.0 644.0Q453 642 463.5 631.5Q474 621 479 614Q479 614 483.0 607.0Q487 600 491.0 568.5Q495 537 495 520Q495 520 495.0 509.0Q495 498 490.0 469.0Q485 440 473.0 413.5Q461 387 442.0 369.0Q423 351 396 351Q396 351 383.5 351.0Q371 351 360.5 367.5Q350 384 350 406Q350 406 350.0 413.0Q350 420 357.0 437.5Q364 455 381 455Q381 455 383.0 455.0Q385 455 387 454"/>
</svg>
