<?xml version="1.0" encoding="UTF-8"?>
<svg xmlns="http://www.w3.org/2000/svg" width="578" height="1268" viewBox="0 0 578 1268" fill="none" stroke="currentColor" stroke-width="50" stroke-linecap="round" stroke-linejoin="round">
  <path d="M345 153C295 331 196 567 59 694M23 225C7 253 -2 283 -2 315C-2 380 23 497 106 497C114 497 121 495 127 492C136 486 155 469 160 460C171 442 177 388 177 367C177 309 151 196 77 196C45 196 31 223 31 252C31 270 41 301 63 301C64 301 67 300 69 300M341 379C325 407 316 437 316 469C316 534 341 651 425 651C432 651 438 649 445 646C455 641 473 623 479 614C489 596 495 542 495 520C495 462 469 351 396 351C363 351 350 377 350 406C350 424 358 455 381 455C383 455 385 455 387 454"/>
</svg>
