<?xml version="1.0" encoding="UTF-8"?>
<svg xmlns="http://www.w3.org/2000/svg" width="215" height="1268" viewBox="0 0 215 1268" fill="none" stroke="currentColor" stroke-width="50" stroke-linecap="round" stroke-linejoin="round">
  <path d="M86 695Q97 697 100.0 706.0Q103 715 103 725Q103 731 100.0 739.5Q97 748 88 748H87Q76 748 72.0 736.0Q68 724 68 715Q68 707 71.5 700.0Q75 693 86 695Q75 693 71.5 700.0Q68 707 68 715Q68 724 72.0 736.0Q76 748 87 748H88Q97 748 100.0 739.5Q103 731 103 725Q103 715 100.0 706.0Q97 697 86 695Z"/>
</svg>
