<?xml version="1.0" encoding="UTF-8"?>
<svg xmlns="http://www.w3.org/2000/svg" width="544" height="1268" viewBox="0 0 544 1268" data-advance="544" data-ascent="750" data-descent="-518" data-vertical-extent="1268" data-units-per-em="1000" data-glyph-name="q" data-codepoint="113" fill="none" stroke="currentColor" stroke-width="50" stroke-linecap="round" stroke-linejoin="round">
  <path d="M125 572Q125 572 116.5 544.5Q108 517 60 517Q60 517 45.5 517.0Q31 517 13.0 542.5Q-5 568 -5 612Q-5 612 -5.0 642.0Q-5 672 25.0 713.0Q55 754 98 754Q98 754 111.5 754.0Q125 754 140.5 740.0Q156 726 164.0 706.5Q172 687 174.5 666.5Q177 646 178 633Q178 633 179.0 623.5Q180 614 180.5 607.0Q181 600 181 595Q181 595 181.0 590.5Q181 586 180.5 576.5Q180 567 188 562Q188 562 192.0 562.5Q196 563 196 590Q196 590 196.0 597.0Q196 604 195.5 631.5Q195 659 197 696Q197 696 198.5 715.0Q200 734 206.0 775.5Q212 817 215 840Q215 840 217.5 857.5Q220 875 228.0 937.0Q236 999 250.5 1060.5Q265 1122 287.0 1167.0Q309 1212 342 1212Q342 1212 364.0 1212.0Q386 1212 386 1121Q386 1121 386.0 1080.0Q386 1039 350.5 935.5Q315 832 250 726Q250 726 247.0 721.0Q244 716 231.5 698.0Q219 680 208 680Q208 680 204.0 680.0Q200 680 200 694Q200 694 200.0 700.5Q200 707 216.5 719.5Q233 732 259.0 742.0Q285 752 318.5 758.0Q352 764 385 764Q385 764 403.5 764.0Q422 764 454.0 748.5Q486 733 506 707Q506 707 512.0 698.5Q518 690 526.5 671.0Q535 652 544 632"/>
</svg>
