<?xml version="1.0" encoding="UTF-8"?>
<svg xmlns="http://www.w3.org/2000/svg" width="544" height="1268" viewBox="0 0 544 1268" fill="none" stroke="currentColor" stroke-width="50" stroke-linecap="round" stroke-linejoin="round">
  <path d="M125 572C114 537 90 517 60 517C21 517 -5 554 -5 612C-5 691 41 754 98 754C170 754 176 668 178 633C180 608 181 601 181 595C181 583 177 568 188 562C194 563 196 570 196 590C196 609 194 647 197 696C201 747 211 809 215 840C228 932 254 1212 342 1212C371 1212 386 1181 386 1121C386 1012 336 867 250 726C242 713 222 680 208 680C203 680 200 686 200 694C200 728 296 764 385 764C434 764 479 742 506 707C522 685 532 658 544 632"/>
</svg>
