<?xml version="1.0" encoding="UTF-8"?>
<svg xmlns="http://www.w3.org/2000/svg" width="544" height="1268" viewBox="0 0 544 1268" data-advance="544" data-ascent="750" data-descent="-518" data-vertical-extent="1268" data-units-per-em="1000" data-glyph-name="q" data-codepoint="113" fill="none" stroke="currentColor" stroke-width="50" stroke-linecap="round" stroke-linejoin="round">
  <path d="M544 632Q535 652 526.5 671.0Q518 690 506 707Q486 733 454.0 748.5Q422 764 385 764Q352 764 318.5 758.0Q285 752 259.0 742.0Q233 732 216.5 719.5Q200 707 200 694Q200 680 208 680Q219 680 231.5 698.0Q244 716 250 726Q315 832 350.5 935.5Q386 1039 386 1121Q386 1212 342 1212Q309 1212 287.0 1167.0Q265 1122 250.5 1060.5Q236 999 228.0 937.0Q220 875 215 840Q212 817 206.0 775.5Q200 734 197 696Q195 659 195.5 631.5Q196 604 196 590Q196 563 188 562Q180 567 180.5 576.5Q181 586 181 595Q181 600 180.5 607.0Q180 614 178 633Q177 646 174.5 666.5Q172 687 164.0 706.5Q156 726 140.5 740.0Q125 754 98 754Q55 754 25.0 713.0Q-5 672 -5 612Q-5 568 13.0 542.5Q31 517 60 517Q108 517 125 572Q108 517 60 517Q31 517 13.0 542.5Q-5 568 -5 612Q-5 672 25.0 713.0Q55 754 98 754Q125 754 140.5 740.0Q156 726 164.0 706.5Q172 687 174.5 666.5Q177 646 178 633Q180 614 180.5 607.0Q181 600 181 595Q181 586 180.5 576.5Q180 567 188 562Q196 563 196 590Q196 604 195.5 631.5Q195 659 197 696Q200 734 206.0 775.5Q212 817 215 840Q220 875 228.0 937.0Q236 999 250.5 1060.5Q265 1122 287.0 1167.0Q309 1212 342 1212Q386 1212 386 1121Q386 1039 350.5 935.5Q315 832 250 726Q244 716 231.5 698.0Q219 680 208 680Q200 680 200 694Q200 707 216.5 719.5Q233 732 259.0 742.0Q285 752 318.5 758.0Q352 764 385 764Q422 764 454.0 748.5Q486 733 506 707Q518 690 526.5 671.0Q535 652 544 632Z"/>
</svg>
