<?xml version="1.0" encoding="UTF-8"?>
<svg xmlns="http://www.w3.org/2000/svg" width="363" height="1268" viewBox="0 0 363 1268" fill="none" stroke="currentColor" stroke-width="50" stroke-linecap="round" stroke-linejoin="round">
  <path d="M114 627C115 627 115 629 114 629C111 629 107 612 107 609C107 575 108 539 120 506C154 413 251 368 251 258C251 229 245 203 229 178C191 117 138 84 64 84C-4 84 -82 102 -124 162C-140 184 -152 208 -152 236C-152 253 -152 270 -146 286C-131 333 -84 354 -38 354C-1 354 40 342 61 310C66 303 74 287 76 279C77 274 78 269 78 264C78 257 76 251 74 244M146 695C158 695 169 710 169 723C169 731 168 733 166 741C163 744 160 747 157 749H151C148 749 146 749 144 747C136 743 134 727 134 719C134 712 135 695 146 695Z"/>
</svg>
