<?xml version="1.0" encoding="UTF-8"?>
<svg xmlns="http://www.w3.org/2000/svg" width="363" height="1268" viewBox="0 0 363 1268" data-advance="363" data-ascent="750" data-descent="-518" data-vertical-extent="1268" data-units-per-em="1000" data-glyph-name="question" data-codepoint="63" fill="none" stroke="currentColor" stroke-width="50" stroke-linecap="round" stroke-linejoin="round">
  <path d="M114 627Q114 627 114.5 627.0Q115 627 115.0 628.0Q115 629 114 629Q114 629 113.0 629.0Q112 629 109.5 620.0Q107 611 107 609Q107 609 107.0 596.0Q107 583 109.0 557.0Q111 531 120 506Q120 506 126.5 488.5Q133 471 155.0 443.5Q177 416 198.5 388.5Q220 361 235.5 330.0Q251 299 251 258Q251 258 251.0 235.0Q251 212 229 178Q229 178 214.5 155.0Q200 132 160.0 108.0Q120 84 64 84Q64 84 38.5 84.0Q13 84 -39.5 100.5Q-92 117 -124 162Q-124 162 -130.0 170.5Q-136 179 -144.0 197.0Q-152 215 -152 236Q-152 236 -152.0 242.5Q-152 249 -151.5 261.5Q-151 274 -146 286Q-146 286 -140.5 303.5Q-135 321 -104.0 337.5Q-73 354 -38 354Q-38 354 -24.0 354.0Q-10 354 17.5 344.0Q45 334 61 310Q61 310 63.0 307.5Q65 305 69.5 295.0Q74 285 76 279Q76 279 77.0 274.0Q78 269 78 264Q78 264 78.0 261.0Q78 258 74 244M146 695Q146 695 150.5 695.0Q155 695 162.0 704.0Q169 713 169 723Q169 723 169.0 726.0Q169 729 168.5 732.0Q168 735 166 741Q166 741 163.0 744.0Q160 747 157 749H151Q151 749 148.5 749.0Q146 749 144 747Q144 747 141.0 745.5Q138 744 136.0 734.5Q134 725 134 719Q134 719 134.0 716.5Q134 714 136.0 704.5Q138 695 146 695"/>
</svg>
