<?xml version="1.0" encoding="UTF-8"?>
<svg xmlns="http://www.w3.org/2000/svg" width="363" height="1268" viewBox="0 0 363 1268" fill="none" stroke="currentColor" stroke-width="50" stroke-linecap="round" stroke-linejoin="round">
  <path d="M74 244Q78 258 78 264Q78 269 76 279Q74 285 69.5 295.0Q65 305 61 310Q45 334 17.5 344.0Q-10 354 -38 354Q-73 354 -104.0 337.5Q-135 321 -146 286Q-151 274 -151.5 261.5Q-152 249 -152 236Q-152 215 -144.0 197.0Q-136 179 -124 162Q-92 117 -39.5 100.5Q13 84 64 84Q120 84 160.0 108.0Q200 132 229 178Q251 212 251 258Q251 299 235.5 330.0Q220 361 198.5 388.5Q177 416 155.0 443.5Q133 471 120 506Q111 531 109.0 557.0Q107 583 107 609Q107 611 109.5 620.0Q112 629 114 629Q115 629 115.0 628.0Q115 627 114 627Q115 627 115.0 628.0Q115 629 114 629Q112 629 109.5 620.0Q107 611 107 609Q107 583 109.0 557.0Q111 531 120 506Q133 471 155.0 443.5Q177 416 198.5 388.5Q220 361 235.5 330.0Q251 299 251 258Q251 212 229 178Q200 132 160.0 108.0Q120 84 64 84Q13 84 -39.5 100.5Q-92 117 -124 162Q-136 179 -144.0 197.0Q-152 215 -152 236Q-152 249 -151.5 261.5Q-151 274 -146 286Q-135 321 -104.0 337.5Q-73 354 -38 354Q-10 354 17.5 344.0Q45 334 61 310Q65 305 69.5 295.0Q74 285 76 279Q78 269 78 264Q78 258 74 244ZM146 695Q138 695 136.0 704.5Q134 714 134 719Q134 725 136.0 734.5Q138 744 144 747Q146 749 151 749H157Q160 747 166 741Q168 735 168.5 732.0Q169 729 169 723Q169 713 162.0 704.0Q155 695 146 695Q155 695 162.0 704.0Q169 713 169 723Q169 729 168.5 732.0Q168 735 166 741Q160 747 157 749H151Q146 749 144 747Q138 744 136.0 734.5Q134 725 134 719Q134 714 136.0 704.5Q138 695 146 695Z"/>
</svg>
