<?xml version="1.0" encoding="UTF-8"?>
<svg xmlns="http://www.w3.org/2000/svg" width="401" height="1268" viewBox="0 0 401 1268" data-advance="401" data-ascent="750" data-descent="-518" data-vertical-extent="1268" data-units-per-em="1000" data-glyph-name="r" data-codepoint="114" fill="none" stroke="currentColor" stroke-width="50" stroke-linecap="round" stroke-linejoin="round">
  <path d="M401 631Q392 654 385.0 671.0Q378 688 363 708Q341 735 308.0 749.5Q275 764 240 764Q215 764 197 759Q162 751 132.5 720.0Q103 689 99 652Q97 636 95.5 619.5Q94 603 90 587Q88 580 69.0 577.5Q50 575 45 573Q40 572 35.0 570.0Q30 568 25 566Q2 555 -6.0 534.0Q-14 513 -20 490Q-21 488 -21 483Q-21 468 -8 468Q-1 468 3.5 481.0Q8 494 11.0 509.5Q14 525 15.5 539.0Q17 553 17 556Q17 579 11.5 595.5Q6 612 -2 633Q6 612 11.5 595.5Q17 579 17 556Q17 553 15.5 539.0Q14 525 11.0 509.5Q8 494 3.5 481.0Q-1 468 -8 468Q-21 468 -21 483Q-21 488 -20 490Q-14 513 -6.0 534.0Q2 555 25 566Q30 568 35.0 570.0Q40 572 45 573Q50 575 69.0 577.5Q88 580 90 587Q94 603 95.5 619.5Q97 636 99 652Q103 689 132.5 720.0Q162 751 197 759Q215 764 240 764Q275 764 308.0 749.5Q341 735 363 708Q378 688 385.0 671.0Q392 654 401 631Z"/>
</svg>
