<?xml version="1.0" encoding="UTF-8"?>
<svg xmlns="http://www.w3.org/2000/svg" width="401" height="1268" viewBox="0 0 401 1268" fill="none" stroke="currentColor" stroke-width="50" stroke-linecap="round" stroke-linejoin="round">
  <path d="M-2 633C8 605 17 586 17 556C17 549 10 468 -8 468C-18 468 -21 475 -21 483C-21 486 -21 488 -20 490C-12 520 -6 551 25 566C32 569 38 572 45 573C52 575 88 578 90 587C95 608 96 631 99 652C104 701 150 748 197 759C211 763 226 764 240 764C286 764 334 744 363 708C383 682 389 661 401 631"/>
</svg>
