<?xml version="1.0" encoding="UTF-8"?>
<svg xmlns="http://www.w3.org/2000/svg" width="312" height="1268" viewBox="0 0 312 1268" data-advance="312" data-ascent="750" data-descent="-518" data-vertical-extent="1268" data-units-per-em="1000" data-glyph-name="parenright" data-codepoint="41" fill="none" stroke="currentColor" stroke-width="50" stroke-linecap="round" stroke-linejoin="round">
  <path d="M-8 900Q72 836 124.5 738.5Q177 641 200 543Q208 511 213.5 477.0Q219 443 219 410Q219 376 211.5 343.0Q204 310 196 277Q176 196 132.0 130.0Q88 64 25 10Q-1 -13 -30.0 -30.5Q-59 -48 -88 -66Q-59 -48 -30.0 -30.5Q-1 -13 25 10Q88 64 132.0 130.0Q176 196 196 277Q204 310 211.5 343.0Q219 376 219 410Q219 443 213.5 477.0Q208 511 200 543Q177 641 124.5 738.5Q72 836 -8 900Z"/>
</svg>
