<?xml version="1.0" encoding="UTF-8"?>
<svg xmlns="http://www.w3.org/2000/svg" width="207" height="1268" viewBox="0 0 207 1268" fill="none" stroke="currentColor" stroke-width="50" stroke-linecap="round" stroke-linejoin="round">
  <path d="M-23 896Q20 880 56.0 863.5Q92 847 120 809Q131 793 135.0 774.0Q139 755 139 736Q139 712 134.5 686.0Q130 660 122 638Q106 598 93.5 565.5Q81 533 81 490Q81 479 83.5 461.5Q86 444 91.0 426.0Q96 408 103.5 393.5Q111 379 122 373Q109 371 96.0 364.0Q83 357 74 349Q63 338 56.5 322.5Q50 307 46 292Q43 281 40.0 270.0Q37 259 35 247Q31 215 29.0 178.0Q27 141 22.5 104.0Q18 67 7.5 33.0Q-3 -1 -26 -27Q-59 -64 -99.0 -78.0Q-139 -92 -187 -92Q-139 -92 -99.0 -78.0Q-59 -64 -26 -27Q-3 -1 7.5 33.0Q18 67 22.5 104.0Q27 141 29.0 178.0Q31 215 35 247Q37 259 40.0 270.0Q43 281 46 292Q50 307 56.5 322.5Q63 338 74 349Q83 357 96.0 364.0Q109 371 122 373Q111 379 103.5 393.5Q96 408 91.0 426.0Q86 444 83.5 461.5Q81 479 81 490Q81 533 93.5 565.5Q106 598 122 638Q130 660 134.5 686.0Q139 712 139 736Q139 755 135.0 774.0Q131 793 120 809Q92 847 56.0 863.5Q20 880 -23 896Z"/>
</svg>
