<?xml version="1.0" encoding="UTF-8"?>
<svg xmlns="http://www.w3.org/2000/svg" width="207" height="1268" viewBox="0 0 207 1268" data-advance="207" data-ascent="750" data-descent="-518" data-vertical-extent="1268" data-units-per-em="1000" data-glyph-name="braceright" data-codepoint="125" fill="none" stroke="currentColor" stroke-width="50" stroke-linecap="round" stroke-linejoin="round">
  <path d="M-187 -92Q-187 -92 -163.0 -92.0Q-139 -92 -99.0 -78.0Q-59 -64 -26 -27Q-26 -27 -14.5 -14.0Q-3 -1 7.5 33.0Q18 67 22.5 104.0Q27 141 29.0 178.0Q31 215 35 247Q35 247 36.0 253.0Q37 259 40.0 270.0Q43 281 46 292Q46 292 48.0 299.5Q50 307 56.5 322.5Q63 338 74 349Q74 349 78.5 353.0Q83 357 96.0 364.0Q109 371 122 373Q122 373 116.5 376.0Q111 379 103.5 393.5Q96 408 91.0 426.0Q86 444 83.5 461.5Q81 479 81 490Q81 490 81.0 511.5Q81 533 93.5 565.5Q106 598 122 638Q122 638 126.0 649.0Q130 660 134.5 686.0Q139 712 139 736Q139 736 139.0 745.5Q139 755 135.0 774.0Q131 793 120 809Q120 809 106.0 828.0Q92 847 56.0 863.5Q20 880 -23 896"/>
</svg>
