<?xml version="1.0" encoding="UTF-8"?>
<svg xmlns="http://www.w3.org/2000/svg" width="367" height="1268" viewBox="0 0 367 1268" data-advance="367" data-ascent="750" data-descent="-518" data-vertical-extent="1268" data-units-per-em="1000" data-glyph-name="s" data-codepoint="115" fill="none" stroke="currentColor" stroke-width="50" stroke-linecap="round" stroke-linejoin="round">
  <path d="M367 631Q345 695 304.5 728.0Q264 761 195 761Q167 761 147 756Q123 751 95.5 730.0Q68 709 57 686Q49 669 45 652Q49 669 57 686Q68 709 95.5 730.0Q123 751 147 756Q167 761 195 761Q264 761 304.5 728.0Q345 695 367 631ZM147 756Q162 747 167.5 732.0Q173 717 173 700Q173 654 149.0 611.5Q125 569 93 537Q79 524 61.5 511.5Q44 499 24 497Q25 504 25 520Q25 549 18.0 577.0Q11 605 0 632Q11 605 18.0 577.0Q25 549 25 520Q25 504 24 497Q44 499 61.5 511.5Q79 524 93 537Q125 569 149.0 611.5Q173 654 173 700Q173 717 167.5 732.0Q162 747 147 756Z"/>
</svg>
