<?xml version="1.0" encoding="UTF-8"?>
<svg xmlns="http://www.w3.org/2000/svg" width="182" height="1268" viewBox="0 0 182 1268" fill="none" stroke="currentColor" stroke-width="50" stroke-linecap="round" stroke-linejoin="round">
  <path d="M54 523Q65 523 71.5 531.5Q78 540 78 551Q78 559 74.0 566.0Q70 573 61 573Q36 573 36 545Q36 537 40.0 530.0Q44 523 54 523Q44 523 40.0 530.0Q36 537 36 545Q36 573 61 573Q70 573 74.0 566.0Q78 559 78 551Q78 540 71.5 531.5Q65 523 54 523ZM79 823Q98 817 110.0 801.5Q122 786 122 767Q122 727 88 701Q122 727 122 767Q122 786 110.0 801.5Q98 817 79 823Z"/>
</svg>
