<?xml version="1.0" encoding="UTF-8"?>
<svg xmlns="http://www.w3.org/2000/svg" width="379" height="1268" viewBox="0 0 379 1268" data-advance="379" data-ascent="750" data-descent="-518" data-vertical-extent="1268" data-units-per-em="1000" data-glyph-name="slash" data-codepoint="47" fill="none" stroke="currentColor" stroke-width="50" stroke-linecap="round" stroke-linejoin="round">
  <path d="M45 847Q51 821 57.0 795.5Q63 770 70 745Q78 713 86.5 680.5Q95 648 105 616Q125 554 152.0 484.0Q179 414 211.0 343.0Q243 272 278.0 205.0Q313 138 349 83Q380 35 410.0 -9.5Q440 -54 483 -92Q440 -54 410.0 -9.5Q380 35 349 83Q313 138 278.0 205.0Q243 272 211.0 343.0Q179 414 152.0 484.0Q125 554 105 616Q95 648 86.5 680.5Q78 713 70 745Q63 770 57.0 795.5Q51 821 45 847Z"/>
</svg>
