<?xml version="1.0" encoding="UTF-8"?>
<svg xmlns="http://www.w3.org/2000/svg" width="379" height="1268" viewBox="0 0 379 1268" data-advance="379" data-ascent="750" data-descent="-518" data-vertical-extent="1268" data-units-per-em="1000" data-glyph-name="slash" data-codepoint="47" fill="none" stroke="currentColor" stroke-width="50" stroke-linecap="round" stroke-linejoin="round">
  <path d="M483 -92Q483 -92 461.5 -73.0Q440 -54 410.0 -9.5Q380 35 349 83Q349 83 331.0 110.5Q313 138 278.0 205.0Q243 272 211.0 343.0Q179 414 152.0 484.0Q125 554 105 616Q105 616 100.0 632.0Q95 648 86.5 680.5Q78 713 70 745Q70 745 66.5 757.5Q63 770 57.0 795.5Q51 821 45 847"/>
</svg>
