<?xml version="1.0" encoding="UTF-8"?>
<svg xmlns="http://www.w3.org/2000/svg" width="330" height="1268" viewBox="0 0 330 1268" data-advance="330" data-ascent="750" data-descent="-518" data-vertical-extent="1268" data-units-per-em="1000" data-glyph-name="t" data-codepoint="116" fill="none" stroke="currentColor" stroke-width="50" stroke-linecap="round" stroke-linejoin="round">
  <path d="M331 631Q308 694 273.0 727.5Q238 761 167 761Q130 761 100.5 745.0Q71 729 48 702Q36 688 24.0 673.0Q12 658 2 641Q-48 557 -68.0 458.5Q-88 360 -100 264Q-103 241 -103 220Q-103 209 -103.0 187.0Q-103 165 -99.5 142.0Q-96 119 -88.5 102.0Q-81 85 -66 85Q-54 85 -46.5 97.5Q-39 110 -35 120Q-20 157 -10.0 209.0Q0 261 6.0 317.5Q12 374 14.5 428.0Q17 482 17 523Q17 551 13.0 578.5Q9 606 0 632Q9 606 13.0 578.5Q17 551 17 523Q17 482 14.5 428.0Q12 374 6.0 317.5Q0 261 -10.0 209.0Q-20 157 -35 120Q-39 110 -46.5 97.5Q-54 85 -66 85Q-81 85 -88.5 102.0Q-96 119 -99.5 142.0Q-103 165 -103.0 187.0Q-103 209 -103 220Q-103 241 -100 264Q-88 360 -68.0 458.5Q-48 557 2 641Q12 658 24.0 673.0Q36 688 48 702Q71 729 100.5 745.0Q130 761 167 761Q238 761 273.0 727.5Q308 694 331 631ZM414 276Q223 277 34.5 280.0Q-154 283 -345 291Q-154 283 34.5 280.0Q223 277 414 276Z"/>
</svg>
