<?xml version="1.0" encoding="UTF-8"?>
<svg xmlns="http://www.w3.org/2000/svg" width="452" height="1268" viewBox="0 0 452 1268" fill="none" stroke="currentColor" stroke-width="50" stroke-linecap="round" stroke-linejoin="round">
  <path d="M375 457 372 459Q347 486 317.0 510.0Q287 534 247 534Q216 534 193.5 522.0Q171 510 151.5 496.0Q132 482 113.0 470.0Q94 458 70 458Q52 458 35.5 466.5Q19 475 3.5 487.5Q-12 500 -26.0 514.5Q-40 529 -52 540Q-40 529 -26.0 514.5Q-12 500 3.5 487.5Q19 475 35.5 466.5Q52 458 70 458Q94 458 113.0 470.0Q132 482 151.5 496.0Q171 510 193.5 522.0Q216 534 247 534Q287 534 317.0 510.0Q347 486 372 459"/>
</svg>
