<?xml version="1.0" encoding="UTF-8"?>
<svg xmlns="http://www.w3.org/2000/svg" width="443" height="1268" viewBox="0 0 443 1268" fill="none" stroke="currentColor" stroke-width="50" stroke-linecap="round" stroke-linejoin="round">
  <path d="M-17 532C-19 540 -20 547 -20 555C-20 570 -16 584 -12 599C0 648 25 692 59 730C64 737 69 744 79 744L80 743C90 742 97 725 101 716C125 657 154 581 154 516C154 495 154 467 131 459C113 459 114 485 114 498C114 558 146 631 190 670C226 701 281 716 327 716C392 716 420 693 443 633"/>
</svg>
