<?xml version="1.0" encoding="UTF-8"?>
<svg xmlns="http://www.w3.org/2000/svg" width="443" height="1268" viewBox="0 0 443 1268" fill="none" stroke="currentColor" stroke-width="50" stroke-linecap="round" stroke-linejoin="round">
  <path d="M443 633Q426 678 401.0 697.0Q376 716 327 716Q292 716 254.5 704.5Q217 693 190 670Q157 641 135.5 592.0Q114 543 114 498Q114 488 115.5 473.5Q117 459 131 459Q148 465 151.0 482.5Q154 500 154 516Q154 565 136.5 618.0Q119 671 101 716Q98 723 93.0 732.5Q88 742 80 743L79 744Q71 744 67.0 739.5Q63 735 59 730Q5 670 -12 599Q-15 588 -17.5 577.0Q-20 566 -20 555Q-20 544 -17 532Q-20 544 -20 555Q-20 566 -17.5 577.0Q-15 588 -12 599Q5 670 59 730Q63 735 67.0 739.5Q71 744 79 744L80 743Q88 742 93.0 732.5Q98 723 101 716Q119 671 136.5 618.0Q154 565 154 516Q154 500 151.0 482.5Q148 465 131 459Q117 459 115.5 473.5Q114 488 114 498Q114 543 135.5 592.0Q157 641 190 670Q217 693 254.5 704.5Q292 716 327 716Q376 716 401.0 697.0Q426 678 443 633Z"/>
</svg>
