<?xml version="1.0" encoding="UTF-8"?>
<svg xmlns="http://www.w3.org/2000/svg" width="682" height="1268" viewBox="0 0 682 1268" fill="none" stroke="currentColor" stroke-width="50" stroke-linecap="round" stroke-linejoin="round">
  <path d="M682 634Q666 681 637.0 707.0Q608 733 557 733Q520 733 487.0 717.0Q454 701 425.5 676.0Q397 651 374.5 620.5Q352 590 337 560Q332 549 325.5 534.5Q319 520 319 509Q319 501 323.5 494.0Q328 487 337 487Q358 487 372.5 505.0Q387 523 396.5 547.5Q406 572 410.5 597.5Q415 623 415 639Q415 658 410.5 679.0Q406 700 395.5 717.5Q385 735 368.5 746.5Q352 758 329 758Q305 758 284.5 745.0Q264 732 248.5 712.5Q233 693 222.5 670.0Q212 647 206 626Q201 612 199.0 597.0Q197 582 195 567Q194 565 194 562L195 561L196 560L198 561Q204 573 204 593Q204 620 197.5 648.5Q191 677 176.5 700.5Q162 724 139.5 739.0Q117 754 85 754Q57 754 39.0 738.0Q21 722 11.0 698.5Q1 675 -2.5 648.5Q-6 622 -6 600Q-6 564 7 537Q-6 564 -6 600Q-6 622 -2.5 648.5Q1 675 11.0 698.5Q21 722 39.0 738.0Q57 754 85 754Q117 754 139.5 739.0Q162 724 176.5 700.5Q191 677 197.5 648.5Q204 620 204 593Q204 573 198 561L196 560L195 561L194 562Q194 565 195 567Q197 582 199.0 597.0Q201 612 206 626Q212 647 222.5 670.0Q233 693 248.5 712.5Q264 732 284.5 745.0Q305 758 329 758Q352 758 368.5 746.5Q385 735 395.5 717.5Q406 700 410.5 679.0Q415 658 415 639Q415 623 410.5 597.5Q406 572 396.5 547.5Q387 523 372.5 505.0Q358 487 337 487Q328 487 323.5 494.0Q319 501 319 509Q319 520 325.5 534.5Q332 549 337 560Q352 590 374.5 620.5Q397 651 425.5 676.0Q454 701 487.0 717.0Q520 733 557 733Q608 733 637.0 707.0Q666 681 682 634Z"/>
</svg>
