<?xml version="1.0" encoding="UTF-8"?>
<svg xmlns="http://www.w3.org/2000/svg" width="682" height="1268" viewBox="0 0 682 1268" fill="none" stroke="currentColor" stroke-width="50" stroke-linecap="round" stroke-linejoin="round">
  <path d="M7 537C-2 556 -6 578 -6 600C-6 658 10 754 85 754C170 754 204 664 204 593C204 582 203 571 198 561L196 560L195 561C195 561 194 562 194 562C194 564 194 565 195 567C198 587 200 607 206 626C221 681 264 758 329 758C391 758 415 690 415 639C415 597 392 487 337 487C325 487 319 498 319 509C319 524 331 546 337 560C377 639 459 733 557 733C625 733 661 696 682 634"/>
</svg>
