<?xml version="1.0" encoding="UTF-8"?>
<svg xmlns="http://www.w3.org/2000/svg" width="478" height="1268" viewBox="0 0 478 1268" fill="none" stroke="currentColor" stroke-width="50" stroke-linecap="round" stroke-linejoin="round">
  <path d="M-15 525C-8 603 17 749 120 749C138 749 162 741 176 730C212 705 224 654 234 613C238 597 240 581 240 564C240 555 237 505 226 505C219 505 219 518 219 523C219 549 233 588 241 613L281 738C291 769 302 798 310 829C323 877 335 926 348 975C360 1021 373 1067 385 1113C392 1138 405 1172 405 1198C405 1218 396 1229 376 1229C359 1229 333 1216 318 1208C295 1194 273 1178 254 1159C215 1119 165 1060 150 1005C148 995 147 984 147 974C147 899 197 866 257 835C281 822 306 810 331 797C368 779 405 751 432 719C452 694 466 663 478 633"/>
</svg>
