<?xml version="1.0" encoding="UTF-8"?>
<svg xmlns="http://www.w3.org/2000/svg" width="478" height="1268" viewBox="0 0 478 1268" data-advance="478" data-ascent="750" data-descent="-518" data-vertical-extent="1268" data-units-per-em="1000" data-glyph-name="y" data-codepoint="121" fill="none" stroke="currentColor" stroke-width="50" stroke-linecap="round" stroke-linejoin="round">
  <path d="M-15 525Q-15 525 -13.5 539.5Q-12 554 -5.0 593.0Q2 632 17.0 666.5Q32 701 56.5 725.0Q81 749 120 749Q120 749 127.0 749.0Q134 749 149.5 743.5Q165 738 176 730Q176 730 189.5 720.5Q203 711 214.5 677.5Q226 644 234 613Q234 613 237.0 601.0Q240 589 240 564Q240 564 240.0 562.5Q240 561 239.5 551.0Q239 541 237.5 531.0Q236 521 233.0 513.0Q230 505 226 505Q226 505 223.5 505.0Q221 505 220.0 512.0Q219 519 219 523Q219 523 219.0 533.0Q219 543 227.0 568.5Q235 594 241 613L281 738Q281 738 285.0 749.5Q289 761 296.5 783.5Q304 806 310 829Q310 829 315.0 847.0Q320 865 329.0 901.5Q338 938 348 975Q348 975 352.5 992.5Q357 1010 366.5 1044.0Q376 1078 385 1113Q385 1113 387.5 1122.5Q390 1132 397.5 1155.0Q405 1178 405 1198Q405 1198 405.0 1213.5Q405 1229 376 1229Q376 1229 369.5 1229.0Q363 1229 346.0 1221.5Q329 1214 318 1208Q318 1208 299.0 1196.5Q280 1185 254 1159Q254 1159 239.5 1144.0Q225 1129 193.0 1088.0Q161 1047 150 1005Q150 1005 148.5 997.5Q147 990 147 974Q147 974 147.0 945.5Q147 917 179.5 887.5Q212 858 257 835Q257 835 266.0 830.0Q275 825 293.5 816.0Q312 807 331 797Q331 797 345.0 790.0Q359 783 385.5 763.0Q412 743 432 719Q432 719 439.5 709.5Q447 700 458.0 678.0Q469 656 478 633"/>
</svg>
