<?xml version="1.0" encoding="UTF-8"?>
<svg xmlns="http://www.w3.org/2000/svg" width="468" height="1268" viewBox="0 0 468 1268" data-advance="468" data-ascent="750" data-descent="-518" data-vertical-extent="1268" data-units-per-em="1000" data-glyph-name="z" data-codepoint="122" fill="none" stroke="currentColor" stroke-width="50" stroke-linecap="round" stroke-linejoin="round">
  <path d="M0 635Q0 635 4.5 624.5Q9 614 14.0 597.5Q19 581 26.0 566.0Q33 551 44.0 537.5Q55 524 76 511Q76 511 86.5 503.0Q97 495 120 495Q120 495 144.0 495.0Q168 495 168 547Q168 547 168.0 555.5Q168 564 163.5 583.5Q159 603 151 617Q151 617 149.0 622.0Q147 627 132.5 647.0Q118 667 100.5 686.5Q83 706 65.5 721.0Q48 736 37 736Q37 736 36.0 736.0Q35 736 35 734Q35 734 37.5 730.0Q40 726 55.5 721.0Q71 716 80 716Q80 716 92.5 716.0Q105 716 130.5 719.5Q156 723 180 732Q180 732 207.5 743.0Q235 754 277.0 800.0Q319 846 347.5 903.5Q376 961 390.5 1024.0Q405 1087 405 1142Q405 1142 405.0 1147.0Q405 1152 404.5 1165.5Q404 1179 400.5 1191.0Q397 1203 389.0 1211.5Q381 1220 367 1220Q367 1220 354.0 1220.0Q341 1220 316.0 1208.0Q291 1196 271 1178Q271 1178 261.0 1168.5Q251 1159 226.5 1129.5Q202 1100 180.5 1066.5Q159 1033 144.5 999.0Q130 965 130 936Q130 936 130.0 920.5Q130 905 151.5 881.0Q173 857 203.5 839.0Q234 821 267.0 808.0Q300 795 324 785Q324 785 344.5 775.5Q365 766 397 740Q397 740 411.0 729.0Q425 718 441.0 691.5Q457 665 468 633"/>
</svg>
