<?xml version="1.0" encoding="UTF-8"?>
<svg xmlns="http://www.w3.org/2000/svg" width="468" height="1268" viewBox="0 0 468 1268" data-advance="468" data-ascent="750" data-descent="-518" data-vertical-extent="1268" data-units-per-em="1000" data-glyph-name="z" data-codepoint="122" fill="none" stroke="currentColor" stroke-width="50" stroke-linecap="round" stroke-linejoin="round">
  <path d="M468 633Q457 665 441.0 691.5Q425 718 397 740Q365 766 324 785Q300 795 267.0 808.0Q234 821 203.5 839.0Q173 857 151.5 881.0Q130 905 130 936Q130 965 144.5 999.0Q159 1033 180.5 1066.5Q202 1100 226.5 1129.5Q251 1159 271 1178Q291 1196 316.0 1208.0Q341 1220 367 1220Q381 1220 389.0 1211.5Q397 1203 400.5 1191.0Q404 1179 404.5 1165.5Q405 1152 405 1142Q405 1087 390.5 1024.0Q376 961 347.5 903.5Q319 846 277.0 800.0Q235 754 180 732Q156 723 130.5 719.5Q105 716 80 716Q71 716 55.5 721.0Q40 726 35 734Q35 736 37 736Q48 736 65.5 721.0Q83 706 100.5 686.5Q118 667 132.5 647.0Q147 627 151 617Q159 603 163.5 583.5Q168 564 168 547Q168 495 120 495Q97 495 76 511Q55 524 44.0 537.5Q33 551 26.0 566.0Q19 581 14.0 597.5Q9 614 0 635Q9 614 14.0 597.5Q19 581 26.0 566.0Q33 551 44.0 537.5Q55 524 76 511Q97 495 120 495Q168 495 168 547Q168 564 163.5 583.5Q159 603 151 617Q147 627 132.5 647.0Q118 667 100.5 686.5Q83 706 65.5 721.0Q48 736 37 736Q35 736 35 734Q40 726 55.5 721.0Q71 716 80 716Q105 716 130.5 719.5Q156 723 180 732Q235 754 277.0 800.0Q319 846 347.5 903.5Q376 961 390.5 1024.0Q405 1087 405 1142Q405 1152 404.5 1165.5Q404 1179 400.5 1191.0Q397 1203 389.0 1211.5Q381 1220 367 1220Q341 1220 316.0 1208.0Q291 1196 271 1178Q251 1159 226.5 1129.5Q202 1100 180.5 1066.5Q159 1033 144.5 999.0Q130 965 130 936Q130 905 151.5 881.0Q173 857 203.5 839.0Q234 821 267.0 808.0Q300 795 324 785Q365 766 397 740Q425 718 441.0 691.5Q457 665 468 633Z"/>
</svg>
