<?xml version="1.0" encoding="UTF-8"?>
<svg xmlns="http://www.w3.org/2000/svg" width="468" height="1268" viewBox="0 0 468 1268" fill="none" stroke="currentColor" stroke-width="50" stroke-linecap="round" stroke-linejoin="round">
  <path d="M468 633C453 676 434 711 397 740C375 758 350 773 324 785C261 812 130 852 130 936C130 1012 217 1127 271 1178C297 1202 332 1220 367 1220C405 1220 405 1168 405 1142C405 995 326 790 180 732C148 720 113 716 80 716C68 716 41 723 35 734C35 735 36 736 37 736C66 736 139 644 151 617C161 598 168 569 168 547C168 514 155 495 120 495C104 495 88 502 76 511C21 547 23 580 0 635"/>
</svg>
