<?xml version="1.0" encoding="UTF-8"?>
<svg xmlns="http://www.w3.org/2000/svg" width="497" height="1268" viewBox="0 0 497 1268" data-advance="497" data-ascent="750" data-descent="-518" data-vertical-extent="1268" data-units-per-em="1000" data-glyph-name="aacute" data-codepoint="225" fill="none" stroke="currentColor" stroke-width="50" stroke-linecap="round" stroke-linejoin="round">
  <path d="M186 407 207 385 311 284M171 508Q176 534 180.0 560.5Q184 587 184 613Q184 632 181.0 656.0Q178 680 169.0 701.0Q160 722 144.0 736.5Q128 751 103 751Q76 751 56.5 737.5Q37 724 24.5 703.5Q12 683 5.5 658.0Q-1 633 -1 610Q-1 578 13.0 546.0Q27 514 66 514Q91 514 106.5 530.5Q122 547 129 569Q122 547 106.5 530.5Q91 514 66 514Q27 514 13.0 546.0Q-1 578 -1 610Q-1 633 5.5 658.0Q12 683 24.5 703.5Q37 724 56.5 737.5Q76 751 103 751Q128 751 144.0 736.5Q160 722 169.0 701.0Q178 680 181.0 656.0Q184 632 184 613Q184 587 180.0 560.5Q176 534 171 508ZM497 630Q477 688 443.0 731.5Q409 775 341 775Q304 775 277.0 758.5Q250 742 231.5 715.5Q213 689 201.5 656.5Q190 624 183 592Q190 624 201.5 656.5Q213 689 231.5 715.5Q250 742 277.0 758.5Q304 775 341 775Q409 775 443.0 731.5Q477 688 497 630Z"/>
</svg>
