<?xml version="1.0" encoding="UTF-8"?>
<svg xmlns="http://www.w3.org/2000/svg" width="391" height="1268" viewBox="0 0 391 1268" data-advance="391" data-ascent="750" data-descent="-518" data-vertical-extent="1268" data-units-per-em="1000" data-glyph-name="iacute" data-codepoint="237" fill="none" stroke="currentColor" stroke-width="50" stroke-linecap="round" stroke-linejoin="round">
  <path d="M0 632Q0 632 3.5 623.0Q7 614 11.0 603.0Q15 592 17.5 582.0Q20 572 22.0 560.5Q24 549 27 532Q27 532 27.0 531.0Q27 530 29.0 527.0Q31 524 33 524Q33 524 38.5 524.0Q44 524 44.0 537.5Q44 551 45 559Q45 559 46.0 570.5Q47 582 55.5 608.0Q64 634 75 655Q75 655 88.0 679.0Q101 703 136.5 732.5Q172 762 229 762Q229 762 251.5 762.0Q274 762 311.5 742.5Q349 723 369 683Q369 683 374.0 672.0Q379 661 391 631M37 375 11 400"/>
</svg>
