<?xml version="1.0" encoding="UTF-8"?>
<svg xmlns="http://www.w3.org/2000/svg" width="509" height="1268" viewBox="0 0 509 1268" data-advance="509" data-ascent="750" data-descent="-518" data-vertical-extent="1268" data-units-per-em="1000" data-glyph-name="ntilde" data-codepoint="241" fill="none" stroke="currentColor" stroke-width="50" stroke-linecap="round" stroke-linejoin="round">
  <path d="M276 355 275 357Q261 374 243.0 389.5Q225 405 202 405Q183 405 170.0 397.5Q157 390 145.5 380.5Q134 371 123.5 363.5Q113 356 99 356Q79 356 60.5 375.5Q42 395 28 409Q42 395 60.5 375.5Q79 356 99 356Q113 356 123.5 363.5Q134 371 145.5 380.5Q157 390 170.0 397.5Q183 405 202 405Q225 405 243.0 389.5Q261 374 275 357M509 631Q486 695 450.5 729.0Q415 763 343 763Q285 763 252.0 720.0Q219 677 207 626Q198 584 198 540Q198 526 185 526L180 528Q172 539 168.5 555.5Q165 572 160 585Q157 594 148.5 617.5Q140 641 129.0 665.0Q118 689 106.5 708.0Q95 727 85 727Q76 727 70.0 700.5Q64 674 60.0 641.5Q56 609 52.5 580.0Q49 551 45 545Q42 540 35 540Q33 540 31 541Q30 542 29.5 542.0Q29 542 28 543Q25 548 23.0 557.5Q21 567 20 572Q16 588 10.5 603.0Q5 618 0 633Q5 618 10.5 603.0Q16 588 20 572Q21 567 23.0 557.5Q25 548 28 543Q29 542 29.5 542.0Q30 542 31 541Q33 540 35 540Q42 540 45 545Q49 551 52.5 580.0Q56 609 60.0 641.5Q64 674 70.0 700.5Q76 727 85 727Q95 727 106.5 708.0Q118 689 129.0 665.0Q140 641 148.5 617.5Q157 594 160 585Q165 572 168.5 555.5Q172 539 180 528L185 526Q198 526 198 540Q198 584 207 626Q219 677 252.0 720.0Q285 763 343 763Q415 763 450.5 729.0Q486 695 509 631Z"/>
</svg>
