<?xml version="1.0" encoding="UTF-8"?>
<svg xmlns="http://www.w3.org/2000/svg" width="509" height="1268" viewBox="0 0 509 1268" fill="none" stroke="currentColor" stroke-width="50" stroke-linecap="round" stroke-linejoin="round">
  <path d="M27.790008544921875 409.1699981689453C46.83000183105469 390.1300048828125 72.22000122070312 355.95001220703125 98.58999633789062 355.95001220703125C135.20999145507812 355.95001220703125 152.29998779296875 404.78001403808594 202.1099853515625 404.78001403808594C232.37998962402344 404.78001403808594 255.8199920654297 380.37001037597656 274.8599853515625 356.9300079345703L276.3199920654297 354.9800109863281M-0.0600128173828125 632.8200073242188C6.7799835205078125 612.8000030517578 15.079986572265625 592.7799987792969 19.959991455078125 571.7799987792969C20.939987182617188 564.9400024414062 23.869979858398438 548.8300018310547 27.779983520507812 542.9700012207031C28.759979248046875 541.9900054931641 29.739974975585938 541.9900054931641 30.719970703125 541.010009765625C33.15997314453125 540.0300140380859 34.13996887207031 540.0300140380859 35.119964599609375 540.0300140380859C39.999969482421875 540.0300140380859 42.929962158203125 541.9800109863281 44.87995910644531 544.9100036621094C56.109954833984375 560.0500030517578 60.989959716796875 727.0500030517578 84.91995239257812 727.0500030517578C110.79995727539062 727.0500030517578 150.83995056152344 608.8800048828125 160.1199493408203 584.9500122070312C165.97994995117188 567.8600158691406 169.88995361328125 542.9600219726562 180.13995361328125 527.8200225830078L185.01995849609375 525.8700256347656C191.85995483398438 525.8700256347656 198.2099609375 532.2200317382812 198.2099609375 540.030029296875C198.2099609375 568.8400268554688 201.13995361328125 598.1400299072266 206.9999542236328 625.9700317382812C223.10995483398438 693.8400268554688 266.0799560546875 763.1800231933594 342.7399597167969 763.1800231933594C437.9599609375 763.1800231933594 478.97996520996094 715.8100280761719 508.76995849609375 630.8500213623047"/>
</svg>
