<?xml version="1.0" encoding="UTF-8"?>
<svg xmlns="http://www.w3.org/2000/svg" width="397" height="1268" viewBox="0 0 397 1268" fill="none" stroke="currentColor" stroke-width="50" stroke-linecap="round" stroke-linejoin="round">
  <path d="M163.50999450683594 283.6699981689453 58.529998779296875 384.75M52.0 529.0C14.0 546.0 -2.0 589.0 -2.0 628.0C-2.0 693.0 26.0 761.0 101.0 761.0C166.0 761.0 195.0 690.0 195.0 634.0C195.0 591.0 183.0 541.0 144.0 517.0C134.0 510.0 121.0 506.0 109.0 506.0C84.0 506.0 77.0 525.0 77.0 547.0C77.0 622.0 130.0 700.0 198.0 729.0C214.0 737.0 242.0 744.0 260.0 744.0C346.0 744.0 371.0 707.0 397.0 632.0"/>
</svg>
