<?xml version="1.0" encoding="UTF-8"?>
<svg xmlns="http://www.w3.org/2000/svg" width="574" height="1268" viewBox="0 0 574 1268" fill="none" stroke="currentColor" stroke-width="50" stroke-linecap="round" stroke-linejoin="round">
  <path d="M231.97999572753906 283.6699981689453 127.0 384.75M0.0 634.0C11.0 608.0 17.0 582.0 25.0 555.0L26.0 554.0C26.0 548.0 27.0 528.0 37.0 528.0C41.0 528.0 45.0 532.0 45.0 536.0C45.0 605.0 48.0 707.0 120.0 746.0C130.0 751.0 145.0 754.0 156.0 754.0C218.0 754.0 238.0 704.0 244.0 650.0C247.0 626.0 250.0 603.0 250.0 579.0C250.0 567.0 248.0 539.0 232.0 539.0C223.0 539.0 222.0 551.0 222.0 557.0C222.0 582.0 242.0 627.0 254.0 649.0C262.0 663.0 271.0 676.0 281.0 689.0C315.0 739.0 358.0 765.0 419.0 765.0C478.0 765.0 530.0 731.0 554.0 678.0C561.0 664.0 568.0 649.0 574.0 634.0"/>
</svg>
