<?xml version="1.0" encoding="UTF-8"?>
<svg xmlns="http://www.w3.org/2000/svg" width="574" height="1268" viewBox="0 0 574 1268" data-advance="574" data-ascent="750" data-descent="-518" data-vertical-extent="1268" data-units-per-em="1000" data-glyph-name="uacute" data-codepoint="250" fill="none" stroke="currentColor" stroke-width="50" stroke-linecap="round" stroke-linejoin="round">
  <path d="M106 407 127 385 232 284M574 634Q566 654 554 678Q536 718 500.0 741.5Q464 765 419 765Q373 765 340.0 746.0Q307 727 281 689Q265 668 254 649Q245 632 233.5 604.0Q222 576 222 557Q222 552 223.5 545.5Q225 539 232 539Q244 539 247.0 554.5Q250 570 250 579Q250 597 248.0 614.5Q246 632 244 650Q239 691 221.0 722.5Q203 754 156 754Q136 754 120 746Q93 731 78.0 706.0Q63 681 55.5 652.0Q48 623 46.5 592.5Q45 562 45 536Q45 528 37 528Q29 528 27.5 538.5Q26 549 26 554L25 555Q19 575 13.5 594.5Q8 614 0 634Q8 614 13.5 594.5Q19 575 25 555L26 554Q26 549 27.5 538.5Q29 528 37 528Q45 528 45 536Q45 562 46.5 592.5Q48 623 55.5 652.0Q63 681 78.0 706.0Q93 731 120 746Q136 754 156 754Q203 754 221.0 722.5Q239 691 244 650Q246 632 248.0 614.5Q250 597 250 579Q250 570 247.0 554.5Q244 539 232 539Q225 539 223.5 545.5Q222 552 222 557Q222 576 233.5 604.0Q245 632 254 649Q265 668 281 689Q307 727 340.0 746.0Q373 765 419 765Q464 765 500.0 741.5Q536 718 554 678Q566 654 574 634Z"/>
</svg>
