<?xml version="1.0" encoding="UTF-8"?>
<svg xmlns="http://www.w3.org/2000/svg" width="574" height="1268" viewBox="0 0 574 1268" data-advance="574" data-ascent="750" data-descent="-518" data-vertical-extent="1268" data-units-per-em="1000" data-glyph-name="udieresis" data-codepoint="252" fill="none" stroke="currentColor" stroke-width="50" stroke-linecap="round" stroke-linejoin="round">
  <path d="M0 634Q0 634 4.0 624.0Q8 614 13.5 594.5Q19 575 25 555L26 554Q26 554 26.0 551.5Q26 549 27.5 538.5Q29 528 37 528Q37 528 41.0 528.0Q45 528 45 536Q45 536 45.0 549.0Q45 562 46.5 592.5Q48 623 55.5 652.0Q63 681 78.0 706.0Q93 731 120 746Q120 746 128.0 750.0Q136 754 156 754Q156 754 179.5 754.0Q203 754 221.0 722.5Q239 691 244 650Q244 650 245.0 641.0Q246 632 248.0 614.5Q250 597 250 579Q250 579 250.0 574.5Q250 570 247.0 554.5Q244 539 232 539Q232 539 228.5 539.0Q225 539 223.5 545.5Q222 552 222 557Q222 557 222.0 566.5Q222 576 233.5 604.0Q245 632 254 649Q254 649 259.5 658.5Q265 668 281 689Q281 689 294.0 708.0Q307 727 340.0 746.0Q373 765 419 765Q419 765 441.5 765.0Q464 765 500.0 741.5Q536 718 554 678Q554 678 560.0 666.0Q566 654 574 634M65 389Q65 389 55.0 389.0Q45 389 45 409Q45 409 45.0 419.0Q45 429 65 429Q65 429 75.0 429.0Q85 429 85 409Q85 409 85.0 399.0Q85 389 65 389M232 389Q232 389 222.0 389.0Q212 389 212 409Q212 409 212.0 419.0Q212 429 232 429Q232 429 242.0 429.0Q252 429 252 409Q252 409 252.0 399.0Q252 389 232 389"/>
</svg>
