<?xml version="1.0" encoding="UTF-8"?>
<svg xmlns="http://www.w3.org/2000/svg" width="574" height="1268" viewBox="0 0 574 1268" fill="none" stroke="currentColor" stroke-width="50" stroke-linecap="round" stroke-linejoin="round">
  <path d="M0 634C11 608 17 582 25 555L26 554C26 548 27 528 37 528C41 528 45 532 45 536C45 605 48 707 120 746C130 751 145 754 156 754C218 754 238 704 244 650C247 626 250 603 250 579C250 567 248 539 232 539C223 539 222 551 222 557C222 582 242 627 254 649C262 663 271 676 281 689C315 739 358 765 419 765C478 765 530 731 554 678C561 664 568 649 574 634M65 389C54 389 45 397 45 409C45 420 54 429 65 429C76 429 85 420 85 409C85 397 76 389 65 389ZM232 389C221 389 212 397 212 409C212 420 221 429 232 429C243 429 252 420 252 409C252 397 243 389 232 389Z"/>
</svg>
