<?xml version="1.0" encoding="UTF-8"?>
<svg xmlns="http://www.w3.org/2000/svg" width="478" height="1268" viewBox="0 0 478 1268" fill="none" stroke="currentColor" stroke-width="50" stroke-linecap="round" stroke-linejoin="round">
  <path d="M155.1699981689453 283.6699981689453 50.19000244140625 384.75M-15.0 525.0C-8.0 603.0 17.0 749.0 120.0 749.0C138.0 749.0 162.0 741.0 176.0 730.0C212.0 705.0 224.0 654.0 234.0 613.0C238.0 597.0 240.0 581.0 240.0 564.0C240.0 555.0 237.0 505.0 226.0 505.0C219.0 505.0 219.0 518.0 219.0 523.0C219.0 549.0 233.0 588.0 241.0 613.0L281.0 738.0C291.0 769.0 302.0 798.0 310.0 829.0C323.0 877.0 335.0 926.0 348.0 975.0C360.0 1021.0 373.0 1067.0 385.0 1113.0C392.0 1138.0 405.0 1172.0 405.0 1198.0C405.0 1218.0 396.0 1229.0 376.0 1229.0C359.0 1229.0 333.0 1216.0 318.0 1208.0C295.0 1194.0 273.0 1178.0 254.0 1159.0C215.0 1119.0 165.0 1060.0 150.0 1005.0C148.0 995.0 147.0 984.0 147.0 974.0C147.0 899.0 197.0 866.0 257.0 835.0C281.0 822.0 306.0 810.0 331.0 797.0C368.0 779.0 405.0 751.0 432.0 719.0C452.0 694.0 466.0 663.0 478.0 633.0"/>
</svg>
