<?xml version="1.0" encoding="UTF-8"?>
<svg xmlns="http://www.w3.org/2000/svg" width="478" height="1268" viewBox="0 0 478 1268" fill="none" stroke="currentColor" stroke-width="50" stroke-linecap="round" stroke-linejoin="round">
  <path d="M29 407 50 385 155 284M478 633Q469 656 458.0 678.0Q447 700 432 719Q412 743 385.5 763.0Q359 783 331 797Q312 807 293.5 816.0Q275 825 257 835Q212 858 179.5 887.5Q147 917 147 974Q147 990 150 1005Q161 1047 193.0 1088.0Q225 1129 254 1159Q280 1185 318 1208Q329 1214 346.0 1221.5Q363 1229 376 1229Q405 1229 405 1198Q405 1178 397.5 1155.0Q390 1132 385 1113Q376 1078 366.5 1044.0Q357 1010 348 975Q338 938 329.0 901.5Q320 865 310 829Q304 806 296.5 783.5Q289 761 281 738L241 613Q235 594 227.0 568.5Q219 543 219 523Q219 519 220.0 512.0Q221 505 226 505Q230 505 233.0 513.0Q236 521 237.5 531.0Q239 541 239.5 551.0Q240 561 240 564Q240 589 234 613Q226 644 214.5 677.5Q203 711 176 730Q165 738 149.5 743.5Q134 749 120 749Q81 749 56.5 725.0Q32 701 17.0 666.5Q2 632 -5.0 593.0Q-12 554 -15 525Q-12 554 -5.0 593.0Q2 632 17.0 666.5Q32 701 56.5 725.0Q81 749 120 749Q134 749 149.5 743.5Q165 738 176 730Q203 711 214.5 677.5Q226 644 234 613Q240 589 240 564Q240 561 239.5 551.0Q239 541 237.5 531.0Q236 521 233.0 513.0Q230 505 226 505Q221 505 220.0 512.0Q219 519 219 523Q219 543 227.0 568.5Q235 594 241 613L281 738Q289 761 296.5 783.5Q304 806 310 829Q320 865 329.0 901.5Q338 938 348 975Q357 1010 366.5 1044.0Q376 1078 385 1113Q390 1132 397.5 1155.0Q405 1178 405 1198Q405 1229 376 1229Q363 1229 346.0 1221.5Q329 1214 318 1208Q280 1185 254 1159Q225 1129 193.0 1088.0Q161 1047 150 1005Q147 990 147 974Q147 917 179.5 887.5Q212 858 257 835Q275 825 293.5 816.0Q312 807 331 797Q359 783 385.5 763.0Q412 743 432 719Q447 700 458.0 678.0Q469 656 478 633Z"/>
</svg>
