<?xml version="1.0" encoding="UTF-8"?>
<svg xmlns="http://www.w3.org/2000/svg" width="290" height="1268" viewBox="0 0 290 1268" data-advance="290" data-ascent="750" data-descent="-518" data-vertical-extent="1268" data-units-per-em="1000" data-glyph-name="five" data-codepoint="53" fill="none" stroke="currentColor" stroke-width="50" stroke-linecap="round" stroke-linejoin="round">
  <path d="M194 131Q194 131 191.0 137.5Q188 144 175.5 153.0Q163 162 147.5 168.0Q132 174 116.0 176.5Q100 179 87 179Q87 179 74.0 179.0Q61 179 37.5 175.5Q14 172 -12 166L-15 168Q-15 168 -17.5 172.0Q-20 176 -20 186Q-20 186 -20.0 191.5Q-20 197 -12.0 216.5Q-4 236 0 247Q0 247 5.5 264.5Q11 282 20.5 317.5Q30 353 41 388Q41 388 42.0 390.5Q43 393 47 393Q47 393 49.5 392.5Q52 392 56.5 386.0Q61 380 68.5 373.0Q76 366 87.5 360.0Q99 354 118 352Q118 352 135.5 352.0Q153 352 176.0 375.5Q199 399 212.5 432.0Q226 465 232.0 501.5Q238 538 238 564Q238 564 238.0 575.5Q238 587 233.5 620.0Q229 653 218.0 683.0Q207 713 187.0 734.0Q167 755 136 755Q136 755 123.0 755.0Q110 755 91.0 741.0Q72 727 60.0 705.5Q48 684 42.0 659.0Q36 634 36 613Q36 613 36.0 610.5Q36 608 36.5 585.5Q37 563 38 561"/>
</svg>
