<?xml version="1.0" encoding="UTF-8"?>
<svg xmlns="http://www.w3.org/2000/svg" width="409" height="1268" viewBox="0 0 409 1268" data-advance="409" data-ascent="750" data-descent="-518" data-vertical-extent="1268" data-units-per-em="1000" data-glyph-name="seven" data-codepoint="55" fill="none" stroke="currentColor" stroke-width="50" stroke-linecap="round" stroke-linejoin="round">
  <path d="M-56 137Q-56 137 -49.5 145.5Q-43 154 -23.5 164.0Q-4 174 18.5 179.0Q41 184 64.0 185.5Q87 187 106 187Q106 187 116.0 187.0Q126 187 149.5 185.0Q173 183 196.0 177.0Q219 171 239.0 160.5Q259 150 272 134Q272 134 274.5 131.0Q277 128 282.0 119.5Q287 111 287 103Q287 103 287.0 98.0Q287 93 283.5 91.0Q280 89 271 89Q271 89 261.0 89.0Q251 89 235 107Q235 107 226.0 117.0Q217 127 205.5 159.5Q194 192 187.5 228.0Q181 264 179.0 300.0Q177 336 177 362Q177 362 177.0 397.0Q177 432 186.5 517.0Q196 602 220 668Q220 668 225.0 682.0Q230 696 245 721Q245 721 249.0 728.0Q253 735 267.0 749.5Q281 764 299 765M100 434Q100 434 114.0 444.0Q128 454 158 454Q158 454 180.5 454.0Q203 454 242.0 437.0Q281 420 319 397"/>
</svg>
