<?xml version="1.0" encoding="UTF-8"?>
<svg xmlns="http://www.w3.org/2000/svg" width="497" height="1268" viewBox="0 0 497 1268" data-advance="497" data-ascent="750" data-descent="-518" data-vertical-extent="1268" data-units-per-em="1000" data-glyph-name="a" data-codepoint="97" fill="none" stroke="currentColor" stroke-width="50" stroke-linecap="round" stroke-linejoin="round">
  <path d="M129 569Q129 569 125.5 558.0Q122 547 106.5 530.5Q91 514 66 514Q66 514 46.5 514.0Q27 514 13.0 546.0Q-1 578 -1 610Q-1 610 -1.0 621.5Q-1 633 5.5 658.0Q12 683 24.5 703.5Q37 724 56.5 737.5Q76 751 103 751Q103 751 115.5 751.0Q128 751 144.0 736.5Q160 722 169.0 701.0Q178 680 181.0 656.0Q184 632 184 613Q184 613 184.0 600.0Q184 587 180.0 560.5Q176 534 171 508M183 592Q183 592 186.5 608.0Q190 624 201.5 656.5Q213 689 231.5 715.5Q250 742 277.0 758.5Q304 775 341 775Q341 775 375.0 775.0Q409 775 443.0 731.5Q477 688 497 630"/>
</svg>
