<?xml version="1.0" encoding="UTF-8"?>
<svg xmlns="http://www.w3.org/2000/svg" width="810" height="1268" viewBox="0 0 810 1268" data-advance="810" data-ascent="750" data-descent="-518" data-vertical-extent="1268" data-units-per-em="1000" data-glyph-name="W" data-codepoint="87" fill="none" stroke="currentColor" stroke-width="50" stroke-linecap="round" stroke-linejoin="round">
  <path d="M-470 22Q-470 22 -454.5 11.5Q-439 1 -407.0 -10.5Q-375 -22 -337 -22Q-337 -22 -308.5 -22.0Q-280 -22 -228.5 4.0Q-177 30 -137 68Q-137 68 -123.0 82.0Q-109 96 -80.5 135.5Q-52 175 -26.0 218.5Q0 262 22.5 305.5Q45 349 62 384Q62 384 67.0 394.5Q72 405 80.5 426.5Q89 448 99 469Q99 469 102.5 476.5Q106 484 113.0 498.0Q120 512 126 527Q126 527 142.0 563.0Q158 599 180 674Q180 674 181.5 679.0Q183 684 187.5 699.5Q192 715 192 726Q192 726 192.0 728.0Q192 730 190.0 734.5Q188 739 183 739Q183 739 179.5 739.0Q176 739 172.5 731.0Q169 723 167 718Q167 718 143.0 660.5Q119 603 93.0 482.0Q67 361 67 236Q67 236 67.0 217.0Q67 198 71.5 149.5Q76 101 91.5 58.0Q107 15 137.5 -14.5Q168 -44 219 -44Q219 -44 237.5 -44.0Q256 -44 287.0 -27.0Q318 -10 342 16Q342 16 367.5 43.5Q393 71 436.0 147.0Q479 223 514.5 306.5Q550 390 578.0 474.5Q606 559 627 631Q627 631 629.5 639.0Q632 647 638.5 662.5Q645 678 648 694Q648 694 648.5 696.5Q649 699 649.5 703.5Q650 708 651 712Q651 712 651.5 712.5Q652 713 652 718Q652 718 652.0 722.0Q652 726 644 726Q644 726 641.5 726.0Q639 726 636.5 721.0Q634 716 632 713Q632 713 612.0 667.5Q592 622 586.0 524.0Q580 426 575 329Q575 329 574.0 317.0Q573 305 575.0 280.0Q577 255 580 231Q580 231 583.0 207.0Q586 183 597.0 132.5Q608 82 628.0 36.5Q648 -9 681.0 -45.5Q714 -82 764 -103"/>
</svg>
