<?xml version="1.0" encoding="UTF-8"?>
<svg xmlns="http://www.w3.org/2000/svg" width="865" height="1268" viewBox="0 0 865 1268" data-advance="865" data-ascent="750" data-descent="-518" data-vertical-extent="1268" data-units-per-em="1000" data-glyph-name="B" data-codepoint="66" fill="none" stroke="currentColor" stroke-width="50" stroke-linecap="round" stroke-linejoin="round">
  <path d="M0 106Q0 106 9.0 111.5Q18 117 31.5 133.5Q45 150 55 169Q55 169 74.0 206.5Q93 244 113.5 336.0Q134 428 151 506L173 611Q173 611 177.5 631.0Q182 651 190.5 690.0Q199 729 204 769M101 290Q101 290 101.5 280.5Q102 271 103.0 252.5Q104 234 106 216Q106 216 108.0 200.5Q110 185 114.0 155.5Q118 126 128.5 100.5Q139 75 158.5 54.5Q178 34 211 21Q211 21 216.0 18.5Q221 16 235.0 13.0Q249 10 260 10Q260 10 267.5 10.0Q275 10 289.5 10.5Q304 11 319 14Q319 14 345.5 19.5Q372 25 409.5 58.5Q447 92 467 142Q467 142 469.5 147.5Q472 153 475.5 168.5Q479 184 479 195Q479 195 479.0 238.0Q479 281 424.0 329.5Q369 378 285 378Q285 378 272.5 378.0Q260 378 227.0 370.0Q194 362 175 345Q175 345 171.0 341.0Q167 337 167 329Q167 329 167.0 323.0Q167 317 175.5 312.5Q184 308 194 308Q194 308 199.0 308.0Q204 308 213.0 309.0Q222 310 230 312Q230 312 236.0 313.0Q242 314 254.0 316.5Q266 319 277 322Q277 322 308.5 331.5Q340 341 406.0 381.5Q472 422 520 465Q520 465 534.5 478.0Q549 491 574.0 522.0Q599 553 622 585Q622 585 630.0 596.5Q638 608 653.5 642.5Q669 677 669 705Q669 705 669.0 726.5Q669 748 642.5 764.5Q616 781 576 781Q576 781 558.0 781.0Q540 781 502.5 768.5Q465 756 430.0 735.5Q395 715 363.5 690.0Q332 665 308 640Q308 640 305.0 636.5Q302 633 287.5 618.0Q273 603 273 595Q273 595 273.0 590.5Q273 586 282 586Q282 586 283.5 586.0Q285 586 289.5 589.5Q294 593 297 595Q297 595 306.0 602.0Q315 609 337.0 622.5Q359 636 380 645Q380 645 399.5 653.5Q419 662 453.5 676.5Q488 691 521.5 702.0Q555 713 591.0 721.0Q627 729 669 733Q669 733 681.0 734.0Q693 735 721.5 731.0Q750 727 776 715M776 715Q776 715 801.0 700.5Q826 686 854 623"/>
</svg>
