<?xml version="1.0" encoding="UTF-8"?>
<svg xmlns="http://www.w3.org/2000/svg" width="585" height="1268" viewBox="0 0 585 1268" data-advance="585" data-ascent="750" data-descent="-518" data-vertical-extent="1268" data-units-per-em="1000" data-glyph-name="K" data-codepoint="75" fill="none" stroke="currentColor" stroke-width="50" stroke-linecap="round" stroke-linejoin="round">
  <path d="M-75 18Q-75 18 -62.5 54.5Q-50 91 -34.0 164.5Q-18 238 -1 313Q-1 313 6.0 347.0Q13 381 29.0 447.5Q45 514 57 582Q57 582 62.0 611.5Q67 641 75.0 698.5Q83 756 93 815M818 840Q818 840 813.0 843.5Q808 847 798.0 847.0Q788 847 777 849Q777 849 744.5 854.5Q712 860 649.0 845.0Q586 830 530.0 797.5Q474 765 427.0 719.5Q380 674 348 624Q348 624 339.0 609.5Q330 595 313.5 562.5Q297 530 278 501Q278 501 270.0 489.0Q262 477 241.5 460.5Q221 444 198 424Q198 424 193.0 419.5Q188 415 173.0 402.5Q158 390 141.5 378.5Q125 367 109.0 359.0Q93 351 79 351Q79 351 73.5 351.0Q68 351 59.0 356.0Q50 361 50 373Q50 373 50.0 390.5Q50 408 79.0 434.5Q108 461 140 471Q140 471 152.0 475.0Q164 479 198 479Q198 479 206.5 479.0Q215 479 234.5 474.5Q254 470 271 463Q271 463 318.0 443.5Q365 424 396 326Q396 326 399.5 315.5Q403 305 407.0 281.0Q411 257 411 235Q411 235 411.0 223.5Q411 212 405.0 185.0Q399 158 389.0 131.0Q379 104 366.0 80.0Q353 56 339 38"/>
</svg>
