<?xml version="1.0" encoding="UTF-8"?>
<svg xmlns="http://www.w3.org/2000/svg" width="595" height="1268" viewBox="0 0 595 1268" data-advance="595" data-ascent="750" data-descent="-518" data-vertical-extent="1268" data-units-per-em="1000" data-glyph-name="Y" data-codepoint="89" fill="none" stroke="currentColor" stroke-width="50" stroke-linecap="round" stroke-linejoin="round">
  <path d="M-371 -68Q-371 -68 -353.0 -73.5Q-335 -79 -303 -79Q-303 -79 -275.0 -79.0Q-247 -79 -209.0 -54.0Q-171 -29 -144 19Q-144 19 -129.5 44.5Q-115 70 -98.0 125.5Q-81 181 -71 238L-48 369Q-48 369 -45.0 388.0Q-42 407 -33.0 454.0Q-24 501 -9.5 547.0Q5 593 25.5 634.5Q46 676 76 703Q76 703 86.0 711.5Q96 720 123.5 729.5Q151 739 177 739Q177 739 210.5 739.0Q244 739 287 682Q287 682 300.0 664.5Q313 647 332.0 600.0Q351 553 364.0 502.0Q377 451 383.0 399.5Q389 348 389 306Q389 306 389.0 281.0Q389 256 379.5 195.5Q370 135 359 87M388 309Q388 309 391.5 336.0Q395 363 407.5 415.0Q420 467 432 521Q432 521 435.0 534.5Q438 548 444.0 575.5Q450 603 456 631Q456 631 458.5 644.0Q461 657 467.5 681.5Q474 706 481 731Q481 731 485.0 747.0Q489 763 491.0 790.0Q493 817 501 848Q501 848 509.0 879.5Q517 911 538.0 977.5Q559 1044 574 1107Q574 1107 578.0 1122.5Q582 1138 588.5 1168.5Q595 1199 602 1230Q602 1230 606.0 1249.0Q610 1268 617.5 1308.5Q625 1349 625 1388Q625 1388 625.0 1401.5Q625 1415 612.5 1432.0Q600 1449 571 1449Q571 1449 562.0 1449.0Q553 1449 530.0 1441.0Q507 1433 491 1424Q491 1424 454.5 1403.0Q418 1382 374.0 1328.0Q330 1274 304 1194Q304 1194 293.0 1159.5Q282 1125 282 1058Q282 1058 282.0 1038.5Q282 1019 282.0 978.5Q282 938 308 909Q308 909 319.5 896.5Q331 884 369.5 862.0Q408 840 450.0 810.5Q492 781 531.5 738.0Q571 695 595 628"/>
</svg>
