<?xml version="1.0" encoding="UTF-8"?>
<svg xmlns="http://www.w3.org/2000/svg" width="879" height="1268" viewBox="0 0 879 1268" data-advance="879" data-ascent="750" data-descent="-518" data-vertical-extent="1268" data-units-per-em="1000" data-glyph-name="O" data-codepoint="79" fill="none" stroke="currentColor" stroke-width="50" stroke-linecap="round" stroke-linejoin="round">
  <path d="M75 1Q75 1 51.5 31.0Q28 61 15.0 132.5Q2 204 2 277Q2 277 2.0 305.5Q2 334 16 396Q16 396 20.0 415.5Q24 435 36.0 472.5Q48 510 65 546Q65 546 72.0 560.5Q79 575 101 605Q101 605 126.0 640.0Q151 675 212.5 715.0Q274 755 364 755Q364 755 413.5 755.0Q463 755 519.5 696.0Q576 637 599 547Q599 547 603.0 530.0Q607 513 612.0 480.5Q617 448 617 413Q617 413 617.0 386.0Q617 359 605.5 299.0Q594 239 572.0 181.0Q550 123 517.5 72.0Q485 21 443 -16Q443 -16 422.5 -33.5Q402 -51 358.5 -73.5Q315 -96 259 -96Q259 -96 237.5 -96.0Q216 -96 187.0 -78.0Q158 -60 140.0 -31.5Q122 -3 114.5 33.5Q107 70 107 106Q107 106 107.0 111.0Q107 116 107.0 125.0Q107 134 109 143Q109 143 111.5 166.0Q114 189 124.5 235.0Q135 281 156 323Q156 323 171.0 353.0Q186 383 210.5 429.0Q235 475 261.5 513.0Q288 551 321.0 586.0Q354 621 401 660Q401 660 424.5 679.5Q448 699 513.0 727.0Q578 755 645.5 757.0Q713 759 775.5 729.0Q838 699 880 621"/>
</svg>
