<?xml version="1.0" encoding="UTF-8"?>
<svg xmlns="http://www.w3.org/2000/svg" width="806" height="1268" viewBox="0 0 806 1268" data-advance="806" data-ascent="750" data-descent="-518" data-vertical-extent="1268" data-units-per-em="1000" data-glyph-name="A" data-codepoint="65" fill="none" stroke="currentColor" stroke-width="50" stroke-linecap="round" stroke-linejoin="round">
  <path d="M360 131Q360 131 363.0 102.0Q366 73 341.5 32.0Q317 -9 252 -9Q252 -9 233.5 -9.0Q215 -9 178 8Q178 8 153.5 19.5Q129 31 95.0 74.5Q61 118 40.0 171.0Q19 224 10.0 281.0Q1 338 1 388Q1 388 1.0 407.0Q1 426 6.5 464.5Q12 503 21 541Q21 541 28.0 570.0Q35 599 63.5 643.0Q92 687 140 722Q140 722 152.5 731.5Q165 741 195.0 749.5Q225 758 256 758Q256 758 270.5 758.0Q285 758 312.0 749.0Q339 740 359 718Q359 718 369.5 707.0Q380 696 396.5 666.0Q413 636 425.5 602.5Q438 569 446.0 535.0Q454 501 457 471Q457 471 458.0 460.5Q459 450 460.5 427.5Q462 405 462 383Q462 383 462.0 376.0Q462 369 460.5 336.5Q459 304 453.0 270.5Q447 237 435.0 211.5Q423 186 402 186Q402 186 397.0 186.0Q392 186 384.5 193.5Q377 201 373.0 212.0Q369 223 367.0 235.0Q365 247 365 255Q365 255 365.0 285.0Q365 315 374 378Q374 378 379.0 414.0Q384 450 408.0 525.5Q432 601 473 662Q473 662 481.0 673.5Q489 685 506.5 706.5Q524 728 548 742Q548 742 568.5 753.5Q589 765 630 765Q630 765 643.0 765.0Q656 765 688 755Q688 755 711.5 748.0Q735 741 754.5 708.0Q774 675 790 633"/>
</svg>
