<?xml version="1.0" encoding="UTF-8"?>
<svg xmlns="http://www.w3.org/2000/svg" width="933" height="1268" viewBox="0 0 933 1268" data-advance="933" data-ascent="750" data-descent="-518" data-vertical-extent="1268" data-units-per-em="1000" data-glyph-name="I" data-codepoint="73" fill="none" stroke="currentColor" stroke-width="50" stroke-linecap="round" stroke-linejoin="round">
  <path d="M992 440Q992 440 968.0 458.5Q944 477 890.5 492.0Q837 507 777 507Q777 507 699.5 507.0Q622 507 496.5 436.5Q371 366 303 223Q303 223 294.5 205.5Q286 188 276.0 154.5Q266 121 266 82Q266 82 266.0 66.5Q266 51 275.5 14.0Q285 -23 311 -42Q311 -42 317.5 -46.5Q324 -51 341.5 -57.0Q359 -63 375 -63Q375 -63 420.0 -63.0Q465 -63 539 -21Q539 -21 556.5 -10.5Q574 0 607 33Q607 33 646.0 71.5Q685 110 726.0 207.5Q767 305 767 414Q767 414 767.0 431.5Q767 449 758 487Q758 487 734.5 588.0Q711 689 514 733Q514 733 502.5 735.5Q491 738 466.5 741.5Q442 745 417 745Q417 745 391.0 745.0Q365 745 315.0 729.0Q265 713 220.0 686.5Q175 660 134.5 625.5Q94 591 60 554Q60 554 53.5 547.0Q47 540 35.5 526.0Q24 512 13 495"/>
</svg>
