<?xml version="1.0" encoding="UTF-8"?>
<svg xmlns="http://www.w3.org/2000/svg" width="368" height="1268" viewBox="0 0 368 1268" data-advance="368" data-ascent="750" data-descent="-518" data-vertical-extent="1268" data-units-per-em="1000" data-glyph-name="e" data-codepoint="101" fill="none" stroke="currentColor" stroke-width="50" stroke-linecap="round" stroke-linejoin="round">
  <path d="M0 632Q0 632 12.0 639.0Q24 646 55 646Q55 646 73.5 646.0Q92 646 118.0 624.5Q144 603 144 566Q144 566 144.0 548.5Q144 531 120.0 511.5Q96 492 64 492Q64 492 47.5 492.0Q31 492 8.5 513.5Q-14 535 -14 571Q-14 571 -14.0 585.0Q-14 599 0 627Q0 627 13.5 658.5Q27 690 84.0 726.5Q141 763 212 763Q212 763 246.5 763.0Q281 763 313.0 727.5Q345 692 368 632"/>
</svg>
