<?xml version="1.0" encoding="UTF-8"?>
<svg xmlns="http://www.w3.org/2000/svg" width="411" height="1268" viewBox="0 0 411 1268" data-advance="411" data-ascent="750" data-descent="-518" data-vertical-extent="1268" data-units-per-em="1000" data-glyph-name="g" data-codepoint="103" fill="none" stroke="currentColor" stroke-width="50" stroke-linecap="round" stroke-linejoin="round">
  <path d="M132 567Q132 567 129.5 555.5Q127 544 112.5 530.0Q98 516 74 516Q74 516 54.0 516.0Q34 516 16.0 548.0Q-2 580 -2 615Q-2 615 -2.0 634.5Q-2 654 13.0 690.5Q28 727 66 744Q66 744 73.0 747.5Q80 751 97 751Q97 751 114.0 751.0Q131 751 149 721Q149 721 156.5 708.5Q164 696 173.0 653.0Q182 610 182 581Q182 581 182.0 573.5Q182 566 180.0 551.0Q178 536 176 521M182 569Q182 569 188.5 618.5Q195 668 219.5 763.0Q244 858 267 955Q267 955 271.0 973.0Q275 991 282.5 1028.0Q290 1065 298 1103Q298 1103 300.5 1115.5Q303 1128 311.0 1163.0Q319 1198 319 1223Q319 1223 319.0 1233.5Q319 1244 310.5 1257.0Q302 1270 279 1270Q279 1270 272.5 1270.0Q266 1270 251.0 1263.0Q236 1256 225 1249Q225 1249 198.5 1232.5Q172 1216 133.5 1165.0Q95 1114 66 1059Q66 1059 60.5 1048.5Q55 1038 45.0 1014.0Q35 990 35 966Q35 966 35.0 940.5Q35 915 76.0 883.5Q117 852 172.5 826.5Q228 801 285.0 773.5Q342 746 375 703Q375 703 386.5 688.0Q398 673 411 632"/>
</svg>
