<?xml version="1.0" encoding="UTF-8"?>
<svg xmlns="http://www.w3.org/2000/svg" width="535" height="1268" viewBox="0 0 535 1268" data-advance="535" data-ascent="750" data-descent="-518" data-vertical-extent="1268" data-units-per-em="1000" data-glyph-name="h" data-codepoint="104" fill="none" stroke="currentColor" stroke-width="50" stroke-linecap="round" stroke-linejoin="round">
  <path d="M0 632Q0 632 9.5 609.5Q19 587 32.5 531.5Q46 476 54.5 417.0Q63 358 67.0 300.0Q71 242 71 194Q71 194 71.0 184.5Q71 175 69.0 143.0Q67 111 59.0 80.0Q51 49 35.5 26.0Q20 3 -7 3Q-7 3 -18.5 3.0Q-30 3 -44.0 19.5Q-58 36 -65.5 59.0Q-73 82 -75.0 107.0Q-77 132 -77 149Q-77 149 -77.0 165.0Q-77 181 -76.0 212.5Q-75 244 -71 276Q-71 276 -68.0 305.0Q-65 334 -53.5 389.5Q-42 445 -30 501Q-30 501 -27.0 513.5Q-24 526 -17.5 559.0Q-11 592 -1.5 625.0Q8 658 20.5 687.5Q33 717 50 737Q50 737 52.5 740.0Q55 743 61 743Q61 743 67.0 743.0Q73 743 88.0 716.0Q103 689 117.0 657.0Q131 625 144.0 598.0Q157 571 164 571H165Q165 571 167.5 571.0Q170 571 175.0 578.0Q180 585 182 590Q182 590 192.0 609.5Q202 629 221.0 669.5Q240 710 279 735Q279 735 300.0 748.0Q321 761 368 761Q368 761 404.0 761.0Q440 761 476.0 729.0Q512 697 535 632"/>
</svg>
