<?xml version="1.0" encoding="UTF-8"?>
<svg xmlns="http://www.w3.org/2000/svg" width="378" height="1268" viewBox="0 0 378 1268" data-advance="378" data-ascent="750" data-descent="-518" data-vertical-extent="1268" data-units-per-em="1000" data-glyph-name="parenleft" data-codepoint="40" fill="none" stroke="currentColor" stroke-width="50" stroke-linecap="round" stroke-linejoin="round">
  <path d="M224 -65Q224 -65 207.5 -50.5Q191 -36 161 0Q161 0 140.0 23.5Q119 47 86.0 110.5Q53 174 34 234Q34 234 30.0 247.0Q26 260 20.0 287.0Q14 314 9 340Q9 340 7.0 352.5Q5 365 2.0 391.0Q-1 417 -1 442Q-1 442 -1.0 464.5Q-1 487 9.5 532.5Q20 578 37 621Q37 621 43.5 637.0Q50 653 66.0 684.0Q82 715 104 743Q104 743 123.0 767.0Q142 791 195.5 832.5Q249 874 303 903"/>
</svg>
