<?xml version="1.0" encoding="UTF-8"?>
<svg xmlns="http://www.w3.org/2000/svg" width="665" height="1268" viewBox="0 0 665 1268" data-advance="665" data-ascent="750" data-descent="-518" data-vertical-extent="1268" data-units-per-em="1000" data-glyph-name="m" data-codepoint="109" fill="none" stroke="currentColor" stroke-width="50" stroke-linecap="round" stroke-linejoin="round">
  <path d="M0 633Q0 633 2.5 624.5Q5 616 10.0 599.5Q15 583 18 566Q18 566 18.5 564.5Q19 563 20.5 554.5Q22 546 27 546Q27 546 31.0 546.0Q35 546 38.0 556.5Q41 567 42 573Q42 573 42.5 577.0Q43 581 46.5 605.0Q50 629 55.0 654.5Q60 680 66.5 700.0Q73 720 80 720Q80 720 82.5 720.0Q85 720 88.5 715.5Q92 711 94 708Q94 708 104.5 692.5Q115 677 128.5 642.5Q142 608 154 573Q154 573 155.0 570.0Q156 567 162.5 551.0Q169 535 175 533Q175 533 176.0 532.0Q177 531 183 531Q183 531 188.0 531.0Q193 531 199.0 562.5Q205 594 211.0 632.0Q217 670 224.0 701.5Q231 733 243 733Q243 733 246.0 733.0Q249 733 262.0 707.0Q275 681 288.5 647.5Q302 614 313.0 583.0Q324 552 327 542Q327 542 327.5 541.0Q328 540 330.5 531.0Q333 522 336 522Q336 522 341.0 522.0Q346 522 348.5 528.0Q351 534 353 542Q353 542 356.0 554.5Q359 567 362.0 595.5Q365 624 372.0 650.5Q379 677 392.5 700.0Q406 723 433 738Q433 738 442.0 743.0Q451 748 471.5 754.5Q492 761 513 761Q513 761 545.0 761.0Q577 761 611.0 723.5Q645 686 665 631"/>
</svg>
