<?xml version="1.0" encoding="UTF-8"?>
<svg xmlns="http://www.w3.org/2000/svg" width="312" height="1268" viewBox="0 0 312 1268" data-advance="312" data-ascent="750" data-descent="-518" data-vertical-extent="1268" data-units-per-em="1000" data-glyph-name="parenright" data-codepoint="41" fill="none" stroke="currentColor" stroke-width="50" stroke-linecap="round" stroke-linejoin="round">
  <path d="M-88 -66Q-88 -66 -73.5 -57.0Q-59 -48 -30.0 -30.5Q-1 -13 25 10Q25 10 56.5 37.0Q88 64 132.0 130.0Q176 196 196 277Q196 277 200.0 293.5Q204 310 211.5 343.0Q219 376 219 410Q219 410 219.0 426.5Q219 443 213.5 477.0Q208 511 200 543Q200 543 188.5 592.0Q177 641 124.5 738.5Q72 836 -8 900"/>
</svg>
