<?xml version="1.0" encoding="UTF-8"?>
<svg xmlns="http://www.w3.org/2000/svg" width="367" height="1268" viewBox="0 0 367 1268" data-advance="367" data-ascent="750" data-descent="-518" data-vertical-extent="1268" data-units-per-em="1000" data-glyph-name="s" data-codepoint="115" fill="none" stroke="currentColor" stroke-width="50" stroke-linecap="round" stroke-linejoin="round">
  <path d="M45 652Q45 652 47.0 660.5Q49 669 57 686Q57 686 62.5 697.5Q68 709 95.5 730.0Q123 751 147 756Q147 756 157.0 758.5Q167 761 195 761Q195 761 229.5 761.0Q264 761 304.5 728.0Q345 695 367 631M0 632Q0 632 5.5 618.5Q11 605 18.0 577.0Q25 549 25 520Q25 520 25.0 512.0Q25 504 24 497Q24 497 34.0 498.0Q44 499 61.5 511.5Q79 524 93 537Q93 537 109.0 553.0Q125 569 149.0 611.5Q173 654 173 700Q173 700 173.0 708.5Q173 717 167.5 732.0Q162 747 147 756"/>
</svg>
