<?xml version="1.0" encoding="UTF-8"?>
<svg xmlns="http://www.w3.org/2000/svg" width="682" height="1268" viewBox="0 0 682 1268" data-advance="682" data-ascent="750" data-descent="-518" data-vertical-extent="1268" data-units-per-em="1000" data-glyph-name="w" data-codepoint="119" fill="none" stroke="currentColor" stroke-width="50" stroke-linecap="round" stroke-linejoin="round">
  <path d="M7 537Q7 537 0.5 550.5Q-6 564 -6 600Q-6 600 -6.0 611.0Q-6 622 -2.5 648.5Q1 675 11.0 698.5Q21 722 39.0 738.0Q57 754 85 754Q85 754 101.0 754.0Q117 754 139.5 739.0Q162 724 176.5 700.5Q191 677 197.5 648.5Q204 620 204 593Q204 593 204.0 583.0Q204 573 198 561L196 560L195 561L194 562Q194 562 194.0 563.5Q194 565 195 567Q195 567 196.0 574.5Q197 582 199.0 597.0Q201 612 206 626Q206 626 209.0 636.5Q212 647 222.5 670.0Q233 693 248.5 712.5Q264 732 284.5 745.0Q305 758 329 758Q329 758 340.5 758.0Q352 758 368.5 746.5Q385 735 395.5 717.5Q406 700 410.5 679.0Q415 658 415 639Q415 639 415.0 631.0Q415 623 410.5 597.5Q406 572 396.5 547.5Q387 523 372.5 505.0Q358 487 337 487Q337 487 332.5 487.0Q328 487 323.5 494.0Q319 501 319 509Q319 509 319.0 514.5Q319 520 325.5 534.5Q332 549 337 560Q337 560 344.5 575.0Q352 590 374.5 620.5Q397 651 425.5 676.0Q454 701 487.0 717.0Q520 733 557 733Q557 733 582.5 733.0Q608 733 637.0 707.0Q666 681 682 634"/>
</svg>
