<?xml version="1.0" encoding="UTF-8"?>
<svg xmlns="http://www.w3.org/2000/svg" width="367" height="1268" viewBox="0 0 367 1268" data-advance="367" data-ascent="750" data-descent="-518" data-vertical-extent="1268" data-units-per-em="1000" data-glyph-name="x" data-codepoint="120" fill="none" stroke="currentColor" stroke-width="50" stroke-linecap="round" stroke-linejoin="round">
  <path d="M221 502Q221 502 208.0 515.5Q195 529 170.0 557.0Q145 585 120 613Q120 613 114.0 619.5Q108 626 87.0 649.5Q66 673 43.0 700.5Q20 728 0.5 755.5Q-19 783 -28 802M-35 514Q-35 514 -33.0 533.5Q-31 553 -13.0 594.5Q5 636 32.5 673.0Q60 710 95.5 739.0Q131 768 172 783Q172 783 191.0 790.0Q210 797 240.5 786.0Q271 775 295.0 751.0Q319 727 337.0 694.5Q355 662 366 633"/>
</svg>
